<?xml version="1.0" encoding="UTF-8" standalone="no"?>
<!DOCTYPE svg PUBLIC "-//W3C//DTD SVG 1.1//EN"
 "http://www.w3.org/Graphics/SVG/1.1/DTD/svg11.dtd">
<!-- Generated by graphviz version 2.43.0 (0)
 -->
<!-- Title: XXX Pages: 1 -->
<svg width="2540pt" height="453pt"
 viewBox="0.00 0.00 2540.09 452.50" xmlns="http://www.w3.org/2000/svg" xmlns:xlink="http://www.w3.org/1999/xlink">
<g id="graph0" class="graph" transform="scale(1 1) rotate(0) translate(4 448.5)">
<title>XXX</title>
<polygon fill="white" stroke="transparent" points="-4,4 -4,-448.5 2536.09,-448.5 2536.09,4 -4,4"/>
<g id="clust1" class="cluster">
<title>clusterLegend</title>
<polygon fill="none" stroke="black" points="8,-169.46 8,-436.5 636,-436.5 636,-169.46 8,-169.46"/>
<text text-anchor="middle" x="322" y="-421.3" font-family="Times,serif" font-size="14.00">Legend</text>
</g>
<!-- legendNode0 -->
<g id="node1" class="node">
<title>legendNode0</title>
<polygon fill="none" stroke="black" points="324.03,-369.55 327.36,-369.65 330.65,-369.8 333.89,-369.99 337.08,-370.24 340.19,-370.53 343.22,-370.87 346.14,-371.25 348.96,-371.68 351.66,-372.15 354.23,-372.66 356.66,-373.22 358.95,-373.81 361.08,-374.44 363.05,-375.11 364.86,-375.81 366.5,-376.54 367.96,-377.3 369.25,-378.09 370.36,-378.91 371.29,-379.75 372.05,-380.61 372.63,-381.49 373.03,-382.39 373.26,-383.3 373.32,-384.22 373.22,-385.15 372.96,-386.09 372.54,-387.03 371.97,-387.97 371.26,-388.91 370.42,-389.85 369.44,-390.78 368.35,-391.71 367.13,-392.62 365.81,-393.51 364.39,-394.39 362.88,-395.25 361.28,-396.09 359.6,-396.91 357.85,-397.7 356.04,-398.46 354.16,-399.2 352.24,-399.9 350.27,-400.56 348.25,-401.19 346.2,-401.79 344.12,-402.34 342.01,-402.85 339.88,-403.33 337.73,-403.75 335.56,-404.14 333.38,-404.47 331.18,-404.77 328.98,-405.01 326.77,-405.21 324.55,-405.35 322.33,-405.45 320.11,-405.5 317.89,-405.5 315.67,-405.45 313.45,-405.35 311.23,-405.21 309.02,-405.01 306.82,-404.77 304.62,-404.47 302.44,-404.14 300.27,-403.75 298.12,-403.33 295.99,-402.85 293.88,-402.34 291.8,-401.79 289.75,-401.19 287.73,-400.56 285.76,-399.9 283.84,-399.2 281.96,-398.46 280.15,-397.7 278.4,-396.91 276.72,-396.09 275.12,-395.25 273.61,-394.39 272.19,-393.51 270.87,-392.62 269.65,-391.71 268.56,-390.78 267.58,-389.85 266.74,-388.91 266.03,-387.97 265.46,-387.03 265.04,-386.09 264.78,-385.15 264.68,-384.22 264.74,-383.3 264.97,-382.39 265.37,-381.49 265.95,-380.61 266.71,-379.75 267.64,-378.91 268.75,-378.09 270.04,-377.3 271.5,-376.54 273.14,-375.81 274.95,-375.11 276.92,-374.44 279.05,-373.81 281.34,-373.22 283.77,-372.66 286.34,-372.15 289.04,-371.68 291.86,-371.25 294.78,-370.87 297.81,-370.53 300.92,-370.24 304.11,-369.99 307.35,-369.8 310.64,-369.65 313.97,-369.55 317.32,-369.5 320.68,-369.5 324.03,-369.55"/>
<text text-anchor="middle" x="319" y="-384.4" font-family="Times,serif" font-size="12.00">Executable</text>
</g>
<!-- legendNode1 -->
<g id="node2" class="node">
<title>legendNode1</title>
<polygon fill="none" stroke="black" points="455.09,-291.02 455.09,-305.93 415.79,-316.48 360.21,-316.48 320.91,-305.93 320.91,-291.02 360.21,-280.48 415.79,-280.48 455.09,-291.02"/>
<text text-anchor="middle" x="388" y="-295.38" font-family="Times,serif" font-size="12.00">Static Library</text>
</g>
<!-- legendNode0&#45;&gt;legendNode1 -->
<g id="edge1" class="edge">
<title>legendNode0&#45;&gt;legendNode1</title>
<path fill="none" stroke="black" d="M332.3,-369.72C342.45,-356.92 356.6,-339.09 368.09,-324.59"/>
<polygon fill="black" stroke="black" points="371.03,-326.51 374.5,-316.5 365.55,-322.16 371.03,-326.51"/>
</g>
<!-- legendNode2 -->
<g id="node3" class="node">
<title>legendNode2</title>
<polygon fill="none" stroke="black" points="624.1,-291.02 624.1,-305.93 581.28,-316.48 520.72,-316.48 477.9,-305.93 477.9,-291.02 520.72,-280.48 581.28,-280.48 624.1,-291.02"/>
<polygon fill="none" stroke="black" points="628.09,-287.89 628.09,-309.07 581.76,-320.48 520.24,-320.48 473.91,-309.07 473.91,-287.89 520.24,-276.48 581.76,-276.48 628.09,-287.89"/>
<text text-anchor="middle" x="551" y="-295.38" font-family="Times,serif" font-size="12.00">Shared Library</text>
</g>
<!-- legendNode0&#45;&gt;legendNode2 -->
<g id="edge2" class="edge">
<title>legendNode0&#45;&gt;legendNode2</title>
<path fill="none" stroke="black" d="M355.51,-372.81C392.99,-358.75 451.82,-336.68 495.16,-320.42"/>
<polygon fill="black" stroke="black" points="496.58,-323.63 504.72,-316.84 494.12,-317.08 496.58,-323.63"/>
</g>
<!-- legendNode3 -->
<g id="node4" class="node">
<title>legendNode3</title>
<polygon fill="none" stroke="black" points="171.92,-291.02 171.92,-305.93 128.62,-316.48 67.38,-316.48 24.08,-305.93 24.08,-291.02 67.38,-280.48 128.62,-280.48 171.92,-291.02"/>
<polygon fill="none" stroke="black" points="175.92,-287.88 175.92,-309.08 129.1,-320.48 66.9,-320.48 20.08,-309.08 20.08,-287.88 66.9,-276.48 129.1,-276.48 175.92,-287.88"/>
<polygon fill="none" stroke="black" points="179.92,-284.74 179.92,-312.22 129.58,-324.48 66.42,-324.48 16.08,-312.22 16.08,-284.74 66.42,-272.48 129.58,-272.48 179.92,-284.74"/>
<text text-anchor="middle" x="98" y="-295.38" font-family="Times,serif" font-size="12.00">Module Library</text>
</g>
<!-- legendNode0&#45;&gt;legendNode3 -->
<!-- legendNode7 -->
<g id="node8" class="node">
<title>legendNode7</title>
<polygon fill="none" stroke="black" points="302.5,-316.48 197.5,-316.48 197.5,-280.48 302.5,-280.48 302.5,-316.48"/>
<text text-anchor="middle" x="250" y="-295.38" font-family="Times,serif" font-size="12.00">Custom Target</text>
</g>
<!-- legendNode0&#45;&gt;legendNode7 -->
<!-- legendNode4 -->
<g id="node5" class="node">
<title>legendNode4</title>
<polygon fill="none" stroke="black" points="459.14,-201.02 367,-213.46 274.86,-201.02 310.05,-180.89 423.95,-180.89 459.14,-201.02"/>
<text text-anchor="middle" x="367" y="-192.36" font-family="Times,serif" font-size="12.00">Interface Library</text>
</g>
<!-- legendNode1&#45;&gt;legendNode4 -->
<g id="edge4" class="edge">
<title>legendNode1&#45;&gt;legendNode4</title>
<path fill="none" stroke="black" stroke-dasharray="5,2" d="M384.44,-280.34C381.17,-264.62 376.28,-241.1 372.51,-222.96"/>
<polygon fill="black" stroke="black" points="375.9,-222.08 370.44,-213.01 369.05,-223.51 375.9,-222.08"/>
<text text-anchor="middle" x="411.5" y="-243.28" font-family="Times,serif" font-size="14.00">Interface</text>
</g>
<!-- legendNode5 -->
<g id="node6" class="node">
<title>legendNode5</title>
<polygon fill="none" stroke="black" points="626.77,-195.46 589.39,-213.46 514.61,-213.46 477.23,-195.46 514.61,-177.46 589.39,-177.46 626.77,-195.46"/>
<text text-anchor="middle" x="552" y="-192.36" font-family="Times,serif" font-size="12.00">Object Library</text>
</g>
<!-- legendNode2&#45;&gt;legendNode5 -->
<g id="edge5" class="edge">
<title>legendNode2&#45;&gt;legendNode5</title>
<path fill="none" stroke="black" stroke-dasharray="1,5" d="M551.21,-276.05C551.36,-260.76 551.57,-240.06 551.73,-223.6"/>
<polygon fill="black" stroke="black" points="555.23,-223.54 551.83,-213.5 548.23,-223.47 555.23,-223.54"/>
<text text-anchor="middle" x="578" y="-243.28" font-family="Times,serif" font-size="14.00">Private</text>
</g>
<!-- legendNode6 -->
<g id="node7" class="node">
<title>legendNode6</title>
<polygon fill="none" stroke="black" points="185.95,-191.45 169.12,-206.68 101,-213.46 32.88,-206.68 16.05,-191.45 63.2,-179.24 138.8,-179.24 185.95,-191.45"/>
<text text-anchor="middle" x="101" y="-192.36" font-family="Times,serif" font-size="12.00">Unknown Library</text>
</g>
<!-- legendNode3&#45;&gt;legendNode6 -->
<g id="edge6" class="edge">
<title>legendNode3&#45;&gt;legendNode6</title>
<path fill="none" stroke="black" d="M98.75,-272.25C99.19,-257.48 99.74,-238.83 100.19,-223.73"/>
<polygon fill="black" stroke="black" points="103.7,-223.56 100.5,-213.46 96.7,-223.35 103.7,-223.56"/>
</g>
<!-- node0 -->
<g id="node9" class="node">
<title>node0</title>
<polygon fill="none" stroke="black" points="1872.31,-369.55 1875.17,-369.65 1877.99,-369.8 1880.77,-369.99 1883.51,-370.24 1886.17,-370.53 1888.77,-370.87 1891.28,-371.25 1893.7,-371.68 1896.01,-372.15 1898.21,-372.66 1900.3,-373.22 1902.26,-373.81 1904.09,-374.44 1905.78,-375.11 1907.33,-375.81 1908.73,-376.54 1909.99,-377.3 1911.1,-378.09 1912.05,-378.91 1912.85,-379.75 1913.5,-380.61 1913.99,-381.49 1914.34,-382.39 1914.54,-383.3 1914.59,-384.22 1914.5,-385.15 1914.28,-386.09 1913.92,-387.03 1913.43,-387.97 1912.82,-388.91 1912.1,-389.85 1911.26,-390.78 1910.32,-391.71 1909.28,-392.62 1908.15,-393.51 1906.93,-394.39 1905.63,-395.25 1904.26,-396.09 1902.82,-396.91 1901.32,-397.7 1899.76,-398.46 1898.16,-399.2 1896.51,-399.9 1894.81,-400.56 1893.09,-401.19 1891.33,-401.79 1889.54,-402.34 1887.74,-402.85 1885.91,-403.33 1884.06,-403.75 1882.2,-404.14 1880.33,-404.47 1878.45,-404.77 1876.56,-405.01 1874.66,-405.21 1872.76,-405.35 1870.86,-405.45 1868.95,-405.5 1867.05,-405.5 1865.14,-405.45 1863.24,-405.35 1861.34,-405.21 1859.44,-405.01 1857.55,-404.77 1855.67,-404.47 1853.8,-404.14 1851.94,-403.75 1850.09,-403.33 1848.26,-402.85 1846.46,-402.34 1844.67,-401.79 1842.91,-401.19 1841.19,-400.56 1839.49,-399.9 1837.84,-399.2 1836.24,-398.46 1834.68,-397.7 1833.18,-396.91 1831.74,-396.09 1830.37,-395.25 1829.07,-394.39 1827.85,-393.51 1826.72,-392.62 1825.68,-391.71 1824.74,-390.78 1823.9,-389.85 1823.18,-388.91 1822.57,-387.97 1822.08,-387.03 1821.72,-386.09 1821.5,-385.15 1821.41,-384.22 1821.46,-383.3 1821.66,-382.39 1822.01,-381.49 1822.5,-380.61 1823.15,-379.75 1823.95,-378.91 1824.9,-378.09 1826.01,-377.3 1827.27,-376.54 1828.67,-375.81 1830.22,-375.11 1831.91,-374.44 1833.74,-373.81 1835.7,-373.22 1837.79,-372.66 1839.99,-372.15 1842.3,-371.68 1844.72,-371.25 1847.23,-370.87 1849.83,-370.53 1852.49,-370.24 1855.23,-369.99 1858.01,-369.8 1860.83,-369.65 1863.69,-369.55 1866.56,-369.5 1869.44,-369.5 1872.31,-369.55"/>
<text text-anchor="middle" x="1868" y="-384.4" font-family="Times,serif" font-size="12.00">TestMain</text>
</g>
<!-- node0&#45;&gt;node0 -->
<g id="edge8" class="edge">
<title>node0&#45;&gt;node0</title>
<path fill="none" stroke="black" d="M1905.14,-395.7C1920.04,-396.16 1932.54,-393.43 1932.54,-387.5 1932.54,-384.21 1928.69,-381.9 1922.72,-380.58"/>
<polygon fill="black" stroke="black" points="1923,-377.09 1912.65,-379.35 1922.15,-384.04 1923,-377.09"/>
</g>
<!-- node1 -->
<g id="node10" class="node">
<title>node1</title>
<polygon fill="none" stroke="black" points="2063.94,-291.02 2063.94,-305.93 2033.52,-316.48 1990.48,-316.48 1960.06,-305.93 1960.06,-291.02 1990.48,-280.48 2033.52,-280.48 2063.94,-291.02"/>
<text text-anchor="middle" x="2012" y="-295.38" font-family="Times,serif" font-size="12.00">XXX&#45;static</text>
</g>
<!-- node0&#45;&gt;node1 -->
<g id="edge27" class="edge">
<title>node0&#45;&gt;node1</title>
<path fill="none" stroke="black" stroke-dasharray="1,5" d="M1893.08,-371.34C1916.44,-357.23 1951.46,-336.07 1977.45,-320.36"/>
<polygon fill="black" stroke="black" points="1979.49,-323.22 1986.23,-315.05 1975.87,-317.23 1979.49,-323.22"/>
</g>
<!-- node17 -->
<g id="node26" class="node">
<title>node17</title>
<polygon fill="none" stroke="black" points="847.06,-184.67 847.06,-206.24 787.86,-221.5 704.14,-221.5 644.94,-206.24 644.94,-184.67 704.14,-169.41 787.86,-169.41 847.06,-184.67"/>
<text text-anchor="middle" x="746" y="-198.86" font-family="Times,serif" font-size="12.00">gtest_main</text>
<text text-anchor="middle" x="746" y="-185.86" font-family="Times,serif" font-size="12.00">(GTest::gtest_main)</text>
</g>
<!-- node0&#45;&gt;node17 -->
<g id="edge31" class="edge">
<title>node0&#45;&gt;node17</title>
<path fill="none" stroke="black" stroke-dasharray="1,5" d="M1822.89,-379.81C1681.36,-358.65 1233.6,-290.52 865,-221.48 854.17,-219.45 842.8,-217.21 831.58,-214.92"/>
<polygon fill="black" stroke="black" points="832.26,-211.49 821.76,-212.91 830.85,-218.35 832.26,-211.49"/>
</g>
<!-- node2 -->
<g id="node11" class="node">
<title>node2</title>
<polygon fill="none" stroke="black" points="2532.18,-201.02 2456,-213.46 2379.82,-201.02 2408.92,-180.89 2503.08,-180.89 2532.18,-201.02"/>
<text text-anchor="middle" x="2456" y="-192.36" font-family="Times,serif" font-size="12.00">cppzmq&#45;static</text>
</g>
<!-- node1&#45;&gt;node2 -->
<g id="edge12" class="edge">
<title>node1&#45;&gt;node2</title>
<path fill="none" stroke="black" d="M2042.57,-283.42C2052.15,-279.43 2062.88,-275.38 2073,-272.48 2137.37,-254 2304.75,-236.52 2370,-221.48 2383.4,-218.39 2397.81,-214.45 2410.93,-210.61"/>
<polygon fill="black" stroke="black" points="2412.08,-213.92 2420.67,-207.71 2410.09,-207.21 2412.08,-213.92"/>
</g>
<!-- node6 -->
<g id="node15" class="node">
<title>node6</title>
<polygon fill="none" stroke="black" points="1766.17,-184.67 1766.17,-206.24 1698.12,-221.5 1601.88,-221.5 1533.83,-206.24 1533.83,-184.67 1601.88,-169.41 1698.12,-169.41 1766.17,-184.67"/>
<text text-anchor="middle" x="1650" y="-198.86" font-family="Times,serif" font-size="12.00">pull</text>
<text text-anchor="middle" x="1650" y="-185.86" font-family="Times,serif" font-size="12.00">(prometheus&#45;cpp::pull)</text>
</g>
<!-- node1&#45;&gt;node6 -->
<g id="edge17" class="edge">
<title>node1&#45;&gt;node6</title>
<path fill="none" stroke="black" d="M1972.57,-286.48C1914.96,-270.4 1806.48,-240.12 1731.32,-219.15"/>
<polygon fill="black" stroke="black" points="1731.98,-215.7 1721.41,-216.38 1730.1,-222.44 1731.98,-215.7"/>
</g>
<!-- node10 -->
<g id="node19" class="node">
<title>node10</title>
<polygon fill="none" stroke="black" points="1949.82,-184.67 1949.82,-206.24 1901.3,-221.5 1832.7,-221.5 1784.18,-206.24 1784.18,-184.67 1832.7,-169.41 1901.3,-169.41 1949.82,-184.67"/>
<text text-anchor="middle" x="1867" y="-198.86" font-family="Times,serif" font-size="12.00">sentry</text>
<text text-anchor="middle" x="1867" y="-185.86" font-family="Times,serif" font-size="12.00">(sentry::sentry)</text>
</g>
<!-- node1&#45;&gt;node10 -->
<g id="edge22" class="edge">
<title>node1&#45;&gt;node10</title>
<path fill="none" stroke="black" d="M1988.38,-281.02C1967.47,-266.46 1936.41,-244.82 1910.94,-227.07"/>
<polygon fill="black" stroke="black" points="1912.75,-224.07 1902.54,-221.22 1908.75,-229.81 1912.75,-224.07"/>
</g>
<!-- node14 -->
<g id="node23" class="node">
<title>node14</title>
<polygon fill="none" stroke="black" points="2051.96,-188 2051.96,-202.91 2028.55,-213.46 1995.45,-213.46 1972.04,-202.91 1972.04,-188 1995.45,-177.46 2028.55,-177.46 2051.96,-188"/>
<polygon fill="none" stroke="black" points="2055.96,-185.42 2055.96,-205.5 2029.41,-217.46 1994.59,-217.46 1968.04,-205.5 1968.04,-185.42 1994.59,-173.46 2029.41,-173.46 2055.96,-185.42"/>
<text text-anchor="middle" x="2012" y="-192.36" font-family="Times,serif" font-size="12.00">sodium</text>
</g>
<!-- node1&#45;&gt;node14 -->
<g id="edge23" class="edge">
<title>node1&#45;&gt;node14</title>
<path fill="none" stroke="black" d="M2012,-280.34C2012,-265.98 2012,-245.11 2012,-227.78"/>
<polygon fill="black" stroke="black" points="2015.5,-227.54 2012,-217.54 2008.5,-227.54 2015.5,-227.54"/>
</g>
<!-- node15 -->
<g id="node24" class="node">
<title>node15</title>
<polygon fill="none" stroke="black" points="2361.47,-184.67 2361.47,-206.24 2310.82,-221.5 2239.18,-221.5 2188.53,-206.24 2188.53,-184.67 2239.18,-169.41 2310.82,-169.41 2361.47,-184.67"/>
<text text-anchor="middle" x="2275" y="-198.86" font-family="Times,serif" font-size="12.00">spdlog</text>
<text text-anchor="middle" x="2275" y="-185.86" font-family="Times,serif" font-size="12.00">(spdlog::spdlog)</text>
</g>
<!-- node1&#45;&gt;node15 -->
<g id="edge25" class="edge">
<title>node1&#45;&gt;node15</title>
<path fill="none" stroke="black" d="M2044.22,-284.07C2053.49,-280.27 2063.63,-276.16 2073,-272.48 2119.23,-254.31 2171.75,-234.57 2211.65,-219.76"/>
<polygon fill="black" stroke="black" points="2213.09,-222.96 2221.25,-216.2 2210.66,-216.4 2213.09,-222.96"/>
</g>
<!-- node16 -->
<g id="node25" class="node">
<title>node16</title>
<polygon fill="none" stroke="black" points="2170.52,-191.45 2160.91,-206.68 2122,-213.46 2083.09,-206.68 2073.48,-191.45 2100.41,-179.24 2143.59,-179.24 2170.52,-191.45"/>
<text text-anchor="middle" x="2122" y="-192.36" font-family="Times,serif" font-size="12.00">stdc++fs</text>
</g>
<!-- node1&#45;&gt;node16 -->
<g id="edge26" class="edge">
<title>node1&#45;&gt;node16</title>
<path fill="none" stroke="black" d="M2030.66,-280.34C2049.38,-263.15 2078.28,-236.61 2098.54,-218"/>
<polygon fill="black" stroke="black" points="2101.11,-220.39 2106.11,-211.05 2096.38,-215.24 2101.11,-220.39"/>
</g>
<!-- node3 -->
<g id="node12" class="node">
<title>node3</title>
<polygon fill="none" stroke="black" points="2517.93,-95.26 2517.93,-110.17 2481.65,-120.72 2430.35,-120.72 2394.07,-110.17 2394.07,-95.26 2430.35,-84.72 2481.65,-84.72 2517.93,-95.26"/>
<text text-anchor="middle" x="2456" y="-99.62" font-family="Times,serif" font-size="12.00">libzmq&#45;static</text>
</g>
<!-- node2&#45;&gt;node3 -->
<g id="edge11" class="edge">
<title>node2&#45;&gt;node3</title>
<path fill="none" stroke="black" stroke-dasharray="5,2" d="M2456,-180.68C2456,-167.5 2456,-147.26 2456,-130.85"/>
<polygon fill="black" stroke="black" points="2459.5,-130.73 2456,-120.73 2452.5,-130.73 2459.5,-130.73"/>
</g>
<!-- node4 -->
<g id="node13" class="node">
<title>node4</title>
<polygon fill="none" stroke="black" points="2526,-13.99 2520.65,-29.22 2499,-36 2477.35,-29.22 2472,-13.99 2486.98,-1.78 2511.02,-1.78 2526,-13.99"/>
<text text-anchor="middle" x="2499" y="-14.9" font-family="Times,serif" font-size="12.00">&#45;lrt</text>
</g>
<!-- node3&#45;&gt;node4 -->
<g id="edge9" class="edge">
<title>node3&#45;&gt;node4</title>
<path fill="none" stroke="black" d="M2464.91,-84.58C2471.2,-72.47 2479.72,-56.08 2486.67,-42.72"/>
<polygon fill="black" stroke="black" points="2489.89,-44.12 2491.4,-33.63 2483.68,-40.89 2489.89,-44.12"/>
</g>
<!-- node5 -->
<g id="node14" class="node">
<title>node5</title>
<polygon fill="none" stroke="black" points="2453.88,-18 2432.94,-36 2391.06,-36 2370.12,-18 2391.06,0 2432.94,0 2453.88,-18"/>
<text text-anchor="middle" x="2412" y="-14.9" font-family="Times,serif" font-size="12.00">objects</text>
</g>
<!-- node3&#45;&gt;node5 -->
<g id="edge10" class="edge">
<title>node3&#45;&gt;node5</title>
<path fill="none" stroke="black" d="M2446.88,-84.58C2440.81,-73.15 2432.71,-57.92 2425.84,-45.02"/>
<polygon fill="black" stroke="black" points="2428.89,-43.3 2421.11,-36.12 2422.71,-46.59 2428.89,-43.3"/>
</g>
<!-- node7 -->
<g id="node16" class="node">
<title>node7</title>
<polygon fill="none" stroke="black" points="1317.68,-23.56 1224,-36 1130.32,-23.56 1166.1,-3.44 1281.9,-3.44 1317.68,-23.56"/>
<text text-anchor="middle" x="1224" y="-14.9" font-family="Times,serif" font-size="12.00">Threads::Threads</text>
</g>
<!-- node6&#45;&gt;node7 -->
<g id="edge13" class="edge">
<title>node6&#45;&gt;node7</title>
<path fill="none" stroke="black" stroke-dasharray="1,5" d="M1654,-169.16C1656.81,-141.48 1656.34,-97.76 1631,-73 1588.09,-31.08 1425.66,-20.94 1319.43,-18.91"/>
<polygon fill="black" stroke="black" points="1319.38,-15.41 1309.33,-18.74 1319.27,-22.41 1319.38,-15.41"/>
</g>
<!-- node8 -->
<g id="node17" class="node">
<title>node8</title>
<polygon fill="none" stroke="black" points="1976.34,-102.72 1901.67,-130.24 1752.33,-130.24 1677.66,-102.72 1752.33,-75.19 1901.67,-75.19 1976.34,-102.72"/>
<text text-anchor="middle" x="1827" y="-106.12" font-family="Times,serif" font-size="12.00">civetweb</text>
<text text-anchor="middle" x="1827" y="-93.12" font-family="Times,serif" font-size="12.00">(prometheus&#45;cpp::civetweb)</text>
</g>
<!-- node6&#45;&gt;node8 -->
<g id="edge14" class="edge">
<title>node6&#45;&gt;node8</title>
<path fill="none" stroke="black" stroke-dasharray="1,5" d="M1698.83,-169.42C1719.7,-158.73 1744.27,-146.13 1766.29,-134.84"/>
<polygon fill="black" stroke="black" points="1767.93,-137.93 1775.23,-130.26 1764.74,-131.7 1767.93,-137.93"/>
</g>
<!-- node9 -->
<g id="node18" class="node">
<title>node9</title>
<polygon fill="none" stroke="black" points="1115.33,-91.93 1115.33,-113.51 1044.84,-128.76 945.16,-128.76 874.67,-113.51 874.67,-91.93 945.16,-76.67 1044.84,-76.67 1115.33,-91.93"/>
<text text-anchor="middle" x="995" y="-106.12" font-family="Times,serif" font-size="12.00">core</text>
<text text-anchor="middle" x="995" y="-93.12" font-family="Times,serif" font-size="12.00">(prometheus&#45;cpp::core)</text>
</g>
<!-- node6&#45;&gt;node9 -->
<g id="edge16" class="edge">
<title>node6&#45;&gt;node9</title>
<path fill="none" stroke="black" d="M1535.11,-184.3C1428.23,-174.06 1264.74,-156.33 1124,-132.43 1111.02,-130.23 1097.38,-127.57 1084.03,-124.77"/>
<polygon fill="black" stroke="black" points="1084.4,-121.27 1073.89,-122.61 1082.94,-128.12 1084.4,-121.27"/>
</g>
<!-- node9&#45;&gt;node7 -->
<g id="edge15" class="edge">
<title>node9&#45;&gt;node7</title>
<path fill="none" stroke="black" stroke-dasharray="1,5" d="M1057.27,-79.22C1096.13,-65.19 1145.21,-47.46 1180.03,-34.88"/>
<polygon fill="black" stroke="black" points="1181.24,-38.17 1189.45,-31.48 1178.86,-31.58 1181.24,-38.17"/>
</g>
<!-- node10&#45;&gt;node7 -->
<g id="edge19" class="edge">
<title>node10&#45;&gt;node7</title>
<path fill="none" stroke="black" d="M1927.38,-177.42C1949.48,-167.94 1972.2,-153.63 1985,-132.43 1998.66,-109.82 2003.01,-92.33 1985,-73 1940.51,-25.25 1513.43,-19.02 1319.26,-18.68"/>
<polygon fill="black" stroke="black" points="1319.06,-15.18 1309.06,-18.66 1319.06,-22.18 1319.06,-15.18"/>
</g>
<!-- node11 -->
<g id="node20" class="node">
<title>node11</title>
<polygon fill="none" stroke="black" points="1621.78,-98.71 1608.36,-113.94 1554,-120.72 1499.64,-113.94 1486.22,-98.71 1523.83,-86.5 1584.17,-86.5 1621.78,-98.71"/>
<text text-anchor="middle" x="1554" y="-99.62" font-family="Times,serif" font-size="12.00">CURL::libcurl</text>
</g>
<!-- node10&#45;&gt;node11 -->
<g id="edge18" class="edge">
<title>node10&#45;&gt;node11</title>
<path fill="none" stroke="black" stroke-dasharray="1,5" d="M1807.39,-177.18C1748.83,-160.2 1660.42,-134.57 1605.01,-118.51"/>
<polygon fill="black" stroke="black" points="1605.98,-115.14 1595.4,-115.72 1604.03,-121.87 1605.98,-115.14"/>
</g>
<!-- node12 -->
<g id="node21" class="node">
<title>node12</title>
<polygon fill="none" stroke="black" points="2158,-98.71 2152.65,-113.94 2131,-120.72 2109.35,-113.94 2104,-98.71 2118.98,-86.5 2143.02,-86.5 2158,-98.71"/>
<text text-anchor="middle" x="2131" y="-99.62" font-family="Times,serif" font-size="12.00">dl</text>
</g>
<!-- node10&#45;&gt;node12 -->
<g id="edge20" class="edge">
<title>node10&#45;&gt;node12</title>
<path fill="none" stroke="black" d="M1927.82,-177.7C1938.21,-174.9 1948.91,-172.05 1959,-169.43 2019.64,-153.71 2039.53,-161.53 2095,-132.43 2100.04,-129.79 2105.07,-126.39 2109.7,-122.86"/>
<polygon fill="black" stroke="black" points="2111.96,-125.54 2117.51,-116.51 2107.54,-120.11 2111.96,-125.54"/>
</g>
<!-- node13 -->
<g id="node22" class="node">
<title>node13</title>
<polygon fill="none" stroke="black" points="2086,-98.71 2080.65,-113.94 2059,-120.72 2037.35,-113.94 2032,-98.71 2046.98,-86.5 2071.02,-86.5 2086,-98.71"/>
<text text-anchor="middle" x="2059" y="-99.62" font-family="Times,serif" font-size="12.00">rt</text>
</g>
<!-- node10&#45;&gt;node13 -->
<g id="edge21" class="edge">
<title>node10&#45;&gt;node13</title>
<path fill="none" stroke="black" d="M1928.59,-177.78C1968.56,-166.81 2013.95,-154.02 2018,-151.43 2028.04,-145.01 2036.97,-135.39 2043.91,-126.47"/>
<polygon fill="black" stroke="black" points="2046.84,-128.39 2049.93,-118.26 2041.2,-124.25 2046.84,-128.39"/>
</g>
<!-- node15&#45;&gt;node7 -->
<g id="edge24" class="edge">
<title>node15&#45;&gt;node7</title>
<path fill="none" stroke="black" d="M2260.81,-169.35C2243.01,-140.53 2209.58,-94.47 2167,-73 2093.01,-35.68 1547.9,-23.63 1321.82,-20.21"/>
<polygon fill="black" stroke="black" points="1321.68,-16.71 1311.63,-20.06 1321.57,-23.71 1321.68,-16.71"/>
</g>
<!-- node17&#45;&gt;node7 -->
<g id="edge28" class="edge">
<title>node17&#45;&gt;node7</title>
<path fill="none" stroke="black" d="M699.32,-170.34C685.35,-160.6 671.71,-147.94 664,-132.43 652.23,-108.78 646.44,-92.74 664,-73 693.93,-39.36 971.26,-26.17 1124.08,-21.42"/>
<polygon fill="black" stroke="black" points="1124.52,-24.9 1134.41,-21.1 1124.31,-17.91 1124.52,-24.9"/>
</g>
<!-- node18 -->
<g id="node27" class="node">
<title>node18</title>
<polygon fill="none" stroke="black" points="819.45,-91.93 819.45,-113.51 776.42,-128.76 715.58,-128.76 672.55,-113.51 672.55,-91.93 715.58,-76.67 776.42,-76.67 819.45,-91.93"/>
<text text-anchor="middle" x="746" y="-106.12" font-family="Times,serif" font-size="12.00">gtest</text>
<text text-anchor="middle" x="746" y="-93.12" font-family="Times,serif" font-size="12.00">(GTest::gtest)</text>
</g>
<!-- node17&#45;&gt;node18 -->
<g id="edge30" class="edge">
<title>node17&#45;&gt;node18</title>
<path fill="none" stroke="black" d="M746,-169.18C746,-159.84 746,-149.07 746,-139.01"/>
<polygon fill="black" stroke="black" points="749.5,-138.86 746,-128.86 742.5,-138.86 749.5,-138.86"/>
</g>
<!-- node18&#45;&gt;node7 -->
<g id="edge29" class="edge">
<title>node18&#45;&gt;node7</title>
<path fill="none" stroke="black" d="M780.93,-78.24C796.26,-69.1 814.87,-59.52 833,-54 884.95,-38.19 1023.74,-28.5 1121.12,-23.44"/>
<polygon fill="black" stroke="black" points="1121.49,-26.92 1131.3,-22.92 1121.13,-19.93 1121.49,-26.92"/>
</g>
<!-- node19 -->
<g id="node28" class="node">
<title>node19</title>
<polygon fill="none" stroke="black" points="2119.68,-369.55 2121.46,-369.65 2123.22,-369.8 2124.95,-369.99 2126.65,-370.24 2128.31,-370.53 2129.92,-370.87 2131.48,-371.25 2132.99,-371.68 2134.43,-372.15 2135.8,-372.66 2137.1,-373.22 2138.32,-373.81 2139.45,-374.44 2140.51,-375.11 2141.47,-375.81 2142.35,-376.54 2143.13,-377.3 2143.81,-378.09 2144.41,-378.91 2144.91,-379.75 2145.31,-380.61 2145.62,-381.49 2145.83,-382.39 2145.96,-383.3 2145.99,-384.22 2145.93,-385.15 2145.79,-386.09 2145.57,-387.03 2145.27,-387.97 2144.89,-388.91 2144.44,-389.85 2143.92,-390.78 2143.33,-391.71 2142.69,-392.62 2141.98,-393.51 2141.22,-394.39 2140.41,-395.25 2139.56,-396.09 2138.67,-396.91 2137.73,-397.7 2136.76,-398.46 2135.76,-399.2 2134.74,-399.9 2133.68,-400.56 2132.61,-401.19 2131.52,-401.79 2130.41,-402.34 2129.28,-402.85 2128.14,-403.33 2126.99,-403.75 2125.84,-404.14 2124.67,-404.47 2123.5,-404.77 2122.33,-405.01 2121.15,-405.21 2119.96,-405.35 2118.78,-405.45 2117.59,-405.5 2116.41,-405.5 2115.22,-405.45 2114.04,-405.35 2112.85,-405.21 2111.67,-405.01 2110.5,-404.77 2109.33,-404.47 2108.16,-404.14 2107.01,-403.75 2105.86,-403.33 2104.72,-402.85 2103.59,-402.34 2102.48,-401.79 2101.39,-401.19 2100.32,-400.56 2099.26,-399.9 2098.24,-399.2 2097.24,-398.46 2096.27,-397.7 2095.33,-396.91 2094.44,-396.09 2093.59,-395.25 2092.78,-394.39 2092.02,-393.51 2091.31,-392.62 2090.67,-391.71 2090.08,-390.78 2089.56,-389.85 2089.11,-388.91 2088.73,-387.97 2088.43,-387.03 2088.21,-386.09 2088.07,-385.15 2088.01,-384.22 2088.04,-383.3 2088.17,-382.39 2088.38,-381.49 2088.69,-380.61 2089.09,-379.75 2089.59,-378.91 2090.19,-378.09 2090.87,-377.3 2091.65,-376.54 2092.53,-375.81 2093.49,-375.11 2094.55,-374.44 2095.68,-373.81 2096.9,-373.22 2098.2,-372.66 2099.57,-372.15 2101.01,-371.68 2102.52,-371.25 2104.08,-370.87 2105.69,-370.53 2107.35,-370.24 2109.05,-369.99 2110.78,-369.8 2112.54,-369.65 2114.32,-369.55 2116.1,-369.5 2117.9,-369.5 2119.68,-369.55"/>
<text text-anchor="middle" x="2117" y="-384.4" font-family="Times,serif" font-size="12.00">XXX</text>
</g>
<!-- node19&#45;&gt;node1 -->
<g id="edge32" class="edge">
<title>node19&#45;&gt;node1</title>
<path fill="none" stroke="black" stroke-dasharray="1,5" d="M2099.19,-371.74C2083.18,-358.48 2059.4,-338.76 2040.71,-323.27"/>
<polygon fill="black" stroke="black" points="2042.72,-320.4 2032.79,-316.71 2038.26,-325.79 2042.72,-320.4"/>
</g>
<!-- node20 -->
<g id="node29" class="node">
<title>node20</title>
<polygon fill="none" stroke="black" points="2252.1,-298.48 2209.55,-316.48 2124.45,-316.48 2081.9,-298.48 2124.45,-280.48 2209.55,-280.48 2252.1,-298.48"/>
<text text-anchor="middle" x="2167" y="-295.38" font-family="Times,serif" font-size="12.00">backward_object</text>
</g>
<!-- node19&#45;&gt;node20 -->
<g id="edge33" class="edge">
<title>node19&#45;&gt;node20</title>
<path fill="none" stroke="black" d="M2126.4,-370.13C2133.6,-357.61 2143.66,-340.1 2151.97,-325.64"/>
<polygon fill="black" stroke="black" points="2155.18,-327.08 2157.12,-316.67 2149.11,-323.59 2155.18,-327.08"/>
</g>
<!-- node21 -->
<g id="node30" class="node">
<title>node21</title>
<polygon fill="none" stroke="black" points="2405.86,-376.71 2405.86,-398.29 2335.06,-413.55 2234.94,-413.55 2164.14,-398.29 2164.14,-376.71 2234.94,-361.46 2335.06,-361.46 2405.86,-376.71"/>
<text text-anchor="middle" x="2285" y="-390.9" font-family="Times,serif" font-size="12.00">backward</text>
<text text-anchor="middle" x="2285" y="-377.9" font-family="Times,serif" font-size="12.00">(Backward::Backward)</text>
</g>
<!-- node22 -->
<g id="node31" class="node">
<title>node22</title>
<polygon fill="none" stroke="black" points="2519.87,-393.06 2472,-405.5 2424.13,-393.06 2442.41,-372.94 2501.59,-372.94 2519.87,-393.06"/>
<text text-anchor="middle" x="2472" y="-384.4" font-family="Times,serif" font-size="12.00">cppzmq</text>
</g>
<!-- node23 -->
<g id="node32" class="node">
<title>node23</title>
<polygon fill="none" stroke="black" points="2510.03,-294.47 2502.49,-309.7 2472,-316.48 2441.51,-309.7 2433.97,-294.47 2455.08,-282.26 2488.92,-282.26 2510.03,-294.47"/>
<text text-anchor="middle" x="2472" y="-295.38" font-family="Times,serif" font-size="12.00">libzmq</text>
</g>
<!-- node22&#45;&gt;node23 -->
<g id="edge34" class="edge">
<title>node22&#45;&gt;node23</title>
<path fill="none" stroke="black" stroke-dasharray="5,2" d="M2472,-372.9C2472,-360.55 2472,-341.97 2472,-326.59"/>
<polygon fill="black" stroke="black" points="2475.5,-326.57 2472,-316.57 2468.5,-326.57 2475.5,-326.57"/>
</g>
<!-- node24 -->
<g id="node33" class="node">
<title>node24</title>
<polygon fill="none" stroke="black" points="1115.86,-184.67 1115.86,-206.24 1045.06,-221.5 944.94,-221.5 874.14,-206.24 874.14,-184.67 944.94,-169.41 1045.06,-169.41 1115.86,-184.67"/>
<text text-anchor="middle" x="995" y="-198.86" font-family="Times,serif" font-size="12.00">push</text>
<text text-anchor="middle" x="995" y="-185.86" font-family="Times,serif" font-size="12.00">(prometheus&#45;cpp::push)</text>
</g>
<!-- node24&#45;&gt;node7 -->
<g id="edge36" class="edge">
<title>node24&#45;&gt;node7</title>
<path fill="none" stroke="black" stroke-dasharray="1,5" d="M919.67,-174.84C898.69,-165.53 878.3,-152 866,-132.43 851.94,-110.07 848.77,-93.02 866,-73 899.08,-34.56 1032.7,-23.12 1126.97,-19.92"/>
<polygon fill="black" stroke="black" points="1127.23,-23.42 1137.11,-19.6 1127.01,-16.42 1127.23,-23.42"/>
</g>
<!-- node24&#45;&gt;node9 -->
<g id="edge37" class="edge">
<title>node24&#45;&gt;node9</title>
<path fill="none" stroke="black" d="M995,-169.18C995,-159.84 995,-149.07 995,-139.01"/>
<polygon fill="black" stroke="black" points="998.5,-138.86 995,-128.86 991.5,-138.86 998.5,-138.86"/>
</g>
<!-- node24&#45;&gt;node11 -->
<g id="edge35" class="edge">
<title>node24&#45;&gt;node11</title>
<path fill="none" stroke="black" stroke-dasharray="1,5" d="M1116.04,-186.79C1214.62,-178.67 1356.8,-162.67 1478,-132.43 1490.08,-129.42 1502.87,-125.07 1514.44,-120.66"/>
<polygon fill="black" stroke="black" points="1515.8,-123.89 1523.83,-116.98 1513.24,-117.37 1515.8,-123.89"/>
</g>
<!-- node25 -->
<g id="node34" class="node">
<title>node25</title>
<polygon fill="none" stroke="black" points="1468.63,-111.97 1301,-132.65 1133.37,-111.97 1197.4,-78.5 1404.6,-78.5 1468.63,-111.97"/>
<text text-anchor="middle" x="1301" y="-106.12" font-family="Times,serif" font-size="12.00">spdlog_header_only</text>
<text text-anchor="middle" x="1301" y="-93.12" font-family="Times,serif" font-size="12.00">(spdlog::spdlog_header_only)</text>
</g>
<!-- node25&#45;&gt;node7 -->
<g id="edge38" class="edge">
<title>node25&#45;&gt;node7</title>
<path fill="none" stroke="black" stroke-dasharray="5,2" d="M1279.14,-78.23C1268.45,-66.75 1255.63,-52.98 1245.05,-41.61"/>
<polygon fill="black" stroke="black" points="1247.51,-39.12 1238.13,-34.18 1242.39,-43.89 1247.51,-39.12"/>
</g>
</g>
</svg>
