<?xml version="1.0" encoding="UTF-8" standalone="no"?>
<!DOCTYPE svg PUBLIC "-//W3C//DTD SVG 1.1//EN"
 "http://www.w3.org/Graphics/SVG/1.1/DTD/svg11.dtd">
<!-- Generated by graphviz version 2.43.0 (0)
 -->
<!-- Title: XXX Pages: 1 -->
<svg width="3153pt" height="839pt"
 viewBox="0.00 0.00 3153.11 838.87" xmlns="http://www.w3.org/2000/svg" xmlns:xlink="http://www.w3.org/1999/xlink">
<g id="graph0" class="graph" transform="scale(1 1) rotate(0) translate(4 834.87)">
<title>XXX</title>
<polygon fill="white" stroke="transparent" points="-4,4 -4,-834.87 3149.11,-834.87 3149.11,4 -4,4"/>
<g id="clust1" class="cluster">
<title>clusterLegend</title>
<polygon fill="none" stroke="black" points="1162.03,-560.15 1162.03,-822.87 1790.03,-822.87 1790.03,-560.15 1162.03,-560.15"/>
<text text-anchor="middle" x="1476.03" y="-807.67" font-family="Times,serif" font-size="14.00">Legend</text>
</g>
<!-- legendNode0 -->
<g id="node1" class="node">
<title>legendNode0</title>
<polygon fill="none" stroke="black" points="1493.06,-755.92 1496.38,-756.02 1499.68,-756.17 1502.92,-756.36 1506.11,-756.61 1509.22,-756.9 1512.24,-757.24 1515.17,-757.62 1517.99,-758.05 1520.69,-758.52 1523.26,-759.03 1525.69,-759.59 1527.98,-760.18 1530.11,-760.81 1532.08,-761.48 1533.89,-762.18 1535.52,-762.91 1536.99,-763.67 1538.28,-764.46 1539.39,-765.28 1540.32,-766.12 1541.08,-766.98 1541.66,-767.86 1542.06,-768.76 1542.29,-769.67 1542.35,-770.59 1542.25,-771.52 1541.99,-772.46 1541.57,-773.4 1541,-774.34 1540.29,-775.28 1539.45,-776.22 1538.47,-777.15 1537.37,-778.08 1536.16,-778.99 1534.84,-779.88 1533.42,-780.76 1531.91,-781.62 1530.31,-782.46 1528.63,-783.28 1526.88,-784.07 1525.06,-784.83 1523.19,-785.57 1521.27,-786.27 1519.29,-786.93 1517.28,-787.56 1515.23,-788.16 1513.15,-788.71 1511.04,-789.22 1508.91,-789.7 1506.76,-790.12 1504.59,-790.51 1502.4,-790.84 1500.21,-791.14 1498.01,-791.38 1495.8,-791.58 1493.58,-791.72 1491.36,-791.82 1489.14,-791.87 1486.92,-791.87 1484.7,-791.82 1482.48,-791.72 1480.26,-791.58 1478.05,-791.38 1475.85,-791.14 1473.65,-790.84 1471.47,-790.51 1469.3,-790.12 1467.15,-789.7 1465.02,-789.22 1462.91,-788.71 1460.83,-788.16 1458.78,-787.56 1456.76,-786.93 1454.79,-786.27 1452.87,-785.57 1450.99,-784.83 1449.18,-784.07 1447.43,-783.28 1445.75,-782.46 1444.15,-781.62 1442.64,-780.76 1441.22,-779.88 1439.9,-778.99 1438.68,-778.08 1437.59,-777.15 1436.61,-776.22 1435.76,-775.28 1435.05,-774.34 1434.49,-773.4 1434.07,-772.46 1433.81,-771.52 1433.71,-770.59 1433.77,-769.67 1434,-768.76 1434.4,-767.86 1434.98,-766.98 1435.74,-766.12 1436.67,-765.28 1437.78,-764.46 1439.07,-763.67 1440.53,-762.91 1442.17,-762.18 1443.98,-761.48 1445.95,-760.81 1448.08,-760.18 1450.37,-759.59 1452.8,-759.03 1455.37,-758.52 1458.07,-758.05 1460.89,-757.62 1463.81,-757.24 1466.84,-756.9 1469.95,-756.61 1473.13,-756.36 1476.38,-756.17 1479.67,-756.02 1483,-755.92 1486.35,-755.87 1489.71,-755.87 1493.06,-755.92"/>
<text text-anchor="middle" x="1488.03" y="-770.77" font-family="Times,serif" font-size="12.00">Executable</text>
</g>
<!-- legendNode1 -->
<g id="node2" class="node">
<title>legendNode1</title>
<polygon fill="none" stroke="black" points="1304.12,-685.42 1304.12,-700.33 1264.82,-710.87 1209.24,-710.87 1169.93,-700.33 1169.93,-685.42 1209.24,-674.87 1264.82,-674.87 1304.12,-685.42"/>
<text text-anchor="middle" x="1237.03" y="-689.77" font-family="Times,serif" font-size="12.00">Static Library</text>
</g>
<!-- legendNode0&#45;&gt;legendNode1 -->
<g id="edge1" class="edge">
<title>legendNode0&#45;&gt;legendNode1</title>
<path fill="none" stroke="black" d="M1447.2,-760.36C1411.91,-749.51 1359.55,-733.32 1314.03,-718.87 1305.56,-716.18 1296.58,-713.3 1287.86,-710.48"/>
<polygon fill="black" stroke="black" points="1288.75,-707.09 1278.16,-707.33 1286.59,-713.75 1288.75,-707.09"/>
</g>
<!-- legendNode2 -->
<g id="node3" class="node">
<title>legendNode2</title>
<polygon fill="none" stroke="black" points="1473.13,-685.42 1473.13,-700.33 1430.31,-710.87 1369.75,-710.87 1326.93,-700.33 1326.93,-685.42 1369.75,-674.87 1430.31,-674.87 1473.13,-685.42"/>
<polygon fill="none" stroke="black" points="1477.12,-682.28 1477.12,-703.46 1430.79,-714.87 1369.27,-714.87 1322.94,-703.46 1322.94,-682.28 1369.27,-670.87 1430.79,-670.87 1477.12,-682.28"/>
<text text-anchor="middle" x="1400.03" y="-689.77" font-family="Times,serif" font-size="12.00">Shared Library</text>
</g>
<!-- legendNode0&#45;&gt;legendNode2 -->
<g id="edge2" class="edge">
<title>legendNode0&#45;&gt;legendNode2</title>
<path fill="none" stroke="black" d="M1469.79,-756.5C1458.71,-746.55 1444.24,-733.56 1431.36,-722"/>
<polygon fill="black" stroke="black" points="1433.37,-719.1 1423.59,-715.03 1428.7,-724.31 1433.37,-719.1"/>
</g>
<!-- legendNode3 -->
<g id="node4" class="node">
<title>legendNode3</title>
<polygon fill="none" stroke="black" points="1650.95,-685.42 1650.95,-700.33 1607.65,-710.87 1546.41,-710.87 1503.1,-700.33 1503.1,-685.42 1546.41,-674.87 1607.65,-674.87 1650.95,-685.42"/>
<polygon fill="none" stroke="black" points="1654.95,-682.27 1654.95,-703.47 1608.13,-714.87 1545.93,-714.87 1499.11,-703.47 1499.11,-682.27 1545.93,-670.87 1608.13,-670.87 1654.95,-682.27"/>
<polygon fill="none" stroke="black" points="1658.95,-679.13 1658.95,-706.61 1608.61,-718.87 1545.45,-718.87 1495.11,-706.61 1495.11,-679.13 1545.45,-666.87 1608.61,-666.87 1658.95,-679.13"/>
<text text-anchor="middle" x="1577.03" y="-689.77" font-family="Times,serif" font-size="12.00">Module Library</text>
</g>
<!-- legendNode0&#45;&gt;legendNode3 -->
<!-- legendNode7 -->
<g id="node8" class="node">
<title>legendNode7</title>
<polygon fill="none" stroke="black" points="1781.53,-710.87 1676.53,-710.87 1676.53,-674.87 1781.53,-674.87 1781.53,-710.87"/>
<text text-anchor="middle" x="1729.03" y="-689.77" font-family="Times,serif" font-size="12.00">Custom Target</text>
</g>
<!-- legendNode0&#45;&gt;legendNode7 -->
<!-- legendNode4 -->
<g id="node5" class="node">
<title>legendNode4</title>
<polygon fill="none" stroke="black" points="1354.17,-591.72 1262.03,-604.15 1169.89,-591.72 1205.08,-571.59 1318.97,-571.59 1354.17,-591.72"/>
<text text-anchor="middle" x="1262.03" y="-583.05" font-family="Times,serif" font-size="12.00">Interface Library</text>
</g>
<!-- legendNode1&#45;&gt;legendNode4 -->
<g id="edge4" class="edge">
<title>legendNode1&#45;&gt;legendNode4</title>
<path fill="none" stroke="black" stroke-dasharray="5,2" d="M1241.16,-674.58C1245.11,-658.01 1251.14,-632.78 1255.7,-613.67"/>
<polygon fill="black" stroke="black" points="1259.14,-614.32 1258.06,-603.78 1252.33,-612.69 1259.14,-614.32"/>
<text text-anchor="middle" x="1283.53" y="-637.67" font-family="Times,serif" font-size="14.00">Interface</text>
</g>
<!-- legendNode5 -->
<g id="node6" class="node">
<title>legendNode5</title>
<polygon fill="none" stroke="black" points="1521.8,-586.15 1484.41,-604.15 1409.64,-604.15 1372.26,-586.15 1409.64,-568.15 1484.41,-568.15 1521.8,-586.15"/>
<text text-anchor="middle" x="1447.03" y="-583.05" font-family="Times,serif" font-size="12.00">Object Library</text>
</g>
<!-- legendNode2&#45;&gt;legendNode5 -->
<g id="edge5" class="edge">
<title>legendNode2&#45;&gt;legendNode5</title>
<path fill="none" stroke="black" stroke-dasharray="1,5" d="M1409.54,-670.68C1416.96,-654.14 1427.31,-631.08 1435.26,-613.38"/>
<polygon fill="black" stroke="black" points="1438.49,-614.72 1439.39,-604.17 1432.1,-611.86 1438.49,-614.72"/>
<text text-anchor="middle" x="1451.03" y="-637.67" font-family="Times,serif" font-size="14.00">Private</text>
</g>
<!-- legendNode6 -->
<g id="node7" class="node">
<title>legendNode6</title>
<polygon fill="none" stroke="black" points="1708.98,-582.15 1692.15,-597.38 1624.03,-604.15 1555.91,-597.38 1539.08,-582.15 1586.22,-569.94 1661.83,-569.94 1708.98,-582.15"/>
<text text-anchor="middle" x="1624.03" y="-583.05" font-family="Times,serif" font-size="12.00">Unknown Library</text>
</g>
<!-- legendNode3&#45;&gt;legendNode6 -->
<g id="edge6" class="edge">
<title>legendNode3&#45;&gt;legendNode6</title>
<path fill="none" stroke="black" d="M1588.29,-666.79C1595.57,-650.55 1605.04,-629.47 1612.4,-613.07"/>
<polygon fill="black" stroke="black" points="1615.77,-614.11 1616.67,-603.55 1609.38,-611.24 1615.77,-614.11"/>
</g>
<!-- node0 -->
<g id="node9" class="node">
<title>node0</title>
<polygon fill="none" stroke="black" points="1739.88,-320.89 1675.03,-333.33 1610.17,-320.89 1634.95,-300.76 1715.11,-300.76 1739.88,-320.89"/>
<text text-anchor="middle" x="1675.03" y="-312.23" font-family="Times,serif" font-size="12.00">RapidJSON</text>
</g>
<!-- node1 -->
<g id="node10" class="node">
<title>node1</title>
<polygon fill="none" stroke="black" points="587.92,-475.46 591.82,-475.56 595.68,-475.71 599.49,-475.91 603.22,-476.15 606.87,-476.44 610.41,-476.78 613.85,-477.16 617.15,-477.59 620.31,-478.06 623.33,-478.58 626.18,-479.13 628.86,-479.72 631.35,-480.35 633.67,-481.02 635.78,-481.72 637.7,-482.45 639.42,-483.22 640.93,-484.01 642.23,-484.82 643.33,-485.66 644.21,-486.52 644.89,-487.4 645.36,-488.3 645.63,-489.21 645.71,-490.13 645.59,-491.06 645.28,-492 644.79,-492.94 644.13,-493.89 643.29,-494.83 642.3,-495.77 641.16,-496.7 639.87,-497.62 638.45,-498.53 636.9,-499.43 635.24,-500.31 633.46,-501.17 631.59,-502.01 629.62,-502.82 627.57,-503.61 625.44,-504.38 623.25,-505.11 620.99,-505.81 618.68,-506.48 616.32,-507.11 613.92,-507.7 611.48,-508.25 609,-508.77 606.5,-509.24 603.98,-509.67 601.44,-510.05 598.88,-510.39 596.31,-510.68 593.73,-510.92 591.13,-511.12 588.54,-511.27 585.94,-511.37 583.33,-511.41 580.73,-511.41 578.12,-511.37 575.52,-511.27 572.92,-511.12 570.33,-510.92 567.75,-510.68 565.18,-510.39 562.62,-510.05 560.08,-509.67 557.55,-509.24 555.05,-508.77 552.58,-508.25 550.14,-507.7 547.74,-507.11 545.38,-506.48 543.07,-505.81 540.81,-505.11 538.61,-504.38 536.49,-503.61 534.44,-502.82 532.47,-502.01 530.59,-501.17 528.82,-500.31 527.15,-499.43 525.61,-498.53 524.18,-497.62 522.9,-496.7 521.76,-495.77 520.76,-494.83 519.93,-493.89 519.27,-492.94 518.78,-492 518.47,-491.06 518.35,-490.13 518.42,-489.21 518.69,-488.3 519.17,-487.4 519.84,-486.52 520.73,-485.66 521.82,-484.82 523.13,-484.01 524.64,-483.22 526.35,-482.45 528.27,-481.72 530.39,-481.02 532.7,-480.35 535.2,-479.72 537.88,-479.13 540.73,-478.58 543.74,-478.06 546.91,-477.59 550.21,-477.16 553.64,-476.78 557.19,-476.44 560.83,-476.15 564.57,-475.91 568.37,-475.71 572.23,-475.56 576.14,-475.46 580.06,-475.41 584,-475.41 587.92,-475.46"/>
<text text-anchor="middle" x="582.03" y="-490.31" font-family="Times,serif" font-size="12.00">UnitTestMain</text>
</g>
<!-- node1&#45;&gt;node1 -->
<g id="edge8" class="edge">
<title>node1&#45;&gt;node1</title>
<path fill="none" stroke="black" d="M632.62,-501.66C649.81,-501.71 663.62,-498.96 663.62,-493.41 663.62,-490.43 659.62,-488.26 653.24,-486.89"/>
<polygon fill="black" stroke="black" points="653.61,-483.41 643.23,-485.53 652.67,-490.35 653.61,-483.41"/>
</g>
<!-- node2 -->
<g id="node11" class="node">
<title>node2</title>
<polygon fill="none" stroke="black" points="1714.99,-396.91 1714.99,-411.83 1691.58,-422.37 1658.48,-422.37 1635.07,-411.83 1635.07,-396.91 1658.48,-386.37 1691.58,-386.37 1714.99,-396.91"/>
<polygon fill="none" stroke="black" points="1718.99,-394.33 1718.99,-414.41 1692.44,-426.37 1657.62,-426.37 1631.07,-414.41 1631.07,-394.33 1657.62,-382.37 1692.44,-382.37 1718.99,-394.33"/>
<text text-anchor="middle" x="1675.03" y="-401.27" font-family="Times,serif" font-size="12.00">XXX&#45;lib</text>
</g>
<!-- node1&#45;&gt;node2 -->
<g id="edge45" class="edge">
<title>node1&#45;&gt;node2</title>
<path fill="none" stroke="black" stroke-dasharray="1,5" d="M645.12,-487.39C841.11,-471.78 1437.29,-424.3 1620.73,-409.69"/>
<polygon fill="black" stroke="black" points="1621.25,-413.16 1630.94,-408.88 1620.7,-406.19 1621.25,-413.16"/>
</g>
<!-- node25 -->
<g id="node34" class="node">
<title>node25</title>
<polygon fill="none" stroke="black" points="202.09,-304.54 202.09,-326.11 142.89,-341.37 59.17,-341.37 -0.03,-326.11 -0.03,-304.54 59.17,-289.28 142.89,-289.28 202.09,-304.54"/>
<text text-anchor="middle" x="101.03" y="-318.73" font-family="Times,serif" font-size="12.00">gtest_main</text>
<text text-anchor="middle" x="101.03" y="-305.73" font-family="Times,serif" font-size="12.00">(GTest::gtest_main)</text>
</g>
<!-- node1&#45;&gt;node25 -->
<g id="edge49" class="edge">
<title>node1&#45;&gt;node25</title>
<path fill="none" stroke="black" stroke-dasharray="1,5" d="M518.55,-488.27C451.85,-482.09 345.01,-466.95 260.03,-430.39 213.05,-410.18 166.34,-374.29 135.82,-348.16"/>
<polygon fill="black" stroke="black" points="137.89,-345.31 128.04,-341.4 133.3,-350.6 137.89,-345.31"/>
</g>
<!-- node2&#45;&gt;node0 -->
<g id="edge10" class="edge">
<title>node2&#45;&gt;node0</title>
<path fill="none" stroke="black" d="M1675.03,-382.3C1675.03,-370.7 1675.03,-356.18 1675.03,-343.71"/>
<polygon fill="black" stroke="black" points="1678.53,-343.41 1675.03,-333.41 1671.53,-343.41 1678.53,-343.41"/>
</g>
<!-- node2&#45;&gt;node2 -->
<g id="edge11" class="edge">
<title>node2&#45;&gt;node2</title>
<path fill="none" stroke="black" d="M1719.04,-412.46C1729.38,-411.79 1737.01,-409.1 1737.01,-404.37 1737.01,-401.42 1734.03,-399.26 1729.27,-397.89"/>
<polygon fill="black" stroke="black" points="1729.46,-394.38 1719.04,-396.28 1728.37,-401.29 1729.46,-394.38"/>
</g>
<!-- node3 -->
<g id="node12" class="node">
<title>node3</title>
<polygon fill="none" stroke="black" points="1780.81,-122.15 1767.39,-137.37 1713.03,-144.15 1658.67,-137.37 1645.24,-122.15 1682.86,-109.93 1743.2,-109.93 1780.81,-122.15"/>
<text text-anchor="middle" x="1713.03" y="-123.05" font-family="Times,serif" font-size="12.00">CURL::libcurl</text>
</g>
<!-- node2&#45;&gt;node3 -->
<g id="edge9" class="edge">
<title>node2&#45;&gt;node3</title>
<path fill="none" stroke="black" d="M1719.26,-402.67C1763.78,-399.32 1830.4,-386.47 1863.03,-341.35 1878.43,-320.05 1866,-211.14 1853.03,-192.87 1846.81,-184.12 1793.71,-160.65 1754.74,-144.27"/>
<polygon fill="black" stroke="black" points="1755.75,-140.9 1745.17,-140.27 1753.05,-147.35 1755.75,-140.9"/>
</g>
<!-- node4 -->
<g id="node13" class="node">
<title>node4</title>
<polygon fill="none" stroke="black" points="1853.9,-320.89 1806.03,-333.33 1758.15,-320.89 1776.44,-300.76 1835.62,-300.76 1853.9,-320.89"/>
<text text-anchor="middle" x="1806.03" y="-312.23" font-family="Times,serif" font-size="12.00">cppzmq</text>
</g>
<!-- node2&#45;&gt;node4 -->
<g id="edge13" class="edge">
<title>node2&#45;&gt;node4</title>
<path fill="none" stroke="black" d="M1700.91,-386.17C1723.42,-371.21 1755.94,-349.61 1778.83,-334.4"/>
<polygon fill="black" stroke="black" points="1781,-337.16 1787.39,-328.71 1777.13,-331.33 1781,-337.16"/>
</g>
<!-- node6 -->
<g id="node15" class="node">
<title>node6</title>
<polygon fill="none" stroke="black" points="2247.28,-304.54 2247.28,-326.11 2192.65,-341.37 2115.4,-341.37 2060.78,-326.11 2060.78,-304.54 2115.4,-289.28 2192.65,-289.28 2247.28,-304.54"/>
<text text-anchor="middle" x="2154.03" y="-318.73" font-family="Times,serif" font-size="12.00">crashpad_client</text>
<text text-anchor="middle" x="2154.03" y="-305.73" font-family="Times,serif" font-size="12.00">(crashpad::client)</text>
</g>
<!-- node2&#45;&gt;node6 -->
<g id="edge29" class="edge">
<title>node2&#45;&gt;node6</title>
<path fill="none" stroke="black" d="M1719.23,-395.34C1797.91,-381.04 1963.57,-350.94 2066.17,-332.29"/>
<polygon fill="black" stroke="black" points="2066.99,-335.7 2076.2,-330.47 2065.74,-328.81 2066.99,-335.7"/>
</g>
<!-- node15 -->
<g id="node24" class="node">
<title>node15</title>
<polygon fill="none" stroke="black" points="1031.2,-304.54 1031.2,-326.11 963.15,-341.37 866.91,-341.37 798.86,-326.11 798.86,-304.54 866.91,-289.28 963.15,-289.28 1031.2,-304.54"/>
<text text-anchor="middle" x="915.03" y="-318.73" font-family="Times,serif" font-size="12.00">pull</text>
<text text-anchor="middle" x="915.03" y="-305.73" font-family="Times,serif" font-size="12.00">(prometheus&#45;cpp::pull)</text>
</g>
<!-- node2&#45;&gt;node15 -->
<g id="edge35" class="edge">
<title>node2&#45;&gt;node15</title>
<path fill="none" stroke="black" d="M1631.03,-399.12C1534.22,-389.67 1295.46,-365.81 1096.03,-341.35 1072.33,-338.44 1046.93,-335.08 1022.87,-331.79"/>
<polygon fill="black" stroke="black" points="1023.03,-328.28 1012.65,-330.38 1022.08,-335.21 1023.03,-328.28"/>
</g>
<!-- node20 -->
<g id="node29" class="node">
<title>node20</title>
<polygon fill="none" stroke="black" points="1684.85,-211.8 1684.85,-233.37 1636.33,-248.63 1567.72,-248.63 1519.21,-233.37 1519.21,-211.8 1567.72,-196.54 1636.33,-196.54 1684.85,-211.8"/>
<text text-anchor="middle" x="1602.03" y="-225.99" font-family="Times,serif" font-size="12.00">sentry</text>
<text text-anchor="middle" x="1602.03" y="-212.99" font-family="Times,serif" font-size="12.00">(sentry::sentry)</text>
</g>
<!-- node2&#45;&gt;node20 -->
<g id="edge40" class="edge">
<title>node2&#45;&gt;node20</title>
<path fill="none" stroke="black" d="M1645.59,-387.44C1629.18,-376.78 1610.24,-361.1 1601.03,-341.35 1589,-315.57 1590.34,-283.03 1594.07,-258.69"/>
<polygon fill="black" stroke="black" points="1597.53,-259.26 1595.79,-248.81 1590.63,-258.06 1597.53,-259.26"/>
</g>
<!-- node22 -->
<g id="node31" class="node">
<title>node22</title>
<polygon fill="none" stroke="black" points="1550.13,-307.87 1550.13,-322.78 1509.65,-333.33 1452.4,-333.33 1411.92,-322.78 1411.92,-307.87 1452.4,-297.33 1509.65,-297.33 1550.13,-307.87"/>
<polygon fill="none" stroke="black" points="1554.12,-304.78 1554.12,-325.87 1510.16,-337.33 1451.9,-337.33 1407.94,-325.87 1407.94,-304.78 1451.9,-293.33 1510.16,-293.33 1554.12,-304.78"/>
<text text-anchor="middle" x="1481.03" y="-312.23" font-family="Times,serif" font-size="12.00">spdlog::spdlog</text>
</g>
<!-- node2&#45;&gt;node22 -->
<g id="edge44" class="edge">
<title>node2&#45;&gt;node22</title>
<path fill="none" stroke="black" d="M1640.01,-390.17C1618.96,-382.01 1591.74,-371.09 1568.03,-360.35 1554.37,-354.16 1539.75,-346.99 1526.47,-340.25"/>
<polygon fill="black" stroke="black" points="1528.01,-337.11 1517.52,-335.67 1524.83,-343.34 1528.01,-337.11"/>
</g>
<!-- node5 -->
<g id="node14" class="node">
<title>node5</title>
<polygon fill="none" stroke="black" points="1844.05,-218.58 1836.52,-233.81 1806.03,-240.59 1775.53,-233.81 1768,-218.58 1789.11,-206.37 1822.95,-206.37 1844.05,-218.58"/>
<text text-anchor="middle" x="1806.03" y="-219.49" font-family="Times,serif" font-size="12.00">libzmq</text>
</g>
<!-- node4&#45;&gt;node5 -->
<g id="edge12" class="edge">
<title>node4&#45;&gt;node5</title>
<path fill="none" stroke="black" stroke-dasharray="5,2" d="M1806.03,-300.54C1806.03,-287.37 1806.03,-267.13 1806.03,-250.72"/>
<polygon fill="black" stroke="black" points="1809.53,-250.6 1806.03,-240.6 1802.53,-250.6 1809.53,-250.6"/>
</g>
<!-- node7 -->
<g id="node16" class="node">
<title>node7</title>
<polygon fill="none" stroke="black" points="2290.65,-115.36 2290.65,-136.94 2230.53,-152.2 2145.52,-152.2 2085.41,-136.94 2085.41,-115.36 2145.52,-100.11 2230.53,-100.11 2290.65,-115.36"/>
<text text-anchor="middle" x="2188.03" y="-129.55" font-family="Times,serif" font-size="12.00">crashpad_compat</text>
<text text-anchor="middle" x="2188.03" y="-116.55" font-family="Times,serif" font-size="12.00">(crashpad::compat)</text>
</g>
<!-- node6&#45;&gt;node7 -->
<g id="edge16" class="edge">
<title>node6&#45;&gt;node7</title>
<path fill="none" stroke="black" d="M2060.59,-309.7C2020.14,-302.48 1976.35,-286.51 1951.03,-252.3 1935.31,-231.07 1935.04,-213.89 1951.03,-192.87 1968.25,-170.22 2031.75,-153.35 2088.69,-142.37"/>
<polygon fill="black" stroke="black" points="2089.68,-145.75 2098.87,-140.46 2088.39,-138.87 2089.68,-145.75"/>
</g>
<!-- node8 -->
<g id="node17" class="node">
<title>node8</title>
<polygon fill="none" stroke="black" points="2780,-38.97 2655.03,-59.65 2530.06,-38.97 2577.79,-5.5 2732.27,-5.5 2780,-38.97"/>
<text text-anchor="middle" x="2655.03" y="-33.12" font-family="Times,serif" font-size="12.00">crashpad_interface</text>
<text text-anchor="middle" x="2655.03" y="-20.12" font-family="Times,serif" font-size="12.00">(crashpad::interface)</text>
</g>
<!-- node6&#45;&gt;node8 -->
<g id="edge17" class="edge">
<title>node6&#45;&gt;node8</title>
<path fill="none" stroke="black" stroke-dasharray="1,5" d="M2155.92,-288.9C2156.61,-262.7 2154.06,-221.73 2135.03,-192.87 2117.99,-167.03 2091.01,-182.95 2076.03,-155.87 2063.24,-132.75 2058.43,-116.14 2076.03,-96.43 2105.36,-63.59 2362.6,-45.02 2524.18,-36.51"/>
<polygon fill="black" stroke="black" points="2524.4,-40 2534.2,-35.98 2524.03,-33.01 2524.4,-40"/>
</g>
<!-- node10 -->
<g id="node19" class="node">
<title>node10</title>
<polygon fill="none" stroke="black" points="2126.38,-211.8 2126.38,-233.37 2077.55,-248.63 2008.5,-248.63 1959.68,-233.37 1959.68,-211.8 2008.5,-196.54 2077.55,-196.54 2126.38,-211.8"/>
<text text-anchor="middle" x="2043.03" y="-225.99" font-family="Times,serif" font-size="12.00">crashpad_util</text>
<text text-anchor="middle" x="2043.03" y="-212.99" font-family="Times,serif" font-size="12.00">(crashpad::util)</text>
</g>
<!-- node6&#45;&gt;node10 -->
<g id="edge27" class="edge">
<title>node6&#45;&gt;node10</title>
<path fill="none" stroke="black" d="M2123.4,-289.29C2110.53,-278.77 2095.4,-266.4 2081.77,-255.25"/>
<polygon fill="black" stroke="black" points="2083.9,-252.47 2073.94,-248.85 2079.47,-257.89 2083.9,-252.47"/>
</g>
<!-- node13 -->
<g id="node22" class="node">
<title>node13</title>
<polygon fill="none" stroke="black" points="2627.15,-115.36 2627.15,-136.94 2545.07,-152.2 2428.99,-152.2 2346.9,-136.94 2346.9,-115.36 2428.99,-100.11 2545.07,-100.11 2627.15,-115.36"/>
<text text-anchor="middle" x="2487.03" y="-129.55" font-family="Times,serif" font-size="12.00">mini_chromium</text>
<text text-anchor="middle" x="2487.03" y="-116.55" font-family="Times,serif" font-size="12.00">(crashpad::mini_chromium)</text>
</g>
<!-- node6&#45;&gt;node13 -->
<g id="edge28" class="edge">
<title>node6&#45;&gt;node13</title>
<path fill="none" stroke="black" d="M2221.97,-297.32C2243.96,-290.6 2268.07,-281.92 2289.03,-271.3 2350.29,-240.27 2413.06,-191.01 2451.06,-158.88"/>
<polygon fill="black" stroke="black" points="2453.44,-161.45 2458.78,-152.3 2448.9,-156.13 2453.44,-161.45"/>
</g>
<!-- node7&#45;&gt;node8 -->
<g id="edge14" class="edge">
<title>node7&#45;&gt;node8</title>
<path fill="none" stroke="black" stroke-dasharray="1,5" d="M2237.46,-101.73C2257.96,-92.88 2282.24,-83.5 2305.03,-77.43 2375.61,-58.66 2456.29,-47.24 2522.4,-40.4"/>
<polygon fill="black" stroke="black" points="2522.86,-43.87 2532.46,-39.38 2522.16,-36.91 2522.86,-43.87"/>
</g>
<!-- node9 -->
<g id="node18" class="node">
<title>node9</title>
<polygon fill="none" stroke="black" points="1732.03,-25.71 1726.68,-40.94 1705.03,-47.72 1683.38,-40.94 1678.03,-25.71 1693.01,-13.5 1717.04,-13.5 1732.03,-25.71"/>
<text text-anchor="middle" x="1705.03" y="-26.62" font-family="Times,serif" font-size="12.00">dl</text>
</g>
<!-- node7&#45;&gt;node9 -->
<g id="edge15" class="edge">
<title>node7&#45;&gt;node9</title>
<path fill="none" stroke="black" stroke-dasharray="1,5" d="M2103.31,-110.79C2030.42,-98.16 1922.56,-78.81 1829.03,-59.43 1798.17,-53.04 1763.2,-44.86 1738.29,-38.86"/>
<polygon fill="black" stroke="black" points="1738.81,-35.39 1728.27,-36.44 1737.17,-42.19 1738.81,-35.39"/>
</g>
<!-- node10&#45;&gt;node3 -->
<g id="edge18" class="edge">
<title>node10&#45;&gt;node3</title>
<path fill="none" stroke="black" stroke-dasharray="1,5" d="M1989.02,-202.46C1960.7,-192.93 1925.28,-181.78 1893.03,-173.87 1847.89,-162.8 1834.88,-168.04 1790.03,-155.87 1778.09,-152.63 1765.4,-148.29 1753.84,-143.96"/>
<polygon fill="black" stroke="black" points="1755.03,-140.67 1744.44,-140.36 1752.53,-147.21 1755.03,-140.67"/>
</g>
<!-- node10&#45;&gt;node7 -->
<g id="edge19" class="edge">
<title>node10&#45;&gt;node7</title>
<path fill="none" stroke="black" d="M2080.37,-197.27C2098.86,-185.22 2121.38,-170.56 2141.04,-157.76"/>
<polygon fill="black" stroke="black" points="2143.08,-160.6 2149.55,-152.21 2139.26,-154.74 2143.08,-160.6"/>
</g>
<!-- node10&#45;&gt;node8 -->
<g id="edge20" class="edge">
<title>node10&#45;&gt;node8</title>
<path fill="none" stroke="black" stroke-dasharray="1,5" d="M2117.34,-208.85C2182.42,-196.59 2271.01,-176.85 2300.03,-155.87 2325.43,-137.49 2312.21,-114.22 2338.03,-96.43 2371.14,-73.63 2466.26,-55.78 2543.73,-44.48"/>
<polygon fill="black" stroke="black" points="2544.65,-47.89 2554.05,-43 2543.66,-40.96 2544.65,-47.89"/>
</g>
<!-- node11 -->
<g id="node20" class="node">
<title>node11</title>
<polygon fill="none" stroke="black" points="1991.32,-135.4 1895.03,-156.09 1798.74,-135.4 1835.52,-101.93 1954.54,-101.93 1991.32,-135.4"/>
<text text-anchor="middle" x="1895.03" y="-129.55" font-family="Times,serif" font-size="12.00">crashpad_zlib</text>
<text text-anchor="middle" x="1895.03" y="-116.55" font-family="Times,serif" font-size="12.00">(crashpad::zlib)</text>
</g>
<!-- node10&#45;&gt;node11 -->
<g id="edge22" class="edge">
<title>node10&#45;&gt;node11</title>
<path fill="none" stroke="black" d="M2005.3,-197.51C1984.67,-184.35 1959.06,-168.01 1937.7,-154.38"/>
<polygon fill="black" stroke="black" points="1939.46,-151.35 1929.15,-148.92 1935.69,-157.25 1939.46,-151.35"/>
</g>
<!-- node10&#45;&gt;node13 -->
<g id="edge25" class="edge">
<title>node10&#45;&gt;node13</title>
<path fill="none" stroke="black" d="M2111.73,-207.11C2155.35,-197.9 2213.01,-185.72 2264.03,-174.87 2304.38,-166.29 2348.82,-156.79 2387.34,-148.54"/>
<polygon fill="black" stroke="black" points="2388.47,-151.87 2397.52,-146.36 2387.01,-145.03 2388.47,-151.87"/>
</g>
<!-- node14 -->
<g id="node23" class="node">
<title>node14</title>
<polygon fill="none" stroke="black" points="2167.99,-25.71 2159.28,-40.94 2124.03,-47.72 2088.78,-40.94 2080.07,-25.71 2104.47,-13.5 2143.59,-13.5 2167.99,-25.71"/>
<text text-anchor="middle" x="2124.03" y="-26.62" font-family="Times,serif" font-size="12.00">pthread</text>
</g>
<!-- node10&#45;&gt;node14 -->
<g id="edge26" class="edge">
<title>node10&#45;&gt;node14</title>
<path fill="none" stroke="black" stroke-dasharray="1,5" d="M2035.89,-196.45C2028.77,-166.06 2021.69,-114.38 2043.03,-77.43 2051.29,-63.14 2065.77,-52.82 2080.23,-45.59"/>
<polygon fill="black" stroke="black" points="2082.03,-48.61 2089.66,-41.27 2079.11,-42.25 2082.03,-48.61"/>
</g>
<!-- node12 -->
<g id="node21" class="node">
<title>node12</title>
<polygon fill="none" stroke="black" points="1952.31,-25.71 1940.97,-40.94 1895.03,-47.72 1849.09,-40.94 1837.74,-25.71 1869.53,-13.5 1920.52,-13.5 1952.31,-25.71"/>
<text text-anchor="middle" x="1895.03" y="-26.62" font-family="Times,serif" font-size="12.00">ZLIB::ZLIB</text>
</g>
<!-- node11&#45;&gt;node12 -->
<g id="edge21" class="edge">
<title>node11&#45;&gt;node12</title>
<path fill="none" stroke="black" stroke-dasharray="5,2" d="M1895.03,-101.81C1895.03,-88.62 1895.03,-72.06 1895.03,-58.24"/>
<polygon fill="black" stroke="black" points="1898.53,-57.86 1895.03,-47.86 1891.53,-57.86 1898.53,-57.86"/>
</g>
<!-- node13&#45;&gt;node8 -->
<g id="edge23" class="edge">
<title>node13&#45;&gt;node8</title>
<path fill="none" stroke="black" stroke-dasharray="1,5" d="M2531.61,-100.09C2554.62,-87.16 2582.74,-71.35 2606.33,-58.09"/>
<polygon fill="black" stroke="black" points="2608.12,-61.1 2615.12,-53.15 2604.69,-55 2608.12,-61.1"/>
</g>
<!-- node13&#45;&gt;node14 -->
<g id="edge24" class="edge">
<title>node13&#45;&gt;node14</title>
<path fill="none" stroke="black" stroke-dasharray="1,5" d="M2406.47,-104.19C2333.81,-85.29 2229.5,-58.15 2170.09,-42.7"/>
<polygon fill="black" stroke="black" points="2170.8,-39.27 2160.24,-40.14 2169.04,-46.04 2170.8,-39.27"/>
</g>
<!-- node16 -->
<g id="node25" class="node">
<title>node16</title>
<polygon fill="none" stroke="black" points="543.71,-131.71 450.03,-144.15 356.35,-131.71 392.13,-111.59 507.93,-111.59 543.71,-131.71"/>
<text text-anchor="middle" x="450.03" y="-123.05" font-family="Times,serif" font-size="12.00">Threads::Threads</text>
</g>
<!-- node15&#45;&gt;node16 -->
<g id="edge30" class="edge">
<title>node15&#45;&gt;node16</title>
<path fill="none" stroke="black" stroke-dasharray="1,5" d="M798.63,-313.43C682.26,-309.94 514.29,-297 469.03,-252.3 443.38,-226.97 442.8,-182.71 445.69,-154.19"/>
<polygon fill="black" stroke="black" points="449.19,-154.45 446.93,-144.1 442.24,-153.6 449.19,-154.45"/>
</g>
<!-- node17 -->
<g id="node26" class="node">
<title>node17</title>
<polygon fill="none" stroke="black" points="776.37,-222.59 701.7,-250.11 552.36,-250.11 477.69,-222.59 552.36,-195.06 701.7,-195.06 776.37,-222.59"/>
<text text-anchor="middle" x="627.03" y="-225.99" font-family="Times,serif" font-size="12.00">civetweb</text>
<text text-anchor="middle" x="627.03" y="-212.99" font-family="Times,serif" font-size="12.00">(prometheus&#45;cpp::civetweb)</text>
</g>
<!-- node15&#45;&gt;node17 -->
<g id="edge31" class="edge">
<title>node15&#45;&gt;node17</title>
<path fill="none" stroke="black" stroke-dasharray="1,5" d="M848.23,-293.28C808.84,-280.87 758.5,-265.01 715.8,-251.55"/>
<polygon fill="black" stroke="black" points="716.84,-248.21 706.25,-248.55 714.74,-254.89 716.84,-248.21"/>
</g>
<!-- node18 -->
<g id="node27" class="node">
<title>node18</title>
<polygon fill="none" stroke="black" points="1035.35,-211.8 1035.35,-233.37 964.87,-248.63 865.19,-248.63 794.7,-233.37 794.7,-211.8 865.19,-196.54 964.87,-196.54 1035.35,-211.8"/>
<text text-anchor="middle" x="915.03" y="-225.99" font-family="Times,serif" font-size="12.00">core</text>
<text text-anchor="middle" x="915.03" y="-212.99" font-family="Times,serif" font-size="12.00">(prometheus&#45;cpp::core)</text>
</g>
<!-- node15&#45;&gt;node18 -->
<g id="edge33" class="edge">
<title>node15&#45;&gt;node18</title>
<path fill="none" stroke="black" d="M915.03,-289.05C915.03,-279.71 915.03,-268.94 915.03,-258.88"/>
<polygon fill="black" stroke="black" points="918.53,-258.73 915.03,-248.73 911.53,-258.73 918.53,-258.73"/>
</g>
<!-- node19 -->
<g id="node28" class="node">
<title>node19</title>
<polygon fill="none" stroke="black" points="1313.49,-231.84 1183.03,-252.52 1052.57,-231.84 1102.4,-198.37 1263.66,-198.37 1313.49,-231.84"/>
<text text-anchor="middle" x="1183.03" y="-225.99" font-family="Times,serif" font-size="12.00">util</text>
<text text-anchor="middle" x="1183.03" y="-212.99" font-family="Times,serif" font-size="12.00">(prometheus&#45;cpp::util)</text>
</g>
<!-- node15&#45;&gt;node19 -->
<g id="edge34" class="edge">
<title>node15&#45;&gt;node19</title>
<path fill="none" stroke="black" stroke-dasharray="1,5" d="M978.88,-292.71C1019.96,-278.8 1073.29,-260.74 1115.14,-246.57"/>
<polygon fill="black" stroke="black" points="1116.35,-249.86 1124.7,-243.34 1114.1,-243.23 1116.35,-249.86"/>
</g>
<!-- node18&#45;&gt;node16 -->
<g id="edge32" class="edge">
<title>node18&#45;&gt;node16</title>
<path fill="none" stroke="black" stroke-dasharray="1,5" d="M833.61,-203.29C817.52,-199.76 800.75,-196.15 785.03,-192.87 690.52,-173.16 580.65,-151.93 513.23,-139.09"/>
<polygon fill="black" stroke="black" points="513.67,-135.61 503.2,-137.18 512.37,-142.49 513.67,-135.61"/>
</g>
<!-- node20&#45;&gt;node3 -->
<g id="edge36" class="edge">
<title>node20&#45;&gt;node3</title>
<path fill="none" stroke="black" stroke-dasharray="1,5" d="M1631.48,-196.53C1649.04,-181.59 1671.08,-162.84 1687.82,-148.59"/>
<polygon fill="black" stroke="black" points="1690.23,-151.15 1695.57,-142 1685.69,-145.81 1690.23,-151.15"/>
</g>
<!-- node20&#45;&gt;node9 -->
<g id="edge38" class="edge">
<title>node20&#45;&gt;node9</title>
<path fill="none" stroke="black" d="M1604.79,-196.52C1608.59,-170.08 1617.24,-127.96 1636.03,-96.43 1647.14,-77.78 1665,-60.98 1679.76,-49.04"/>
<polygon fill="black" stroke="black" points="1682.29,-51.5 1688.02,-42.59 1677.98,-45.99 1682.29,-51.5"/>
</g>
<!-- node20&#45;&gt;node16 -->
<g id="edge37" class="edge">
<title>node20&#45;&gt;node16</title>
<path fill="none" stroke="black" d="M1546.92,-202.99C1534.85,-199.31 1522.08,-195.71 1510.03,-192.87 1458.76,-180.77 1445.42,-179.4 1393.03,-173.87 1085.56,-141.39 719.26,-131.41 547.73,-128.41"/>
<polygon fill="black" stroke="black" points="547.77,-124.91 537.71,-128.24 547.65,-131.91 547.77,-124.91"/>
</g>
<!-- node21 -->
<g id="node30" class="node">
<title>node21</title>
<polygon fill="none" stroke="black" points="1589.03,-122.15 1583.68,-137.37 1562.03,-144.15 1540.38,-137.37 1535.03,-122.15 1550.01,-109.93 1574.04,-109.93 1589.03,-122.15"/>
<text text-anchor="middle" x="1562.03" y="-123.05" font-family="Times,serif" font-size="12.00">rt</text>
</g>
<!-- node20&#45;&gt;node21 -->
<g id="edge39" class="edge">
<title>node20&#45;&gt;node21</title>
<path fill="none" stroke="black" d="M1591.31,-196.28C1585.42,-182.39 1578.16,-165.24 1572.34,-151.5"/>
<polygon fill="black" stroke="black" points="1575.52,-150.04 1568.4,-142.2 1569.08,-152.77 1575.52,-150.04"/>
</g>
<!-- node22&#45;&gt;node16 -->
<g id="edge41" class="edge">
<title>node22&#45;&gt;node16</title>
<path fill="none" stroke="black" stroke-dasharray="5,2" d="M1450.47,-293.42C1434.34,-281.93 1414.54,-267.03 1398.03,-252.3 1370.95,-228.14 1371.66,-213.83 1342.03,-192.87 1324.97,-180.8 1319.35,-178.74 1299.03,-173.87 1158.98,-140.26 739.15,-130.74 547.44,-128.12"/>
<polygon fill="black" stroke="black" points="547.41,-124.62 537.37,-127.98 547.32,-131.62 547.41,-124.62"/>
</g>
<!-- node23 -->
<g id="node32" class="node">
<title>node23</title>
<polygon fill="none" stroke="black" points="1497.17,-215.13 1497.17,-230.04 1471.9,-240.59 1436.16,-240.59 1410.89,-230.04 1410.89,-215.13 1436.16,-204.59 1471.9,-204.59 1497.17,-215.13"/>
<polygon fill="none" stroke="black" points="1501.15,-212.46 1501.15,-232.71 1472.69,-244.59 1435.37,-244.59 1406.91,-232.71 1406.91,-212.46 1435.37,-200.59 1472.69,-200.59 1501.15,-212.46"/>
<text text-anchor="middle" x="1454.03" y="-219.49" font-family="Times,serif" font-size="12.00">fmt::fmt</text>
</g>
<!-- node22&#45;&gt;node23 -->
<g id="edge43" class="edge">
<title>node22&#45;&gt;node23</title>
<path fill="none" stroke="black" stroke-dasharray="5,2" d="M1474.77,-293.28C1471.35,-281.8 1467.05,-267.36 1463.26,-254.61"/>
<polygon fill="black" stroke="black" points="1466.56,-253.42 1460.35,-244.83 1459.85,-255.41 1466.56,-253.42"/>
</g>
<!-- node24 -->
<g id="node33" class="node">
<title>node24</title>
<polygon fill="none" stroke="black" points="1517.24,-122.15 1502.74,-137.37 1444.03,-144.15 1385.31,-137.37 1370.81,-122.15 1411.44,-109.93 1476.61,-109.93 1517.24,-122.15"/>
<text text-anchor="middle" x="1444.03" y="-123.05" font-family="Times,serif" font-size="12.00">&#45;Wl,&#45;&#45;as&#45;needed</text>
</g>
<!-- node23&#45;&gt;node24 -->
<g id="edge42" class="edge">
<title>node23&#45;&gt;node24</title>
<path fill="none" stroke="black" stroke-dasharray="5,2" d="M1451.76,-200.16C1450.31,-186.49 1448.43,-168.68 1446.88,-154.06"/>
<polygon fill="black" stroke="black" points="1450.36,-153.67 1445.82,-144.1 1443.4,-154.41 1450.36,-153.67"/>
</g>
<!-- node25&#45;&gt;node16 -->
<g id="edge46" class="edge">
<title>node25&#45;&gt;node16</title>
<path fill="none" stroke="black" d="M120.39,-289.2C141.57,-262.87 177.54,-221.45 215.03,-192.87 257.65,-160.38 315.53,-143.95 363.18,-135.65"/>
<polygon fill="black" stroke="black" points="363.89,-139.08 373.19,-133.99 362.75,-132.17 363.89,-139.08"/>
</g>
<!-- node26 -->
<g id="node35" class="node">
<title>node26</title>
<polygon fill="none" stroke="black" points="384.48,-211.8 384.48,-233.37 341.45,-248.63 280.6,-248.63 237.58,-233.37 237.58,-211.8 280.6,-196.54 341.45,-196.54 384.48,-211.8"/>
<text text-anchor="middle" x="311.03" y="-225.99" font-family="Times,serif" font-size="12.00">gtest</text>
<text text-anchor="middle" x="311.03" y="-212.99" font-family="Times,serif" font-size="12.00">(GTest::gtest)</text>
</g>
<!-- node25&#45;&gt;node26 -->
<g id="edge48" class="edge">
<title>node25&#45;&gt;node26</title>
<path fill="none" stroke="black" d="M153.21,-291.78C184.36,-278.32 223.9,-261.23 255.62,-247.53"/>
<polygon fill="black" stroke="black" points="257.4,-250.57 265.19,-243.39 254.62,-244.15 257.4,-250.57"/>
</g>
<!-- node26&#45;&gt;node16 -->
<g id="edge47" class="edge">
<title>node26&#45;&gt;node16</title>
<path fill="none" stroke="black" d="M345.75,-198C368.64,-182.44 398.33,-162.27 420.17,-147.44"/>
<polygon fill="black" stroke="black" points="422.41,-150.15 428.71,-141.63 418.47,-144.36 422.41,-150.15"/>
</g>
<!-- node27 -->
<g id="node36" class="node">
<title>node27</title>
<polygon fill="none" stroke="black" points="2201.71,-755.92 2203.49,-756.02 2205.24,-756.17 2206.98,-756.36 2208.68,-756.61 2210.34,-756.9 2211.95,-757.24 2213.51,-757.62 2215.02,-758.05 2216.46,-758.52 2217.83,-759.03 2219.13,-759.59 2220.35,-760.18 2221.48,-760.81 2222.54,-761.48 2223.5,-762.18 2224.37,-762.91 2225.16,-763.67 2225.84,-764.46 2226.44,-765.28 2226.93,-766.12 2227.34,-766.98 2227.65,-767.86 2227.86,-768.76 2227.98,-769.67 2228.02,-770.59 2227.96,-771.52 2227.82,-772.46 2227.6,-773.4 2227.3,-774.34 2226.92,-775.28 2226.47,-776.22 2225.95,-777.15 2225.36,-778.08 2224.71,-778.99 2224.01,-779.88 2223.25,-780.76 2222.44,-781.62 2221.59,-782.46 2220.69,-783.28 2219.76,-784.07 2218.79,-784.83 2217.79,-785.57 2216.77,-786.27 2215.71,-786.93 2214.64,-787.56 2213.54,-788.16 2212.43,-788.71 2211.31,-789.22 2210.17,-789.7 2209.02,-790.12 2207.86,-790.51 2206.7,-790.84 2205.53,-791.14 2204.35,-791.38 2203.17,-791.58 2201.99,-791.72 2200.81,-791.82 2199.62,-791.87 2198.44,-791.87 2197.25,-791.82 2196.07,-791.72 2194.88,-791.58 2193.7,-791.38 2192.53,-791.14 2191.36,-790.84 2190.19,-790.51 2189.03,-790.12 2187.89,-789.7 2186.75,-789.22 2185.62,-788.71 2184.51,-788.16 2183.42,-787.56 2182.34,-786.93 2181.29,-786.27 2180.26,-785.57 2179.26,-784.83 2178.3,-784.07 2177.36,-783.28 2176.47,-782.46 2175.61,-781.62 2174.81,-780.76 2174.05,-779.88 2173.34,-778.99 2172.7,-778.08 2172.11,-777.15 2171.59,-776.22 2171.14,-775.28 2170.76,-774.34 2170.46,-773.4 2170.23,-772.46 2170.09,-771.52 2170.04,-770.59 2170.07,-769.67 2170.2,-768.76 2170.41,-767.86 2170.72,-766.98 2171.12,-766.12 2171.62,-765.28 2172.21,-764.46 2172.9,-763.67 2173.68,-762.91 2174.56,-762.18 2175.52,-761.48 2176.57,-760.81 2177.71,-760.18 2178.93,-759.59 2180.23,-759.03 2181.6,-758.52 2183.04,-758.05 2184.54,-757.62 2186.11,-757.24 2187.72,-756.9 2189.38,-756.61 2191.08,-756.36 2192.81,-756.17 2194.57,-756.02 2196.35,-755.92 2198.13,-755.87 2199.92,-755.87 2201.71,-755.92"/>
<text text-anchor="middle" x="2199.03" y="-770.77" font-family="Times,serif" font-size="12.00">XXX</text>
</g>
<!-- node27&#45;&gt;node2 -->
<g id="edge51" class="edge">
<title>node27&#45;&gt;node2</title>
<path fill="none" stroke="black" stroke-dasharray="1,5" d="M2170.11,-773.15C2079.96,-773.23 1810.03,-767.35 1810.03,-693.87 1810.03,-693.87 1810.03,-693.87 1810.03,-492.41 1810.03,-451.97 1766.69,-429.41 1729.13,-417.46"/>
<polygon fill="black" stroke="black" points="1729.82,-414.01 1719.23,-414.5 1727.81,-420.72 1729.82,-414.01"/>
</g>
<!-- node27&#45;&gt;node27 -->
<g id="edge50" class="edge">
<title>node27&#45;&gt;node27</title>
<path fill="none" stroke="black" d="M2223.56,-780.46C2235.36,-781.27 2245.77,-779.07 2245.77,-773.87 2245.77,-771.02 2242.63,-769.07 2237.85,-768.02"/>
<polygon fill="black" stroke="black" points="2238.06,-764.53 2227.79,-767.12 2237.43,-771.5 2238.06,-764.53"/>
</g>
<!-- node28 -->
<g id="node37" class="node">
<title>node28</title>
<polygon fill="none" stroke="black" points="2581.5,-668.84 2587.77,-668.97 2593.97,-669.17 2600.08,-669.43 2606.08,-669.76 2611.94,-670.15 2617.64,-670.6 2623.15,-671.11 2628.46,-671.68 2633.55,-672.32 2638.39,-673 2642.97,-673.75 2647.27,-674.54 2651.29,-675.38 2655,-676.28 2658.41,-677.21 2661.49,-678.2 2664.25,-679.22 2666.68,-680.28 2668.77,-681.37 2670.53,-682.49 2671.95,-683.65 2673.04,-684.82 2673.8,-686.02 2674.23,-687.24 2674.35,-688.48 2674.16,-689.72 2673.66,-690.98 2672.88,-692.24 2671.81,-693.5 2670.47,-694.76 2668.88,-696.02 2667.04,-697.26 2664.97,-698.5 2662.69,-699.72 2660.2,-700.92 2657.53,-702.1 2654.68,-703.25 2651.66,-704.37 2648.5,-705.47 2645.21,-706.53 2641.79,-707.55 2638.26,-708.53 2634.63,-709.47 2630.92,-710.36 2627.13,-711.2 2623.27,-712 2619.35,-712.74 2615.37,-713.43 2611.36,-714.06 2607.3,-714.63 2603.22,-715.14 2599.11,-715.6 2594.97,-715.99 2590.82,-716.31 2586.66,-716.58 2582.49,-716.77 2578.31,-716.91 2574.12,-716.97 2569.94,-716.97 2565.75,-716.91 2561.57,-716.77 2557.4,-716.58 2553.23,-716.31 2549.08,-715.99 2544.95,-715.6 2540.84,-715.14 2536.75,-714.63 2532.7,-714.06 2528.68,-713.43 2524.71,-712.74 2520.79,-712 2516.93,-711.2 2513.14,-710.36 2509.42,-709.47 2505.8,-708.53 2502.27,-707.55 2498.85,-706.53 2495.55,-705.47 2492.39,-704.37 2489.38,-703.25 2486.53,-702.1 2483.85,-700.92 2481.37,-699.72 2479.08,-698.5 2477.02,-697.26 2475.18,-696.02 2473.58,-694.76 2472.25,-693.5 2471.18,-692.24 2470.39,-690.98 2469.9,-689.72 2469.71,-688.48 2469.82,-687.24 2470.26,-686.02 2471.02,-684.82 2472.11,-683.65 2473.53,-682.49 2475.29,-681.37 2477.38,-680.28 2479.81,-679.22 2482.57,-678.2 2485.65,-677.21 2489.05,-676.28 2492.77,-675.38 2496.78,-674.54 2501.09,-673.75 2505.67,-673 2510.51,-672.32 2515.59,-671.68 2520.9,-671.11 2526.42,-670.6 2532.11,-670.15 2537.97,-669.76 2543.97,-669.43 2550.09,-669.17 2556.29,-668.97 2562.56,-668.84 2568.87,-668.77 2575.19,-668.77 2581.5,-668.84"/>
<text text-anchor="middle" x="2572.03" y="-696.27" font-family="Times,serif" font-size="12.00">crashpad_handler</text>
<text text-anchor="middle" x="2572.03" y="-683.27" font-family="Times,serif" font-size="12.00">(crashpad::handler)</text>
</g>
<!-- node27&#45;&gt;node28 -->
<g id="edge78" class="edge">
<title>node27&#45;&gt;node28</title>
<path fill="none" stroke="black" d="M2227.37,-766.87C2283.65,-754.95 2411.24,-727.93 2494.39,-710.31"/>
<polygon fill="black" stroke="black" points="2495.25,-713.71 2504.31,-708.21 2493.8,-706.86 2495.25,-713.71"/>
</g>
<!-- node28&#45;&gt;node6 -->
<g id="edge52" class="edge">
<title>node28&#45;&gt;node6</title>
<path fill="none" stroke="black" stroke-dasharray="1,5" d="M2470.11,-690.39C2326.8,-685.49 2083.03,-665.62 2083.03,-587.15 2083.03,-587.15 2083.03,-587.15 2083.03,-403.37 2083.03,-382.09 2095.93,-363.13 2110.74,-348.38"/>
<polygon fill="black" stroke="black" points="2113.2,-350.88 2118.11,-341.49 2108.42,-345.76 2113.2,-350.88"/>
</g>
<!-- node28&#45;&gt;node8 -->
<g id="edge71" class="edge">
<title>node28&#45;&gt;node8</title>
<path fill="none" stroke="black" stroke-dasharray="1,5" d="M2648.15,-674.66C2659.83,-672.04 2671.75,-669.38 2683.03,-666.87 2797.71,-641.41 2935.03,-704.62 2935.03,-587.15 2935.03,-587.15 2935.03,-587.15 2935.03,-125.15 2935.03,-86.59 2838.49,-60.76 2758.78,-46"/>
<polygon fill="black" stroke="black" points="2759.12,-42.5 2748.65,-44.16 2757.87,-49.39 2759.12,-42.5"/>
</g>
<!-- node28&#45;&gt;node10 -->
<g id="edge76" class="edge">
<title>node28&#45;&gt;node10</title>
<path fill="none" stroke="black" stroke-dasharray="1,5" d="M2469.8,-689.9C2377.37,-686.3 2238.08,-676.31 2120.03,-648.87 2044.58,-631.33 1957.03,-664.62 1957.03,-587.15 1957.03,-587.15 1957.03,-587.15 1957.03,-314.33 1957.03,-289.14 1974.69,-268.15 1994.01,-252.72"/>
<polygon fill="black" stroke="black" points="1996.16,-255.48 2002.04,-246.66 1991.95,-249.89 1996.16,-255.48"/>
</g>
<!-- node28&#45;&gt;node13 -->
<g id="edge77" class="edge">
<title>node28&#45;&gt;node13</title>
<path fill="none" stroke="black" stroke-dasharray="1,5" d="M2604.36,-669.63C2627.66,-650.72 2655.03,-621.26 2655.03,-587.15 2655.03,-587.15 2655.03,-587.15 2655.03,-448.39 2655.03,-331.53 2653.93,-292.6 2593.03,-192.87 2584.11,-178.27 2570.61,-166.42 2556.19,-157.02"/>
<polygon fill="black" stroke="black" points="2557.98,-154.01 2547.63,-151.77 2554.32,-159.98 2557.98,-154.01"/>
</g>
<!-- node29 -->
<g id="node38" class="node">
<title>node29</title>
<polygon fill="none" stroke="black" points="2906.78,-595.41 2795.03,-616.09 2683.28,-595.41 2725.96,-561.94 2864.1,-561.94 2906.78,-595.41"/>
<text text-anchor="middle" x="2795.03" y="-589.55" font-family="Times,serif" font-size="12.00">crashpad_getopt</text>
<text text-anchor="middle" x="2795.03" y="-576.55" font-family="Times,serif" font-size="12.00">(crashpad::getopt)</text>
</g>
<!-- node28&#45;&gt;node29 -->
<g id="edge53" class="edge">
<title>node28&#45;&gt;node29</title>
<path fill="none" stroke="black" stroke-dasharray="1,5" d="M2620.55,-670.8C2636.09,-663.93 2653.34,-656.19 2669.03,-648.87 2693.67,-637.38 2720.78,-624.18 2743.52,-612.94"/>
<polygon fill="black" stroke="black" points="2745.24,-615.99 2752.65,-608.41 2742.13,-609.72 2745.24,-615.99"/>
</g>
<!-- node30 -->
<g id="node39" class="node">
<title>node30</title>
<polygon fill="none" stroke="black" points="2557.35,-575.37 2557.35,-596.94 2486.87,-612.2 2387.19,-612.2 2316.7,-596.94 2316.7,-575.37 2387.19,-560.11 2486.87,-560.11 2557.35,-575.37"/>
<text text-anchor="middle" x="2437.03" y="-589.55" font-family="Times,serif" font-size="12.00">crashpad_handler_lib</text>
<text text-anchor="middle" x="2437.03" y="-576.55" font-family="Times,serif" font-size="12.00">(crashpad::handler_lib)</text>
</g>
<!-- node28&#45;&gt;node30 -->
<g id="edge70" class="edge">
<title>node28&#45;&gt;node30</title>
<path fill="none" stroke="black" stroke-dasharray="1,5" d="M2543.07,-669.41C2524.05,-654.66 2498.9,-635.15 2477.87,-618.83"/>
<polygon fill="black" stroke="black" points="2479.78,-615.89 2469.73,-612.52 2475.49,-621.42 2479.78,-615.89"/>
</g>
<!-- node31 -->
<g id="node40" class="node">
<title>node31</title>
<polygon fill="none" stroke="black" points="2551.11,-482.63 2551.11,-504.2 2484.28,-519.46 2389.78,-519.46 2322.95,-504.2 2322.95,-482.63 2389.78,-467.37 2484.28,-467.37 2551.11,-482.63"/>
<text text-anchor="middle" x="2437.03" y="-496.81" font-family="Times,serif" font-size="12.00">crashpad_minidump</text>
<text text-anchor="middle" x="2437.03" y="-483.81" font-family="Times,serif" font-size="12.00">(crashpad::minidump)</text>
</g>
<!-- node28&#45;&gt;node31 -->
<g id="edge72" class="edge">
<title>node28&#45;&gt;node31</title>
<path fill="none" stroke="black" stroke-dasharray="1,5" d="M2577.72,-668.61C2583.37,-639.75 2588.33,-590.22 2566.03,-556.44 2554.9,-539.57 2537.82,-527.16 2519.69,-518.08"/>
<polygon fill="black" stroke="black" points="2520.69,-514.68 2510.15,-513.63 2517.73,-521.03 2520.69,-514.68"/>
</g>
<!-- node32 -->
<g id="node41" class="node">
<title>node32</title>
<polygon fill="none" stroke="black" points="2409.42,-393.58 2409.42,-415.16 2345.34,-430.41 2254.72,-430.41 2190.63,-415.16 2190.63,-393.58 2254.72,-378.32 2345.34,-378.32 2409.42,-393.58"/>
<text text-anchor="middle" x="2300.03" y="-407.77" font-family="Times,serif" font-size="12.00">crashpad_snapshot</text>
<text text-anchor="middle" x="2300.03" y="-394.77" font-family="Times,serif" font-size="12.00">(crashpad::snapshot)</text>
</g>
<!-- node28&#45;&gt;node32 -->
<g id="edge73" class="edge">
<title>node28&#45;&gt;node32</title>
<path fill="none" stroke="black" stroke-dasharray="1,5" d="M2485.21,-677.24C2417.68,-664.04 2331.6,-642.62 2308.03,-615.87 2265.54,-567.66 2277.61,-486.46 2289.36,-440.27"/>
<polygon fill="black" stroke="black" points="2292.79,-440.99 2291.99,-430.42 2286.03,-439.18 2292.79,-440.99"/>
</g>
<!-- node33 -->
<g id="node42" class="node">
<title>node33</title>
<polygon fill="none" stroke="black" points="3145.19,-575.37 3145.19,-596.94 3091.79,-612.2 3016.27,-612.2 2962.87,-596.94 2962.87,-575.37 3016.27,-560.11 3091.79,-560.11 3145.19,-575.37"/>
<text text-anchor="middle" x="3054.03" y="-589.55" font-family="Times,serif" font-size="12.00">crashpad_tools</text>
<text text-anchor="middle" x="3054.03" y="-576.55" font-family="Times,serif" font-size="12.00">(crashpad::tools)</text>
</g>
<!-- node28&#45;&gt;node33 -->
<g id="edge75" class="edge">
<title>node28&#45;&gt;node33</title>
<path fill="none" stroke="black" stroke-dasharray="1,5" d="M2644.27,-673.91C2657.12,-671.2 2670.42,-668.71 2683.03,-666.87 2800.29,-649.8 2835.81,-683.83 2949.03,-648.87 2971.08,-642.06 2993.41,-629.84 3011.78,-618.06"/>
<polygon fill="black" stroke="black" points="3014.04,-620.77 3020.46,-612.34 3010.18,-614.92 3014.04,-620.77"/>
</g>
<!-- node30&#45;&gt;node7 -->
<g id="edge54" class="edge">
<title>node30&#45;&gt;node7</title>
<path fill="none" stroke="black" d="M2363.66,-565.06C2301.25,-543.43 2216.42,-502.06 2182.03,-430.39 2172.02,-409.54 2169.87,-398.02 2182.03,-378.35 2201.36,-347.07 2236.7,-372.63 2256.03,-341.35 2268.19,-321.67 2260.59,-311.98 2256.03,-289.3 2246.68,-242.86 2223.68,-193.14 2207.01,-161.18"/>
<polygon fill="black" stroke="black" points="2210.06,-159.45 2202.28,-152.26 2203.87,-162.73 2210.06,-159.45"/>
</g>
<!-- node30&#45;&gt;node8 -->
<g id="edge55" class="edge">
<title>node30&#45;&gt;node8</title>
<path fill="none" stroke="black" stroke-dasharray="1,5" d="M2527.26,-568.7C2552.85,-559.05 2577.22,-543.73 2590.03,-519.44 2667.58,-372.26 2653.79,-320.3 2679.03,-155.87 2684.33,-121.34 2693.61,-111.03 2684.03,-77.43 2682.88,-73.41 2681.27,-69.39 2679.4,-65.49"/>
<polygon fill="black" stroke="black" points="2682.47,-63.81 2674.63,-56.68 2676.31,-67.14 2682.47,-63.81"/>
</g>
<!-- node30&#45;&gt;node10 -->
<g id="edge68" class="edge">
<title>node30&#45;&gt;node10</title>
<path fill="none" stroke="black" d="M2340.91,-570.04C2307.21,-562.85 2269.64,-552.62 2237.03,-538.44 2158,-504.07 2132.51,-495.47 2076.03,-430.39 2027.74,-374.75 2025.28,-343.57 2033.03,-270.3 2033.43,-266.53 2034,-262.62 2034.68,-258.74"/>
<polygon fill="black" stroke="black" points="2038.17,-259.13 2036.65,-248.64 2031.3,-257.79 2038.17,-259.13"/>
</g>
<!-- node30&#45;&gt;node13 -->
<g id="edge69" class="edge">
<title>node30&#45;&gt;node13</title>
<path fill="none" stroke="black" d="M2513.43,-565.77C2547.04,-552.21 2579.03,-529.96 2579.03,-494.41 2579.03,-494.41 2579.03,-494.41 2579.03,-221.59 2579.03,-195.62 2560.96,-174.12 2540.84,-158.23"/>
<polygon fill="black" stroke="black" points="2542.87,-155.38 2532.76,-152.2 2538.68,-160.99 2542.87,-155.38"/>
</g>
<!-- node30&#45;&gt;node31 -->
<g id="edge66" class="edge">
<title>node30&#45;&gt;node31</title>
<path fill="none" stroke="black" d="M2437.03,-559.88C2437.03,-550.54 2437.03,-539.77 2437.03,-529.71"/>
<polygon fill="black" stroke="black" points="2440.53,-529.56 2437.03,-519.56 2433.53,-529.56 2440.53,-529.56"/>
</g>
<!-- node30&#45;&gt;node32 -->
<g id="edge67" class="edge">
<title>node30&#45;&gt;node32</title>
<path fill="none" stroke="black" d="M2370.28,-563.62C2349.05,-553.51 2327.58,-539.2 2314.03,-519.44 2298.4,-496.65 2295.58,-465.13 2296.29,-441"/>
<polygon fill="black" stroke="black" points="2299.8,-440.99 2296.81,-430.82 2292.81,-440.63 2299.8,-440.99"/>
</g>
<!-- node31&#45;&gt;node7 -->
<g id="edge56" class="edge">
<title>node31&#45;&gt;node7</title>
<path fill="none" stroke="black" d="M2434.2,-467.3C2427.36,-413.94 2406.61,-286.47 2356.03,-192.87 2342.51,-167.85 2317.45,-152.31 2290.73,-142.68"/>
<polygon fill="black" stroke="black" points="2291.82,-139.35 2281.23,-139.51 2289.61,-145.99 2291.82,-139.35"/>
</g>
<!-- node31&#45;&gt;node8 -->
<g id="edge57" class="edge">
<title>node31&#45;&gt;node8</title>
<path fill="none" stroke="black" stroke-dasharray="1,5" d="M2478.24,-467.24C2485.84,-461.79 2493.45,-455.74 2500.03,-449.39 2507.58,-442.11 2508.45,-439.28 2514.03,-430.39 2587.38,-313.52 2616.47,-287.13 2659.03,-155.87 2669.88,-122.38 2675.47,-112.21 2670.03,-77.43 2669.53,-74.24 2668.84,-70.96 2668.05,-67.69"/>
<polygon fill="black" stroke="black" points="2671.41,-66.74 2665.36,-58.04 2664.67,-68.61 2671.41,-66.74"/>
</g>
<!-- node31&#45;&gt;node10 -->
<g id="edge64" class="edge">
<title>node31&#45;&gt;node10</title>
<path fill="none" stroke="black" d="M2342.9,-477.96C2293.58,-468.31 2233,-453.13 2182.03,-430.39 2118.07,-401.86 2087.02,-402.01 2052.03,-341.35 2037.68,-316.48 2036.34,-283.59 2038.06,-258.89"/>
<polygon fill="black" stroke="black" points="2041.55,-259.13 2038.96,-248.86 2034.58,-258.51 2041.55,-259.13"/>
</g>
<!-- node31&#45;&gt;node13 -->
<g id="edge65" class="edge">
<title>node31&#45;&gt;node13</title>
<path fill="none" stroke="black" d="M2470.03,-467.1C2486.53,-451.41 2503.03,-429.64 2503.03,-405.37 2503.03,-405.37 2503.03,-405.37 2503.03,-221.59 2503.03,-201.71 2499.54,-179.8 2495.82,-162.1"/>
<polygon fill="black" stroke="black" points="2499.21,-161.21 2493.63,-152.21 2492.37,-162.73 2499.21,-161.21"/>
</g>
<!-- node31&#45;&gt;node32 -->
<g id="edge63" class="edge">
<title>node31&#45;&gt;node32</title>
<path fill="none" stroke="black" d="M2397.4,-467.24C2382.07,-457.49 2364.37,-446.25 2348.3,-436.04"/>
<polygon fill="black" stroke="black" points="2349.88,-432.9 2339.57,-430.49 2346.13,-438.81 2349.88,-432.9"/>
</g>
<!-- node32&#45;&gt;node6 -->
<g id="edge58" class="edge">
<title>node32&#45;&gt;node6</title>
<path fill="none" stroke="black" d="M2257.8,-378.19C2241.02,-368.19 2221.58,-356.6 2204.1,-346.18"/>
<polygon fill="black" stroke="black" points="2205.54,-342.96 2195.16,-340.85 2201.95,-348.97 2205.54,-342.96"/>
</g>
<!-- node32&#45;&gt;node7 -->
<g id="edge59" class="edge">
<title>node32&#45;&gt;node7</title>
<path fill="none" stroke="black" d="M2313.19,-378.17C2334.91,-332.71 2371.64,-235.92 2327.03,-173.87 2317.37,-160.43 2303.65,-150.8 2288.56,-143.92"/>
<polygon fill="black" stroke="black" points="2289.59,-140.56 2279.01,-139.98 2286.92,-147.03 2289.59,-140.56"/>
</g>
<!-- node32&#45;&gt;node8 -->
<g id="edge60" class="edge">
<title>node32&#45;&gt;node8</title>
<path fill="none" stroke="black" stroke-dasharray="1,5" d="M2353.78,-380.25C2430.27,-344.3 2568.7,-267.35 2636.03,-155.87 2651.66,-129.99 2655.97,-95.79 2656.63,-69.68"/>
<polygon fill="black" stroke="black" points="2660.13,-69.42 2656.71,-59.4 2653.13,-69.37 2660.13,-69.42"/>
</g>
<!-- node32&#45;&gt;node10 -->
<g id="edge61" class="edge">
<title>node32&#45;&gt;node10</title>
<path fill="none" stroke="black" d="M2296.76,-378.02C2292.11,-352.21 2281.17,-312.77 2256.03,-289.3 2223.62,-259.05 2177.57,-242.72 2136.57,-233.9"/>
<polygon fill="black" stroke="black" points="2137.03,-230.42 2126.54,-231.87 2135.64,-237.28 2137.03,-230.42"/>
</g>
<!-- node32&#45;&gt;node13 -->
<g id="edge62" class="edge">
<title>node32&#45;&gt;node13</title>
<path fill="none" stroke="black" d="M2321.41,-378.25C2330.54,-367.18 2341.12,-353.85 2350.03,-341.35 2394.12,-279.41 2440.9,-203.85 2466.79,-161.04"/>
<polygon fill="black" stroke="black" points="2469.82,-162.79 2471.99,-152.42 2463.83,-159.17 2469.82,-162.79"/>
</g>
<!-- node33&#45;&gt;node8 -->
<g id="edge74" class="edge">
<title>node33&#45;&gt;node8</title>
<path fill="none" stroke="black" stroke-dasharray="1,5" d="M3035.69,-559.91C3024.77,-542.42 3013.03,-518.1 3013.03,-494.41 3013.03,-494.41 3013.03,-494.41 3013.03,-125.15 3013.03,-76.55 2888.12,-52.42 2785.87,-40.8"/>
<polygon fill="black" stroke="black" points="2786.06,-37.3 2775.73,-39.68 2785.29,-44.26 2786.06,-37.3"/>
</g>
<!-- node34 -->
<g id="node43" class="node">
<title>node34</title>
<polygon fill="none" stroke="black" points="2832.21,-779.43 2756.03,-791.87 2679.85,-779.43 2708.95,-759.31 2803.11,-759.31 2832.21,-779.43"/>
<text text-anchor="middle" x="2756.03" y="-770.77" font-family="Times,serif" font-size="12.00">cppzmq&#45;static</text>
</g>
<!-- node35 -->
<g id="node44" class="node">
<title>node35</title>
<polygon fill="none" stroke="black" points="2819.61,-688.87 2807.02,-704.09 2756.03,-710.87 2705.04,-704.09 2692.44,-688.87 2727.73,-676.65 2784.33,-676.65 2819.61,-688.87"/>
<text text-anchor="middle" x="2756.03" y="-689.77" font-family="Times,serif" font-size="12.00">libzmq&#45;static</text>
</g>
<!-- node34&#45;&gt;node35 -->
<g id="edge79" class="edge">
<title>node34&#45;&gt;node35</title>
<path fill="none" stroke="black" stroke-dasharray="5,2" d="M2756.03,-759.11C2756.03,-748.68 2756.03,-734.01 2756.03,-721.22"/>
<polygon fill="black" stroke="black" points="2759.53,-721.06 2756.03,-711.06 2752.53,-721.06 2759.53,-721.06"/>
</g>
<!-- node36 -->
<g id="node45" class="node">
<title>node36</title>
<polygon fill="none" stroke="black" points="383.82,-304.54 383.82,-326.11 335.91,-341.37 268.15,-341.37 220.24,-326.11 220.24,-304.54 268.15,-289.28 335.91,-289.28 383.82,-304.54"/>
<text text-anchor="middle" x="302.03" y="-318.73" font-family="Times,serif" font-size="12.00">gmock</text>
<text text-anchor="middle" x="302.03" y="-305.73" font-family="Times,serif" font-size="12.00">(GTest::gmock)</text>
</g>
<!-- node36&#45;&gt;node16 -->
<g id="edge80" class="edge">
<title>node36&#45;&gt;node16</title>
<path fill="none" stroke="black" d="M262.68,-291C249.44,-280.93 236.22,-267.85 229.03,-252.3 217.94,-228.33 213.23,-214.04 229.03,-192.87 247.5,-168.11 324.01,-149.32 381.87,-138.3"/>
<polygon fill="black" stroke="black" points="382.52,-141.74 391.71,-136.47 381.24,-134.86 382.52,-141.74"/>
</g>
<!-- node36&#45;&gt;node26 -->
<g id="edge81" class="edge">
<title>node36&#45;&gt;node26</title>
<path fill="none" stroke="black" d="M304.54,-289.05C305.46,-279.71 306.53,-268.94 307.53,-258.88"/>
<polygon fill="black" stroke="black" points="311.03,-259.02 308.53,-248.73 304.06,-258.33 311.03,-259.02"/>
</g>
<!-- node37 -->
<g id="node46" class="node">
<title>node37</title>
<polygon fill="none" stroke="black" points="487.42,-393.58 487.42,-415.16 423.34,-430.41 332.72,-430.41 268.63,-415.16 268.63,-393.58 332.72,-378.32 423.34,-378.32 487.42,-393.58"/>
<text text-anchor="middle" x="378.03" y="-407.77" font-family="Times,serif" font-size="12.00">gmock_main</text>
<text text-anchor="middle" x="378.03" y="-394.77" font-family="Times,serif" font-size="12.00">(GTest::gmock_main)</text>
</g>
<!-- node37&#45;&gt;node16 -->
<g id="edge82" class="edge">
<title>node37&#45;&gt;node16</title>
<path fill="none" stroke="black" d="M384.67,-377.88C398.32,-325.54 429.36,-206.44 443.18,-153.44"/>
<polygon fill="black" stroke="black" points="446.56,-154.32 445.7,-143.76 439.79,-152.55 446.56,-154.32"/>
</g>
<!-- node37&#45;&gt;node36 -->
<g id="edge83" class="edge">
<title>node37&#45;&gt;node36</title>
<path fill="none" stroke="black" d="M356.05,-378.19C348.09,-369.08 338.99,-358.65 330.55,-348.99"/>
<polygon fill="black" stroke="black" points="333.17,-346.68 323.96,-341.45 327.9,-351.28 333.17,-346.68"/>
</g>
<!-- node38 -->
<g id="node47" class="node">
<title>node38</title>
<polygon fill="none" stroke="black" points="1346.88,-304.54 1346.88,-326.11 1276.09,-341.37 1175.97,-341.37 1105.17,-326.11 1105.17,-304.54 1175.97,-289.28 1276.09,-289.28 1346.88,-304.54"/>
<text text-anchor="middle" x="1226.03" y="-318.73" font-family="Times,serif" font-size="12.00">push</text>
<text text-anchor="middle" x="1226.03" y="-305.73" font-family="Times,serif" font-size="12.00">(prometheus&#45;cpp::push)</text>
</g>
<!-- node38&#45;&gt;node3 -->
<g id="edge84" class="edge">
<title>node38&#45;&gt;node3</title>
<path fill="none" stroke="black" stroke-dasharray="1,5" d="M1324.79,-299.71C1349.05,-296.21 1374.97,-292.55 1399.03,-289.3 1464.5,-280.46 1646.71,-298.41 1694.03,-252.3 1719.85,-227.14 1720.38,-182.84 1717.43,-154.26"/>
<polygon fill="black" stroke="black" points="1720.88,-153.64 1716.17,-144.14 1713.93,-154.5 1720.88,-153.64"/>
</g>
<!-- node38&#45;&gt;node16 -->
<g id="edge85" class="edge">
<title>node38&#45;&gt;node16</title>
<path fill="none" stroke="black" stroke-dasharray="1,5" d="M1282.49,-290.62C1298.12,-281.13 1313.2,-268.51 1322.03,-252.3 1334.66,-229.1 1339.99,-212.24 1322.03,-192.87 1270.1,-136.88 761.26,-128.31 545.71,-127.2"/>
<polygon fill="black" stroke="black" points="545.69,-123.7 535.68,-127.15 545.66,-130.7 545.69,-123.7"/>
</g>
<!-- node38&#45;&gt;node18 -->
<g id="edge86" class="edge">
<title>node38&#45;&gt;node18</title>
<path fill="none" stroke="black" d="M1155.07,-293.62C1107.5,-279.74 1044.78,-261.44 995.38,-247.03"/>
<polygon fill="black" stroke="black" points="996.26,-243.64 985.68,-244.2 994.3,-250.36 996.26,-243.64"/>
</g>
<!-- node38&#45;&gt;node19 -->
<g id="edge87" class="edge">
<title>node38&#45;&gt;node19</title>
<path fill="none" stroke="black" stroke-dasharray="1,5" d="M1214.05,-289.05C1209.76,-279.99 1204.83,-269.59 1200.18,-259.78"/>
<polygon fill="black" stroke="black" points="1203.29,-258.17 1195.84,-250.63 1196.96,-261.17 1203.29,-258.17"/>
</g>
</g>
</svg>
