<?xml version="1.0" encoding="UTF-8" standalone="no"?>
<!DOCTYPE svg PUBLIC "-//W3C//DTD SVG 1.1//EN"
 "http://www.w3.org/Graphics/SVG/1.1/DTD/svg11.dtd">
<!-- Generated by graphviz version 2.43.0 (0)
 -->
<!-- Title: XXX Pages: 1 -->
<svg width="3182pt" height="461pt"
 viewBox="0.00 0.00 3181.93 461.13" xmlns="http://www.w3.org/2000/svg" xmlns:xlink="http://www.w3.org/1999/xlink">
<g id="graph0" class="graph" transform="scale(1 1) rotate(0) translate(4 457.13)">
<title>XXX</title>
<polygon fill="white" stroke="transparent" points="-4,4 -4,-457.13 3177.93,-457.13 3177.93,4 -4,4"/>
<g id="clust1" class="cluster">
<title>clusterLegend</title>
<polygon fill="none" stroke="black" points="8,-174.07 8,-445.13 636,-445.13 636,-174.07 8,-174.07"/>
<text text-anchor="middle" x="322" y="-429.93" font-family="Times,serif" font-size="14.00">Legend</text>
</g>
<!-- legendNode0 -->
<g id="node1" class="node">
<title>legendNode0</title>
<polygon fill="none" stroke="black" points="339.03,-378.18 342.36,-378.28 345.65,-378.43 348.89,-378.63 352.08,-378.87 355.19,-379.16 358.22,-379.5 361.14,-379.88 363.96,-380.31 366.66,-380.78 369.23,-381.3 371.66,-381.85 373.95,-382.44 376.08,-383.07 378.05,-383.74 379.86,-384.44 381.5,-385.17 382.96,-385.94 384.25,-386.73 385.36,-387.54 386.29,-388.38 387.05,-389.24 387.63,-390.12 388.03,-391.02 388.26,-391.93 388.32,-392.85 388.22,-393.78 387.96,-394.72 387.54,-395.66 386.97,-396.61 386.26,-397.55 385.42,-398.49 384.44,-399.42 383.35,-400.34 382.13,-401.25 380.81,-402.15 379.39,-403.03 377.88,-403.89 376.28,-404.73 374.6,-405.54 372.85,-406.33 371.04,-407.1 369.16,-407.83 367.24,-408.53 365.27,-409.2 363.25,-409.83 361.2,-410.42 359.12,-410.97 357.01,-411.49 354.88,-411.96 352.73,-412.39 350.56,-412.77 348.38,-413.11 346.18,-413.4 343.98,-413.64 341.77,-413.84 339.55,-413.99 337.33,-414.09 335.11,-414.13 332.89,-414.13 330.67,-414.09 328.45,-413.99 326.23,-413.84 324.02,-413.64 321.82,-413.4 319.62,-413.11 317.44,-412.77 315.27,-412.39 313.12,-411.96 310.99,-411.49 308.88,-410.97 306.8,-410.42 304.75,-409.83 302.73,-409.2 300.76,-408.53 298.84,-407.83 296.96,-407.1 295.15,-406.33 293.4,-405.54 291.72,-404.73 290.12,-403.89 288.61,-403.03 287.19,-402.15 285.87,-401.25 284.65,-400.34 283.56,-399.42 282.58,-398.49 281.74,-397.55 281.03,-396.61 280.46,-395.66 280.04,-394.72 279.78,-393.78 279.68,-392.85 279.74,-391.93 279.97,-391.02 280.37,-390.12 280.95,-389.24 281.71,-388.38 282.64,-387.54 283.75,-386.73 285.04,-385.94 286.5,-385.17 288.14,-384.44 289.95,-383.74 291.92,-383.07 294.05,-382.44 296.34,-381.85 298.77,-381.3 301.34,-380.78 304.04,-380.31 306.86,-379.88 309.78,-379.5 312.81,-379.16 315.92,-378.87 319.11,-378.63 322.35,-378.43 325.64,-378.28 328.97,-378.18 332.32,-378.13 335.68,-378.13 339.03,-378.18"/>
<text text-anchor="middle" x="334" y="-393.03" font-family="Times,serif" font-size="12.00">Executable</text>
</g>
<!-- legendNode1 -->
<g id="node2" class="node">
<title>legendNode1</title>
<polygon fill="none" stroke="black" points="150.09,-303.66 150.09,-318.57 110.79,-329.11 55.21,-329.11 15.91,-318.57 15.91,-303.66 55.21,-293.11 110.79,-293.11 150.09,-303.66"/>
<text text-anchor="middle" x="83" y="-308.01" font-family="Times,serif" font-size="12.00">Static Library</text>
</g>
<!-- legendNode0&#45;&gt;legendNode1 -->
<g id="edge1" class="edge">
<title>legendNode0&#45;&gt;legendNode1</title>
<path fill="none" stroke="black" d="M292.29,-382.95C256.9,-372.43 204.87,-356.54 160,-341.13 150.27,-337.8 139.92,-334.04 130.08,-330.36"/>
<polygon fill="black" stroke="black" points="131.03,-326.98 120.44,-326.73 128.56,-333.53 131.03,-326.98"/>
</g>
<!-- legendNode2 -->
<g id="node3" class="node">
<title>legendNode2</title>
<polygon fill="none" stroke="black" points="319.1,-303.66 319.1,-318.57 276.28,-329.11 215.72,-329.11 172.9,-318.57 172.9,-303.66 215.72,-293.11 276.28,-293.11 319.1,-303.66"/>
<polygon fill="none" stroke="black" points="323.09,-300.52 323.09,-321.7 276.76,-333.11 215.24,-333.11 168.91,-321.7 168.91,-300.52 215.24,-289.11 276.76,-289.11 323.09,-300.52"/>
<text text-anchor="middle" x="246" y="-308.01" font-family="Times,serif" font-size="12.00">Shared Library</text>
</g>
<!-- legendNode0&#45;&gt;legendNode2 -->
<g id="edge2" class="edge">
<title>legendNode0&#45;&gt;legendNode2</title>
<path fill="none" stroke="black" d="M316.61,-378.73C304.95,-367.73 289.29,-352.95 275.68,-340.11"/>
<polygon fill="black" stroke="black" points="278.04,-337.53 268.37,-333.21 273.24,-342.62 278.04,-337.53"/>
</g>
<!-- legendNode3 -->
<g id="node4" class="node">
<title>legendNode3</title>
<polygon fill="none" stroke="black" points="496.92,-303.66 496.92,-318.57 453.62,-329.11 392.38,-329.11 349.08,-318.57 349.08,-303.66 392.38,-293.11 453.62,-293.11 496.92,-303.66"/>
<polygon fill="none" stroke="black" points="500.92,-300.51 500.92,-321.71 454.1,-333.11 391.9,-333.11 345.08,-321.71 345.08,-300.51 391.9,-289.11 454.1,-289.11 500.92,-300.51"/>
<polygon fill="none" stroke="black" points="504.92,-297.37 504.92,-324.85 454.58,-337.11 391.42,-337.11 341.08,-324.85 341.08,-297.37 391.42,-285.11 454.58,-285.11 504.92,-297.37"/>
<text text-anchor="middle" x="423" y="-308.01" font-family="Times,serif" font-size="12.00">Module Library</text>
</g>
<!-- legendNode0&#45;&gt;legendNode3 -->
<!-- legendNode7 -->
<g id="node8" class="node">
<title>legendNode7</title>
<polygon fill="none" stroke="black" points="627.5,-329.11 522.5,-329.11 522.5,-293.11 627.5,-293.11 627.5,-329.11"/>
<text text-anchor="middle" x="575" y="-308.01" font-family="Times,serif" font-size="12.00">Custom Target</text>
</g>
<!-- legendNode0&#45;&gt;legendNode7 -->
<!-- legendNode4 -->
<g id="node5" class="node">
<title>legendNode4</title>
<polygon fill="none" stroke="black" points="200.14,-205.63 108,-218.07 15.86,-205.63 51.05,-185.51 164.95,-185.51 200.14,-205.63"/>
<text text-anchor="middle" x="108" y="-196.97" font-family="Times,serif" font-size="12.00">Interface Library</text>
</g>
<!-- legendNode1&#45;&gt;legendNode4 -->
<g id="edge4" class="edge">
<title>legendNode1&#45;&gt;legendNode4</title>
<path fill="none" stroke="black" stroke-dasharray="5,2" d="M86.91,-293.07C90.93,-275.53 97.25,-247.94 101.93,-227.55"/>
<polygon fill="black" stroke="black" points="105.38,-228.16 104.2,-217.63 98.56,-226.59 105.38,-228.16"/>
<text text-anchor="middle" x="129.5" y="-251.89" font-family="Times,serif" font-size="14.00">Interface</text>
</g>
<!-- legendNode5 -->
<g id="node6" class="node">
<title>legendNode5</title>
<polygon fill="none" stroke="black" points="367.77,-200.07 330.39,-218.07 255.61,-218.07 218.23,-200.07 255.61,-182.07 330.39,-182.07 367.77,-200.07"/>
<text text-anchor="middle" x="293" y="-196.97" font-family="Times,serif" font-size="12.00">Object Library</text>
</g>
<!-- legendNode2&#45;&gt;legendNode5 -->
<g id="edge5" class="edge">
<title>legendNode2&#45;&gt;legendNode5</title>
<path fill="none" stroke="black" stroke-dasharray="1,5" d="M255.06,-289.09C262.65,-271.48 273.51,-246.28 281.67,-227.35"/>
<polygon fill="black" stroke="black" points="284.92,-228.66 285.66,-218.09 278.49,-225.89 284.92,-228.66"/>
<text text-anchor="middle" x="299" y="-251.89" font-family="Times,serif" font-size="14.00">Private</text>
</g>
<!-- legendNode6 -->
<g id="node7" class="node">
<title>legendNode6</title>
<polygon fill="none" stroke="black" points="554.95,-196.06 538.12,-211.29 470,-218.07 401.88,-211.29 385.05,-196.06 432.2,-183.85 507.8,-183.85 554.95,-196.06"/>
<text text-anchor="middle" x="470" y="-196.97" font-family="Times,serif" font-size="12.00">Unknown Library</text>
</g>
<!-- legendNode3&#45;&gt;legendNode6 -->
<g id="edge6" class="edge">
<title>legendNode3&#45;&gt;legendNode6</title>
<path fill="none" stroke="black" d="M433.78,-285.1C441.26,-267.75 451.19,-244.7 458.77,-227.13"/>
<polygon fill="black" stroke="black" points="462.17,-228.07 462.91,-217.51 455.74,-225.3 462.17,-228.07"/>
</g>
<!-- node0 -->
<g id="node9" class="node">
<title>node0</title>
<polygon fill="none" stroke="black" points="2375.85,-205.63 2311,-218.07 2246.15,-205.63 2270.92,-185.51 2351.08,-185.51 2375.85,-205.63"/>
<text text-anchor="middle" x="2311" y="-196.97" font-family="Times,serif" font-size="12.00">RapidJSON</text>
</g>
<!-- node1 -->
<g id="node10" class="node">
<title>node1</title>
<polygon fill="none" stroke="black" points="1351.89,-378.18 1355.79,-378.28 1359.66,-378.43 1363.46,-378.63 1367.19,-378.87 1370.84,-379.16 1374.39,-379.5 1377.82,-379.88 1381.12,-380.31 1384.29,-380.78 1387.3,-381.3 1390.15,-381.85 1392.83,-382.44 1395.33,-383.07 1397.64,-383.74 1399.76,-384.44 1401.68,-385.17 1403.39,-385.94 1404.9,-386.73 1406.21,-387.54 1407.3,-388.38 1408.18,-389.24 1408.86,-390.12 1409.34,-391.02 1409.61,-391.93 1409.68,-392.85 1409.56,-393.78 1409.25,-394.72 1408.76,-395.66 1408.1,-396.61 1407.26,-397.55 1406.27,-398.49 1405.13,-399.42 1403.84,-400.34 1402.42,-401.25 1400.87,-402.15 1399.21,-403.03 1397.43,-403.89 1395.56,-404.73 1393.59,-405.54 1391.54,-406.33 1389.41,-407.1 1387.22,-407.83 1384.96,-408.53 1382.65,-409.2 1380.29,-409.83 1377.89,-410.42 1375.45,-410.97 1372.98,-411.49 1370.48,-411.96 1367.95,-412.39 1365.41,-412.77 1362.85,-413.11 1360.28,-413.4 1357.7,-413.64 1355.11,-413.84 1352.51,-413.99 1349.91,-414.09 1347.3,-414.13 1344.7,-414.13 1342.09,-414.09 1339.49,-413.99 1336.89,-413.84 1334.3,-413.64 1331.72,-413.4 1329.15,-413.11 1326.59,-412.77 1324.05,-412.39 1321.52,-411.96 1319.02,-411.49 1316.55,-410.97 1314.11,-410.42 1311.71,-409.83 1309.35,-409.2 1307.04,-408.53 1304.78,-407.83 1302.59,-407.1 1300.46,-406.33 1298.41,-405.54 1296.44,-404.73 1294.57,-403.89 1292.79,-403.03 1291.13,-402.15 1289.58,-401.25 1288.16,-400.34 1286.87,-399.42 1285.73,-398.49 1284.74,-397.55 1283.9,-396.61 1283.24,-395.66 1282.75,-394.72 1282.44,-393.78 1282.32,-392.85 1282.39,-391.93 1282.66,-391.02 1283.14,-390.12 1283.82,-389.24 1284.7,-388.38 1285.79,-387.54 1287.1,-386.73 1288.61,-385.94 1290.32,-385.17 1292.24,-384.44 1294.36,-383.74 1296.67,-383.07 1299.17,-382.44 1301.85,-381.85 1304.7,-381.3 1307.71,-380.78 1310.88,-380.31 1314.18,-379.88 1317.61,-379.5 1321.16,-379.16 1324.81,-378.87 1328.54,-378.63 1332.34,-378.43 1336.21,-378.28 1340.11,-378.18 1344.03,-378.13 1347.97,-378.13 1351.89,-378.18"/>
<text text-anchor="middle" x="1346" y="-393.03" font-family="Times,serif" font-size="12.00">UnitTestMain</text>
</g>
<!-- node1&#45;&gt;node1 -->
<g id="edge8" class="edge">
<title>node1&#45;&gt;node1</title>
<path fill="none" stroke="black" d="M1399.75,-402.86C1415.44,-402.63 1427.59,-400.39 1427.59,-396.13 1427.59,-393.9 1424.23,-392.22 1418.75,-391.09"/>
<polygon fill="black" stroke="black" points="1418.97,-387.59 1408.6,-389.78 1418.07,-394.53 1418.97,-387.59"/>
</g>
<!-- node2 -->
<g id="node11" class="node">
<title>node2</title>
<polygon fill="none" stroke="black" points="2013.96,-303.66 2013.96,-318.57 1990.55,-329.11 1957.45,-329.11 1934.04,-318.57 1934.04,-303.66 1957.45,-293.11 1990.55,-293.11 2013.96,-303.66"/>
<polygon fill="none" stroke="black" points="2017.96,-301.07 2017.96,-321.15 1991.41,-333.11 1956.59,-333.11 1930.04,-321.15 1930.04,-301.07 1956.59,-289.11 1991.41,-289.11 2017.96,-301.07"/>
<text text-anchor="middle" x="1974" y="-308.01" font-family="Times,serif" font-size="12.00">XXX&#45;lib</text>
</g>
<!-- node1&#45;&gt;node2 -->
<g id="edge29" class="edge">
<title>node1&#45;&gt;node2</title>
<path fill="none" stroke="black" stroke-dasharray="1,5" d="M1405.93,-387.21C1527.8,-371.1 1802.84,-334.74 1919.76,-319.28"/>
<polygon fill="black" stroke="black" points="1920.45,-322.72 1929.91,-317.94 1919.54,-315.78 1920.45,-322.72"/>
</g>
<!-- node18 -->
<g id="node27" class="node">
<title>node18</title>
<polygon fill="none" stroke="black" points="850.06,-189.28 850.06,-210.85 790.86,-226.11 707.14,-226.11 647.94,-210.85 647.94,-189.28 707.14,-174.03 790.86,-174.03 850.06,-189.28"/>
<polygon fill="none" stroke="black" points="854.06,-186.18 854.06,-213.96 791.37,-230.11 706.63,-230.11 643.94,-213.96 643.94,-186.18 706.63,-170.02 791.37,-170.02 854.06,-186.18"/>
<text text-anchor="middle" x="749" y="-203.47" font-family="Times,serif" font-size="12.00">gtest_main</text>
<text text-anchor="middle" x="749" y="-190.47" font-family="Times,serif" font-size="12.00">(GTest::gtest_main)</text>
</g>
<!-- node1&#45;&gt;node18 -->
<g id="edge33" class="edge">
<title>node1&#45;&gt;node18</title>
<path fill="none" stroke="black" stroke-dasharray="1,5" d="M1282.31,-392.03C1176.8,-386.12 970.83,-371.07 905,-341.13 853.47,-317.7 806.97,-271.04 778.41,-238.03"/>
<polygon fill="black" stroke="black" points="781.04,-235.72 771.89,-230.37 775.71,-240.25 781.04,-235.72"/>
</g>
<!-- node2&#45;&gt;node0 -->
<g id="edge10" class="edge">
<title>node2&#45;&gt;node0</title>
<path fill="none" stroke="black" d="M2014.14,-299.08C2066.18,-284.52 2159.56,-257.52 2238,-230.09 2249.65,-226.02 2262.19,-221.2 2273.52,-216.67"/>
<polygon fill="black" stroke="black" points="2275.17,-219.78 2283.13,-212.79 2272.55,-213.29 2275.17,-219.78"/>
</g>
<!-- node3 -->
<g id="node12" class="node">
<title>node3</title>
<polygon fill="none" stroke="black" points="1855.78,-99.02 1842.36,-114.25 1788,-121.02 1733.64,-114.25 1720.22,-99.02 1757.83,-86.81 1818.17,-86.81 1855.78,-99.02"/>
<text text-anchor="middle" x="1788" y="-99.92" font-family="Times,serif" font-size="12.00">CURL::libcurl</text>
</g>
<!-- node2&#45;&gt;node3 -->
<g id="edge9" class="edge">
<title>node2&#45;&gt;node3</title>
<path fill="none" stroke="black" d="M1929.85,-304.91C1885.48,-297.07 1819.32,-277.65 1788,-230.09 1768.56,-200.56 1773.65,-158.09 1780.06,-130.78"/>
<polygon fill="black" stroke="black" points="1783.53,-131.32 1782.63,-120.77 1776.75,-129.59 1783.53,-131.32"/>
</g>
<!-- node4 -->
<g id="node13" class="node">
<title>node4</title>
<polygon fill="none" stroke="black" points="2489.87,-205.63 2442,-218.07 2394.13,-205.63 2412.41,-185.51 2471.59,-185.51 2489.87,-205.63"/>
<text text-anchor="middle" x="2442" y="-196.97" font-family="Times,serif" font-size="12.00">cppzmq</text>
</g>
<!-- node2&#45;&gt;node4 -->
<g id="edge15" class="edge">
<title>node2&#45;&gt;node4</title>
<path fill="none" stroke="black" d="M2018.24,-305.59C2094.7,-296.88 2255.78,-274.59 2385,-230.09 2394.41,-226.85 2404.21,-222.32 2412.98,-217.81"/>
<polygon fill="black" stroke="black" points="2414.86,-220.77 2422.03,-212.97 2411.56,-214.6 2414.86,-220.77"/>
</g>
<!-- node9 -->
<g id="node18" class="node">
<title>node9</title>
<polygon fill="none" stroke="black" points="2033.18,-189.28 2033.18,-210.85 1965.12,-226.11 1868.88,-226.11 1800.82,-210.85 1800.82,-189.28 1868.88,-174.03 1965.12,-174.03 2033.18,-189.28"/>
<polygon fill="none" stroke="black" points="2037.17,-186.07 2037.17,-214.06 1965.56,-230.11 1868.44,-230.11 1796.83,-214.06 1796.83,-186.07 1868.44,-170.02 1965.56,-170.02 2037.17,-186.07"/>
<text text-anchor="middle" x="1917" y="-203.47" font-family="Times,serif" font-size="12.00">pull</text>
<text text-anchor="middle" x="1917" y="-190.47" font-family="Times,serif" font-size="12.00">(prometheus&#45;cpp::pull)</text>
</g>
<!-- node2&#45;&gt;node9 -->
<g id="edge21" class="edge">
<title>node2&#45;&gt;node9</title>
<path fill="none" stroke="black" d="M1963.01,-289.09C1955.64,-274.99 1945.72,-256.01 1936.98,-239.29"/>
<polygon fill="black" stroke="black" points="1940,-237.51 1932.27,-230.27 1933.8,-240.76 1940,-237.51"/>
</g>
<!-- node14 -->
<g id="node23" class="node">
<title>node14</title>
<polygon fill="none" stroke="black" points="2224.81,-189.28 2224.81,-210.85 2176.3,-226.11 2107.7,-226.11 2059.19,-210.85 2059.19,-189.28 2107.7,-174.03 2176.3,-174.03 2224.81,-189.28"/>
<polygon fill="none" stroke="black" points="2228.82,-186.34 2228.82,-213.79 2176.92,-230.11 2107.08,-230.11 2055.18,-213.79 2055.18,-186.34 2107.08,-170.02 2176.92,-170.02 2228.82,-186.34"/>
<text text-anchor="middle" x="2142" y="-203.47" font-family="Times,serif" font-size="12.00">sentry</text>
<text text-anchor="middle" x="2142" y="-190.47" font-family="Times,serif" font-size="12.00">(sentry::sentry)</text>
</g>
<!-- node2&#45;&gt;node14 -->
<g id="edge26" class="edge">
<title>node2&#45;&gt;node14</title>
<path fill="none" stroke="black" d="M2000.25,-293.07C2024.61,-277.26 2061.52,-253.3 2091.58,-233.8"/>
<polygon fill="black" stroke="black" points="2093.77,-236.54 2100.26,-228.16 2089.96,-230.67 2093.77,-236.54"/>
</g>
<!-- node17 -->
<g id="node26" class="node">
<title>node17</title>
<polygon fill="none" stroke="black" points="1295.47,-189.28 1295.47,-210.85 1244.82,-226.11 1173.18,-226.11 1122.53,-210.85 1122.53,-189.28 1173.18,-174.03 1244.82,-174.03 1295.47,-189.28"/>
<polygon fill="none" stroke="black" points="1299.47,-186.3 1299.47,-213.83 1245.41,-230.11 1172.59,-230.11 1118.53,-213.83 1118.53,-186.3 1172.59,-170.02 1245.41,-170.02 1299.47,-186.3"/>
<text text-anchor="middle" x="1209" y="-203.47" font-family="Times,serif" font-size="12.00">spdlog</text>
<text text-anchor="middle" x="1209" y="-190.47" font-family="Times,serif" font-size="12.00">(spdlog::spdlog)</text>
</g>
<!-- node2&#45;&gt;node17 -->
<g id="edge28" class="edge">
<title>node2&#45;&gt;node17</title>
<path fill="none" stroke="black" d="M1929.74,-304.62C1831.21,-292.28 1586.32,-261.03 1382,-230.09 1356.48,-226.23 1328.9,-221.74 1303.41,-217.47"/>
<polygon fill="black" stroke="black" points="1303.83,-213.99 1293.39,-215.78 1302.67,-220.89 1303.83,-213.99"/>
</g>
<!-- node5 -->
<g id="node14" class="node">
<title>node5</title>
<polygon fill="none" stroke="black" points="2842.15,-95.57 2842.15,-110.48 2820.39,-121.02 2789.61,-121.02 2767.85,-110.48 2767.85,-95.57 2789.61,-85.02 2820.39,-85.02 2842.15,-95.57"/>
<polygon fill="none" stroke="black" points="2846.13,-93.06 2846.13,-112.99 2821.3,-125.02 2788.7,-125.02 2763.87,-112.99 2763.87,-93.06 2788.7,-81.02 2821.3,-81.02 2846.13,-93.06"/>
<text text-anchor="middle" x="2805" y="-99.92" font-family="Times,serif" font-size="12.00">libzmq</text>
</g>
<!-- node4&#45;&gt;node5 -->
<g id="edge14" class="edge">
<title>node4&#45;&gt;node5</title>
<path fill="none" stroke="black" stroke-dasharray="5,2" d="M2463.64,-185.5C2473.95,-179.71 2486.71,-173.5 2499,-170.04 2599.42,-141.83 2634.41,-186.09 2733,-152.04 2748.12,-146.82 2763.11,-137.64 2775.47,-128.7"/>
<polygon fill="black" stroke="black" points="2777.69,-131.41 2783.57,-122.59 2773.48,-125.81 2777.69,-131.41"/>
</g>
<!-- node6 -->
<g id="node15" class="node">
<title>node6</title>
<polygon fill="none" stroke="black" points="2832,-13.99 2826.65,-29.22 2805,-36 2783.35,-29.22 2778,-13.99 2792.98,-1.78 2817.02,-1.78 2832,-13.99"/>
<text text-anchor="middle" x="2805" y="-14.9" font-family="Times,serif" font-size="12.00">&#45;lrt</text>
</g>
<!-- node5&#45;&gt;node6 -->
<g id="edge11" class="edge">
<title>node5&#45;&gt;node6</title>
<path fill="none" stroke="black" d="M2805,-80.64C2805,-70.16 2805,-57.41 2805,-46.23"/>
<polygon fill="black" stroke="black" points="2808.5,-46.13 2805,-36.13 2801.5,-46.13 2808.5,-46.13"/>
</g>
<!-- node7 -->
<g id="node16" class="node">
<title>node7</title>
<polygon fill="none" stroke="black" points="3173.86,-13.99 3141.8,-29.22 3012,-36 2882.2,-29.22 2850.14,-13.99 2939.97,-1.78 3084.03,-1.78 3173.86,-13.99"/>
<text text-anchor="middle" x="3012" y="-14.9" font-family="Times,serif" font-size="12.00">/usr/lib/x86_64&#45;linux&#45;gnu/libgnutls.so</text>
</g>
<!-- node5&#45;&gt;node7 -->
<g id="edge12" class="edge">
<title>node5&#45;&gt;node7</title>
<path fill="none" stroke="black" d="M2837.8,-88.87C2872.06,-75.13 2926.12,-53.44 2964.93,-37.88"/>
<polygon fill="black" stroke="black" points="2966.47,-41.03 2974.45,-34.06 2963.86,-34.54 2966.47,-41.03"/>
</g>
<!-- node8 -->
<g id="node17" class="node">
<title>node8</title>
<polygon fill="none" stroke="black" points="2759.88,-18 2738.94,-36 2697.06,-36 2676.12,-18 2697.06,0 2738.94,0 2759.88,-18"/>
<text text-anchor="middle" x="2718" y="-14.9" font-family="Times,serif" font-size="12.00">objects</text>
</g>
<!-- node5&#45;&gt;node8 -->
<g id="edge13" class="edge">
<title>node5&#45;&gt;node8</title>
<path fill="none" stroke="black" d="M2784.82,-82.77C2772.49,-70.99 2756.6,-55.83 2743.41,-43.24"/>
<polygon fill="black" stroke="black" points="2745.65,-40.55 2736,-36.18 2740.82,-45.61 2745.65,-40.55"/>
</g>
<!-- node10 -->
<g id="node19" class="node">
<title>node10</title>
<polygon fill="none" stroke="black" points="1222.68,-23.56 1129,-36 1035.32,-23.56 1071.1,-3.44 1186.9,-3.44 1222.68,-23.56"/>
<text text-anchor="middle" x="1129" y="-14.9" font-family="Times,serif" font-size="12.00">Threads::Threads</text>
</g>
<!-- node9&#45;&gt;node10 -->
<g id="edge16" class="edge">
<title>node9&#45;&gt;node10</title>
<path fill="none" stroke="black" stroke-dasharray="1,5" d="M1908.86,-169.94C1898.88,-136.52 1881.3,-84.8 1865,-73 1814.52,-36.47 1415.71,-24.28 1227.15,-20.53"/>
<polygon fill="black" stroke="black" points="1227.03,-17.02 1216.96,-20.33 1226.89,-24.02 1227.03,-17.02"/>
</g>
<!-- node11 -->
<g id="node20" class="node">
<title>node11</title>
<polygon fill="none" stroke="black" points="2210.34,-103.02 2135.67,-130.55 1986.33,-130.55 1911.66,-103.02 1986.33,-75.5 2135.67,-75.5 2210.34,-103.02"/>
<text text-anchor="middle" x="2061" y="-106.42" font-family="Times,serif" font-size="12.00">civetweb</text>
<text text-anchor="middle" x="2061" y="-93.42" font-family="Times,serif" font-size="12.00">(prometheus&#45;cpp::civetweb)</text>
</g>
<!-- node9&#45;&gt;node11 -->
<g id="edge17" class="edge">
<title>node9&#45;&gt;node11</title>
<path fill="none" stroke="black" stroke-dasharray="1,5" d="M1960.99,-170.03C1977.19,-159.34 1995.63,-147.17 2012.22,-136.22"/>
<polygon fill="black" stroke="black" points="2014.3,-139.04 2020.71,-130.61 2010.44,-133.2 2014.3,-139.04"/>
</g>
<!-- node12 -->
<g id="node21" class="node">
<title>node12</title>
<polygon fill="none" stroke="black" points="1420.32,-92.24 1420.32,-113.81 1349.84,-129.06 1250.16,-129.06 1179.68,-113.81 1179.68,-92.24 1250.16,-76.98 1349.84,-76.98 1420.32,-92.24"/>
<polygon fill="none" stroke="black" points="1424.33,-89.01 1424.33,-117.04 1350.27,-133.07 1249.73,-133.07 1175.67,-117.04 1175.67,-89.01 1249.73,-72.98 1350.27,-72.98 1424.33,-89.01"/>
<text text-anchor="middle" x="1300" y="-106.42" font-family="Times,serif" font-size="12.00">core</text>
<text text-anchor="middle" x="1300" y="-93.42" font-family="Times,serif" font-size="12.00">(prometheus&#45;cpp::core)</text>
</g>
<!-- node9&#45;&gt;node12 -->
<g id="edge19" class="edge">
<title>node9&#45;&gt;node12</title>
<path fill="none" stroke="black" d="M1798.74,-185.59C1700.49,-173.76 1557.22,-155.03 1433,-133.04 1422.11,-131.12 1410.76,-128.92 1399.48,-126.63"/>
<polygon fill="black" stroke="black" points="1400.09,-123.18 1389.59,-124.59 1398.68,-130.04 1400.09,-123.18"/>
</g>
<!-- node13 -->
<g id="node22" class="node">
<title>node13</title>
<polygon fill="none" stroke="black" points="1702.46,-112.27 1572,-132.96 1441.54,-112.27 1491.37,-78.8 1652.63,-78.8 1702.46,-112.27"/>
<text text-anchor="middle" x="1572" y="-106.42" font-family="Times,serif" font-size="12.00">util</text>
<text text-anchor="middle" x="1572" y="-93.42" font-family="Times,serif" font-size="12.00">(prometheus&#45;cpp::util)</text>
</g>
<!-- node9&#45;&gt;node13 -->
<g id="edge20" class="edge">
<title>node9&#45;&gt;node13</title>
<path fill="none" stroke="black" stroke-dasharray="1,5" d="M1873.13,-169.91C1860.61,-162.73 1846.65,-155.77 1833,-151.04 1781.2,-133.13 1764.96,-142.65 1711,-133.04 1694.06,-130.03 1676.02,-126.5 1658.75,-122.96"/>
<polygon fill="black" stroke="black" points="1659.18,-119.48 1648.68,-120.88 1657.76,-126.33 1659.18,-119.48"/>
</g>
<!-- node12&#45;&gt;node10 -->
<g id="edge18" class="edge">
<title>node12&#45;&gt;node10</title>
<path fill="none" stroke="black" stroke-dasharray="1,5" d="M1243.06,-74.38C1217.73,-62.08 1188.61,-47.94 1166.14,-37.03"/>
<polygon fill="black" stroke="black" points="1167.47,-33.79 1156.95,-32.57 1164.41,-40.08 1167.47,-33.79"/>
</g>
<!-- node14&#45;&gt;node3 -->
<g id="edge22" class="edge">
<title>node14&#45;&gt;node3</title>
<path fill="none" stroke="black" stroke-dasharray="1,5" d="M2077.56,-179.17C2067.04,-176.04 2056.23,-172.9 2046,-170.04 2026.5,-164.61 1912.93,-135.71 1843.13,-117.99"/>
<polygon fill="black" stroke="black" points="1843.72,-114.53 1833.16,-115.47 1841.99,-121.32 1843.72,-114.53"/>
</g>
<!-- node14&#45;&gt;node10 -->
<g id="edge23" class="edge">
<title>node14&#45;&gt;node10</title>
<path fill="none" stroke="black" stroke-dasharray="1,5" d="M2185.55,-172.58C2198.82,-162.07 2211.79,-148.72 2219,-133.04 2230.15,-108.8 2237.4,-92.33 2219,-73 2185.08,-37.36 1488.54,-24.01 1227.05,-20.23"/>
<polygon fill="black" stroke="black" points="1226.85,-16.73 1216.8,-20.09 1226.75,-23.73 1226.85,-16.73"/>
</g>
<!-- node15 -->
<g id="node24" class="node">
<title>node15</title>
<polygon fill="none" stroke="black" points="2674,-99.02 2668.65,-114.25 2647,-121.02 2625.35,-114.25 2620,-99.02 2634.98,-86.81 2659.02,-86.81 2674,-99.02"/>
<text text-anchor="middle" x="2647" y="-99.92" font-family="Times,serif" font-size="12.00">dl</text>
</g>
<!-- node14&#45;&gt;node15 -->
<g id="edge24" class="edge">
<title>node14&#45;&gt;node15</title>
<path fill="none" stroke="black" stroke-dasharray="1,5" d="M2203.64,-178.31C2214.65,-175.15 2226.09,-172.23 2237,-170.04 2400.78,-137.26 2456.42,-196.33 2611,-133.04 2616.39,-130.84 2621.61,-127.56 2626.33,-123.98"/>
<polygon fill="black" stroke="black" points="2628.78,-126.5 2634.21,-117.4 2624.29,-121.13 2628.78,-126.5"/>
</g>
<!-- node16 -->
<g id="node25" class="node">
<title>node16</title>
<polygon fill="none" stroke="black" points="2746,-99.02 2740.65,-114.25 2719,-121.02 2697.35,-114.25 2692,-99.02 2706.98,-86.81 2731.02,-86.81 2746,-99.02"/>
<text text-anchor="middle" x="2719" y="-99.92" font-family="Times,serif" font-size="12.00">rt</text>
</g>
<!-- node14&#45;&gt;node16 -->
<g id="edge25" class="edge">
<title>node14&#45;&gt;node16</title>
<path fill="none" stroke="black" stroke-dasharray="1,5" d="M2202.79,-178.12C2214.05,-174.92 2225.79,-172.03 2237,-170.04 2382.51,-144.27 2422.12,-168.22 2569,-152.04 2620.06,-146.42 2636.14,-154.08 2683,-133.04 2688.31,-130.66 2693.5,-127.3 2698.21,-123.71"/>
<polygon fill="black" stroke="black" points="2700.65,-126.23 2706.1,-117.15 2696.17,-120.85 2700.65,-126.23"/>
</g>
<!-- node17&#45;&gt;node10 -->
<g id="edge27" class="edge">
<title>node17&#45;&gt;node10</title>
<path fill="none" stroke="black" d="M1155.53,-174.87C1146.97,-168.65 1139.23,-161.09 1134,-152.04 1115.02,-119.22 1118.31,-73.83 1123.13,-45.46"/>
<polygon fill="black" stroke="black" points="1126.59,-45.96 1125,-35.48 1119.71,-44.66 1126.59,-45.96"/>
</g>
<!-- node18&#45;&gt;node10 -->
<g id="edge30" class="edge">
<title>node18&#45;&gt;node10</title>
<path fill="none" stroke="black" d="M762.54,-170.04C777.81,-140.69 805.49,-96.43 843,-73 876.41,-52.13 975.21,-36.65 1047.36,-27.74"/>
<polygon fill="black" stroke="black" points="1047.85,-31.2 1057.35,-26.52 1047,-24.26 1047.85,-31.2"/>
</g>
<!-- node19 -->
<g id="node28" class="node">
<title>node19</title>
<polygon fill="none" stroke="black" points="1002.45,-92.24 1002.45,-113.81 959.42,-129.06 898.58,-129.06 855.55,-113.81 855.55,-92.24 898.58,-76.98 959.42,-76.98 1002.45,-92.24"/>
<polygon fill="none" stroke="black" points="1006.45,-89.41 1006.45,-116.64 960.11,-133.07 897.89,-133.07 851.55,-116.64 851.55,-89.41 897.89,-72.98 960.11,-72.98 1006.45,-89.41"/>
<text text-anchor="middle" x="929" y="-106.42" font-family="Times,serif" font-size="12.00">gtest</text>
<text text-anchor="middle" x="929" y="-93.42" font-family="Times,serif" font-size="12.00">(GTest::gtest)</text>
</g>
<!-- node18&#45;&gt;node19 -->
<g id="edge32" class="edge">
<title>node18&#45;&gt;node19</title>
<path fill="none" stroke="black" d="M800.1,-172.09C823.32,-159.82 850.83,-145.3 874.45,-132.82"/>
<polygon fill="black" stroke="black" points="876.09,-135.92 883.3,-128.15 872.82,-129.73 876.09,-135.92"/>
</g>
<!-- node19&#45;&gt;node10 -->
<g id="edge31" class="edge">
<title>node19&#45;&gt;node10</title>
<path fill="none" stroke="black" d="M972.22,-77.23C987.09,-69.24 1004.03,-60.72 1020,-54 1038.4,-46.26 1059.15,-39.21 1077.56,-33.49"/>
<polygon fill="black" stroke="black" points="1078.69,-36.8 1087.23,-30.54 1076.65,-30.11 1078.69,-36.8"/>
</g>
<!-- node20 -->
<g id="node29" class="node">
<title>node20</title>
<polygon fill="none" stroke="black" points="2379.68,-378.18 2381.46,-378.28 2383.22,-378.43 2384.95,-378.63 2386.65,-378.87 2388.31,-379.16 2389.92,-379.5 2391.48,-379.88 2392.99,-380.31 2394.43,-380.78 2395.8,-381.3 2397.1,-381.85 2398.32,-382.44 2399.45,-383.07 2400.51,-383.74 2401.47,-384.44 2402.35,-385.17 2403.13,-385.94 2403.81,-386.73 2404.41,-387.54 2404.91,-388.38 2405.31,-389.24 2405.62,-390.12 2405.83,-391.02 2405.96,-391.93 2405.99,-392.85 2405.93,-393.78 2405.79,-394.72 2405.57,-395.66 2405.27,-396.61 2404.89,-397.55 2404.44,-398.49 2403.92,-399.42 2403.33,-400.34 2402.69,-401.25 2401.98,-402.15 2401.22,-403.03 2400.41,-403.89 2399.56,-404.73 2398.67,-405.54 2397.73,-406.33 2396.76,-407.1 2395.76,-407.83 2394.74,-408.53 2393.68,-409.2 2392.61,-409.83 2391.52,-410.42 2390.41,-410.97 2389.28,-411.49 2388.14,-411.96 2386.99,-412.39 2385.84,-412.77 2384.67,-413.11 2383.5,-413.4 2382.33,-413.64 2381.15,-413.84 2379.96,-413.99 2378.78,-414.09 2377.59,-414.13 2376.41,-414.13 2375.22,-414.09 2374.04,-413.99 2372.85,-413.84 2371.67,-413.64 2370.5,-413.4 2369.33,-413.11 2368.16,-412.77 2367.01,-412.39 2365.86,-411.96 2364.72,-411.49 2363.59,-410.97 2362.48,-410.42 2361.39,-409.83 2360.32,-409.2 2359.26,-408.53 2358.24,-407.83 2357.24,-407.1 2356.27,-406.33 2355.33,-405.54 2354.44,-404.73 2353.59,-403.89 2352.78,-403.03 2352.02,-402.15 2351.31,-401.25 2350.67,-400.34 2350.08,-399.42 2349.56,-398.49 2349.11,-397.55 2348.73,-396.61 2348.43,-395.66 2348.21,-394.72 2348.07,-393.78 2348.01,-392.85 2348.04,-391.93 2348.17,-391.02 2348.38,-390.12 2348.69,-389.24 2349.09,-388.38 2349.59,-387.54 2350.19,-386.73 2350.87,-385.94 2351.65,-385.17 2352.53,-384.44 2353.49,-383.74 2354.55,-383.07 2355.68,-382.44 2356.9,-381.85 2358.2,-381.3 2359.57,-380.78 2361.01,-380.31 2362.52,-379.88 2364.08,-379.5 2365.69,-379.16 2367.35,-378.87 2369.05,-378.63 2370.78,-378.43 2372.54,-378.28 2374.32,-378.18 2376.1,-378.13 2377.9,-378.13 2379.68,-378.18"/>
<text text-anchor="middle" x="2377" y="-393.03" font-family="Times,serif" font-size="12.00">XXX</text>
</g>
<!-- node20&#45;&gt;node2 -->
<g id="edge34" class="edge">
<title>node20&#45;&gt;node2</title>
<path fill="none" stroke="black" stroke-dasharray="1,5" d="M2348.66,-389.3C2282.05,-375.57 2114.63,-341.08 2027.92,-323.22"/>
<polygon fill="black" stroke="black" points="2028.52,-319.77 2018.01,-321.18 2027.1,-326.63 2028.52,-319.77"/>
</g>
<!-- node21 -->
<g id="node30" class="node">
<title>node21</title>
<polygon fill="none" stroke="black" points="2759.86,-300.32 2759.86,-321.9 2689.06,-337.16 2588.94,-337.16 2518.14,-321.9 2518.14,-300.32 2588.94,-285.07 2689.06,-285.07 2759.86,-300.32"/>
<text text-anchor="middle" x="2639" y="-314.51" font-family="Times,serif" font-size="12.00">backward</text>
<text text-anchor="middle" x="2639" y="-301.51" font-family="Times,serif" font-size="12.00">(Backward::Backward)</text>
</g>
<!-- node20&#45;&gt;node21 -->
<g id="edge36" class="edge">
<title>node20&#45;&gt;node21</title>
<path fill="none" stroke="black" stroke-dasharray="1,5" d="M2404.05,-386.56C2440.98,-374.86 2508.65,-353.42 2561.92,-336.54"/>
<polygon fill="black" stroke="black" points="2563.21,-339.8 2571.69,-333.44 2561.1,-333.13 2563.21,-339.8"/>
</g>
<!-- node22 -->
<g id="node31" class="node">
<title>node22</title>
<polygon fill="none" stroke="black" points="2770.21,-209.32 2639,-230 2507.79,-209.32 2557.91,-175.85 2720.09,-175.85 2770.21,-209.32"/>
<text text-anchor="middle" x="2639" y="-203.47" font-family="Times,serif" font-size="12.00">backward_interface</text>
<text text-anchor="middle" x="2639" y="-190.47" font-family="Times,serif" font-size="12.00">(Backward::Interface)</text>
</g>
<!-- node21&#45;&gt;node22 -->
<g id="edge35" class="edge">
<title>node21&#45;&gt;node22</title>
<path fill="none" stroke="black" d="M2639,-284.82C2639,-271.66 2639,-255.27 2639,-240.49"/>
<polygon fill="black" stroke="black" points="2642.5,-240.07 2639,-230.07 2635.5,-240.07 2642.5,-240.07"/>
</g>
<!-- node23 -->
<g id="node32" class="node">
<title>node23</title>
<polygon fill="none" stroke="black" points="2500.32,-311.11 2445.66,-338.64 2336.34,-338.64 2281.68,-311.11 2336.34,-283.59 2445.66,-283.59 2500.32,-311.11"/>
<text text-anchor="middle" x="2391" y="-314.51" font-family="Times,serif" font-size="12.00">backward_object</text>
<text text-anchor="middle" x="2391" y="-301.51" font-family="Times,serif" font-size="12.00">(Backward::Object)</text>
</g>
<!-- node23&#45;&gt;node22 -->
<g id="edge37" class="edge">
<title>node23&#45;&gt;node22</title>
<path fill="none" stroke="black" d="M2448.52,-284.82C2488.39,-267.29 2541.29,-244.03 2581.22,-226.47"/>
<polygon fill="black" stroke="black" points="2582.81,-229.6 2590.56,-222.37 2579.99,-223.19 2582.81,-229.6"/>
</g>
<!-- node24 -->
<g id="node33" class="node">
<title>node24</title>
<polygon fill="none" stroke="black" points="2917.18,-401.7 2841,-414.13 2764.82,-401.7 2793.92,-381.57 2888.08,-381.57 2917.18,-401.7"/>
<text text-anchor="middle" x="2841" y="-393.03" font-family="Times,serif" font-size="12.00">cppzmq&#45;static</text>
</g>
<!-- node25 -->
<g id="node34" class="node">
<title>node25</title>
<polygon fill="none" stroke="black" points="2904.58,-307.11 2891.99,-322.34 2841,-329.11 2790.01,-322.34 2777.42,-307.11 2812.7,-294.89 2869.3,-294.89 2904.58,-307.11"/>
<text text-anchor="middle" x="2841" y="-308.01" font-family="Times,serif" font-size="12.00">libzmq&#45;static</text>
</g>
<!-- node24&#45;&gt;node25 -->
<g id="edge38" class="edge">
<title>node24&#45;&gt;node25</title>
<path fill="none" stroke="black" stroke-dasharray="5,2" d="M2841,-381.43C2841,-370.05 2841,-353.51 2841,-339.45"/>
<polygon fill="black" stroke="black" points="2844.5,-339.3 2841,-329.3 2837.5,-339.3 2844.5,-339.3"/>
</g>
<!-- node26 -->
<g id="node35" class="node">
<title>node26</title>
<polygon fill="none" stroke="black" points="1039.79,-189.28 1039.79,-210.85 991.88,-226.11 924.12,-226.11 876.21,-210.85 876.21,-189.28 924.12,-174.03 991.88,-174.03 1039.79,-189.28"/>
<polygon fill="none" stroke="black" points="1043.79,-186.35 1043.79,-213.78 992.5,-230.11 923.5,-230.11 872.21,-213.78 872.21,-186.35 923.5,-170.02 992.5,-170.02 1043.79,-186.35"/>
<text text-anchor="middle" x="958" y="-203.47" font-family="Times,serif" font-size="12.00">gmock</text>
<text text-anchor="middle" x="958" y="-190.47" font-family="Times,serif" font-size="12.00">(GTest::gmock)</text>
</g>
<!-- node26&#45;&gt;node10 -->
<g id="edge39" class="edge">
<title>node26&#45;&gt;node10</title>
<path fill="none" stroke="black" d="M985.52,-169.93C995.38,-158.81 1006.21,-145.75 1015,-133.04 1037.75,-100.16 1029.16,-81.7 1058,-54 1065.59,-46.71 1074.98,-40.66 1084.43,-35.74"/>
<polygon fill="black" stroke="black" points="1085.97,-38.89 1093.44,-31.38 1082.92,-32.59 1085.97,-38.89"/>
</g>
<!-- node26&#45;&gt;node19 -->
<g id="edge40" class="edge">
<title>node26&#45;&gt;node19</title>
<path fill="none" stroke="black" d="M949.14,-170.03C946.52,-161.45 943.62,-151.92 940.84,-142.83"/>
<polygon fill="black" stroke="black" points="944.17,-141.75 937.9,-133.21 937.48,-143.79 944.17,-141.75"/>
</g>
<!-- node27 -->
<g id="node36" class="node">
<title>node27</title>
<polygon fill="none" stroke="black" points="1136.4,-300.33 1136.4,-321.9 1072.31,-337.15 981.69,-337.15 917.6,-321.9 917.6,-300.33 981.69,-285.07 1072.31,-285.07 1136.4,-300.33"/>
<polygon fill="none" stroke="black" points="1140.39,-297.16 1140.39,-325.06 1072.78,-341.16 981.22,-341.16 913.61,-325.06 913.61,-297.16 981.22,-281.07 1072.78,-281.07 1140.39,-297.16"/>
<text text-anchor="middle" x="1027" y="-314.51" font-family="Times,serif" font-size="12.00">gmock_main</text>
<text text-anchor="middle" x="1027" y="-301.51" font-family="Times,serif" font-size="12.00">(GTest::gmock_main)</text>
</g>
<!-- node27&#45;&gt;node10 -->
<g id="edge41" class="edge">
<title>node27&#45;&gt;node10</title>
<path fill="none" stroke="black" d="M1037.25,-280.87C1057.18,-223.98 1100.88,-99.25 1119.88,-45.03"/>
<polygon fill="black" stroke="black" points="1123.23,-46.06 1123.23,-35.46 1116.62,-43.74 1123.23,-46.06"/>
</g>
<!-- node27&#45;&gt;node26 -->
<g id="edge42" class="edge">
<title>node27&#45;&gt;node26</title>
<path fill="none" stroke="black" d="M1008.51,-280.89C1000.39,-268.06 990.75,-252.82 982.07,-239.11"/>
<polygon fill="black" stroke="black" points="984.85,-236.95 976.54,-230.37 978.93,-240.69 984.85,-236.95"/>
</g>
<!-- node28 -->
<g id="node37" class="node">
<title>node28</title>
<polygon fill="none" stroke="black" points="1636.86,-189.28 1636.86,-210.85 1566.06,-226.11 1465.94,-226.11 1395.14,-210.85 1395.14,-189.28 1465.94,-174.03 1566.06,-174.03 1636.86,-189.28"/>
<polygon fill="none" stroke="black" points="1640.86,-186.05 1640.86,-214.09 1566.49,-230.11 1465.51,-230.11 1391.14,-214.09 1391.14,-186.05 1465.51,-170.02 1566.49,-170.02 1640.86,-186.05"/>
<text text-anchor="middle" x="1516" y="-203.47" font-family="Times,serif" font-size="12.00">push</text>
<text text-anchor="middle" x="1516" y="-190.47" font-family="Times,serif" font-size="12.00">(prometheus&#45;cpp::push)</text>
</g>
<!-- node28&#45;&gt;node3 -->
<g id="edge43" class="edge">
<title>node28&#45;&gt;node3</title>
<path fill="none" stroke="black" stroke-dasharray="1,5" d="M1589.36,-174.89C1626,-162.64 1670.95,-147.37 1711,-133.04 1722.03,-129.1 1733.89,-124.71 1744.92,-120.55"/>
<polygon fill="black" stroke="black" points="1746.24,-123.8 1754.36,-116.99 1743.77,-117.25 1746.24,-123.8"/>
</g>
<!-- node28&#45;&gt;node10 -->
<g id="edge44" class="edge">
<title>node28&#45;&gt;node10</title>
<path fill="none" stroke="black" stroke-dasharray="1,5" d="M1402.91,-183.48C1307.94,-169.45 1184.91,-148.69 1167,-133.04 1153.71,-121.44 1141.4,-75.42 1134.57,-45.51"/>
<polygon fill="black" stroke="black" points="1137.98,-44.68 1132.39,-35.68 1131.14,-46.2 1137.98,-44.68"/>
</g>
<!-- node28&#45;&gt;node12 -->
<g id="edge45" class="edge">
<title>node28&#45;&gt;node12</title>
<path fill="none" stroke="black" d="M1454.97,-172.21C1428.63,-160.62 1397.67,-147 1370.37,-134.99"/>
<polygon fill="black" stroke="black" points="1371.44,-131.64 1360.88,-130.81 1368.62,-138.04 1371.44,-131.64"/>
</g>
<!-- node28&#45;&gt;node13 -->
<g id="edge46" class="edge">
<title>node28&#45;&gt;node13</title>
<path fill="none" stroke="black" stroke-dasharray="1,5" d="M1533.11,-170.03C1538.83,-160.32 1545.27,-149.39 1551.24,-139.26"/>
<polygon fill="black" stroke="black" points="1554.27,-141 1556.33,-130.61 1548.24,-137.45 1554.27,-141"/>
</g>
<!-- node29 -->
<g id="node38" class="node">
<title>node29</title>
<polygon fill="none" stroke="black" points="2601.63,-112.27 2434,-132.96 2266.37,-112.27 2330.4,-78.8 2537.6,-78.8 2601.63,-112.27"/>
<text text-anchor="middle" x="2434" y="-106.42" font-family="Times,serif" font-size="12.00">spdlog_header_only</text>
<text text-anchor="middle" x="2434" y="-93.42" font-family="Times,serif" font-size="12.00">(spdlog::spdlog_header_only)</text>
</g>
<!-- node29&#45;&gt;node10 -->
<g id="edge47" class="edge">
<title>node29&#45;&gt;node10</title>
<path fill="none" stroke="black" stroke-dasharray="5,2" d="M2361.28,-78.79C2328.28,-69.3 2288.54,-59.32 2252,-54 2055.26,-25.36 1459.81,-20.14 1225.35,-19.2"/>
<polygon fill="black" stroke="black" points="1225.14,-15.7 1215.13,-19.16 1225.12,-22.7 1225.14,-15.7"/>
</g>
</g>
</svg>
