<?xml version="1.0" encoding="UTF-8" standalone="no"?>
<!DOCTYPE svg PUBLIC "-//W3C//DTD SVG 1.1//EN"
 "http://www.w3.org/Graphics/SVG/1.1/DTD/svg11.dtd">
<!-- Generated by graphviz version 2.43.0 (0)
 -->
<!-- Title: XXX Pages: 1 -->
<svg width="2723pt" height="453pt"
 viewBox="0.00 0.00 2722.93 452.50" xmlns="http://www.w3.org/2000/svg" xmlns:xlink="http://www.w3.org/1999/xlink">
<g id="graph0" class="graph" transform="scale(1 1) rotate(0) translate(4 448.5)">
<title>XXX</title>
<polygon fill="white" stroke="transparent" points="-4,4 -4,-448.5 2718.93,-448.5 2718.93,4 -4,4"/>
<g id="clust1" class="cluster">
<title>clusterLegend</title>
<polygon fill="none" stroke="black" points="8,-169.46 8,-436.5 636,-436.5 636,-169.46 8,-169.46"/>
<text text-anchor="middle" x="322" y="-421.3" font-family="Times,serif" font-size="14.00">Legend</text>
</g>
<!-- legendNode0 -->
<g id="node1" class="node">
<title>legendNode0</title>
<polygon fill="none" stroke="black" points="324.03,-369.55 327.36,-369.65 330.65,-369.8 333.89,-369.99 337.08,-370.24 340.19,-370.53 343.22,-370.87 346.14,-371.25 348.96,-371.68 351.66,-372.15 354.23,-372.66 356.66,-373.22 358.95,-373.81 361.08,-374.44 363.05,-375.11 364.86,-375.81 366.5,-376.54 367.96,-377.3 369.25,-378.09 370.36,-378.91 371.29,-379.75 372.05,-380.61 372.63,-381.49 373.03,-382.39 373.26,-383.3 373.32,-384.22 373.22,-385.15 372.96,-386.09 372.54,-387.03 371.97,-387.97 371.26,-388.91 370.42,-389.85 369.44,-390.78 368.35,-391.71 367.13,-392.62 365.81,-393.51 364.39,-394.39 362.88,-395.25 361.28,-396.09 359.6,-396.91 357.85,-397.7 356.04,-398.46 354.16,-399.2 352.24,-399.9 350.27,-400.56 348.25,-401.19 346.2,-401.79 344.12,-402.34 342.01,-402.85 339.88,-403.33 337.73,-403.75 335.56,-404.14 333.38,-404.47 331.18,-404.77 328.98,-405.01 326.77,-405.21 324.55,-405.35 322.33,-405.45 320.11,-405.5 317.89,-405.5 315.67,-405.45 313.45,-405.35 311.23,-405.21 309.02,-405.01 306.82,-404.77 304.62,-404.47 302.44,-404.14 300.27,-403.75 298.12,-403.33 295.99,-402.85 293.88,-402.34 291.8,-401.79 289.75,-401.19 287.73,-400.56 285.76,-399.9 283.84,-399.2 281.96,-398.46 280.15,-397.7 278.4,-396.91 276.72,-396.09 275.12,-395.25 273.61,-394.39 272.19,-393.51 270.87,-392.62 269.65,-391.71 268.56,-390.78 267.58,-389.85 266.74,-388.91 266.03,-387.97 265.46,-387.03 265.04,-386.09 264.78,-385.15 264.68,-384.22 264.74,-383.3 264.97,-382.39 265.37,-381.49 265.95,-380.61 266.71,-379.75 267.64,-378.91 268.75,-378.09 270.04,-377.3 271.5,-376.54 273.14,-375.81 274.95,-375.11 276.92,-374.44 279.05,-373.81 281.34,-373.22 283.77,-372.66 286.34,-372.15 289.04,-371.68 291.86,-371.25 294.78,-370.87 297.81,-370.53 300.92,-370.24 304.11,-369.99 307.35,-369.8 310.64,-369.65 313.97,-369.55 317.32,-369.5 320.68,-369.5 324.03,-369.55"/>
<text text-anchor="middle" x="319" y="-384.4" font-family="Times,serif" font-size="12.00">Executable</text>
</g>
<!-- legendNode1 -->
<g id="node2" class="node">
<title>legendNode1</title>
<polygon fill="none" stroke="black" points="455.09,-291.02 455.09,-305.93 415.79,-316.48 360.21,-316.48 320.91,-305.93 320.91,-291.02 360.21,-280.48 415.79,-280.48 455.09,-291.02"/>
<text text-anchor="middle" x="388" y="-295.38" font-family="Times,serif" font-size="12.00">Static Library</text>
</g>
<!-- legendNode0&#45;&gt;legendNode1 -->
<g id="edge1" class="edge">
<title>legendNode0&#45;&gt;legendNode1</title>
<path fill="none" stroke="black" d="M332.3,-369.72C342.45,-356.92 356.6,-339.09 368.09,-324.59"/>
<polygon fill="black" stroke="black" points="371.03,-326.51 374.5,-316.5 365.55,-322.16 371.03,-326.51"/>
</g>
<!-- legendNode2 -->
<g id="node3" class="node">
<title>legendNode2</title>
<polygon fill="none" stroke="black" points="624.1,-291.02 624.1,-305.93 581.28,-316.48 520.72,-316.48 477.9,-305.93 477.9,-291.02 520.72,-280.48 581.28,-280.48 624.1,-291.02"/>
<polygon fill="none" stroke="black" points="628.09,-287.89 628.09,-309.07 581.76,-320.48 520.24,-320.48 473.91,-309.07 473.91,-287.89 520.24,-276.48 581.76,-276.48 628.09,-287.89"/>
<text text-anchor="middle" x="551" y="-295.38" font-family="Times,serif" font-size="12.00">Shared Library</text>
</g>
<!-- legendNode0&#45;&gt;legendNode2 -->
<g id="edge2" class="edge">
<title>legendNode0&#45;&gt;legendNode2</title>
<path fill="none" stroke="black" d="M355.51,-372.81C392.99,-358.75 451.82,-336.68 495.16,-320.42"/>
<polygon fill="black" stroke="black" points="496.58,-323.63 504.72,-316.84 494.12,-317.08 496.58,-323.63"/>
</g>
<!-- legendNode3 -->
<g id="node4" class="node">
<title>legendNode3</title>
<polygon fill="none" stroke="black" points="171.92,-291.02 171.92,-305.93 128.62,-316.48 67.38,-316.48 24.08,-305.93 24.08,-291.02 67.38,-280.48 128.62,-280.48 171.92,-291.02"/>
<polygon fill="none" stroke="black" points="175.92,-287.88 175.92,-309.08 129.1,-320.48 66.9,-320.48 20.08,-309.08 20.08,-287.88 66.9,-276.48 129.1,-276.48 175.92,-287.88"/>
<polygon fill="none" stroke="black" points="179.92,-284.74 179.92,-312.22 129.58,-324.48 66.42,-324.48 16.08,-312.22 16.08,-284.74 66.42,-272.48 129.58,-272.48 179.92,-284.74"/>
<text text-anchor="middle" x="98" y="-295.38" font-family="Times,serif" font-size="12.00">Module Library</text>
</g>
<!-- legendNode0&#45;&gt;legendNode3 -->
<!-- legendNode7 -->
<g id="node8" class="node">
<title>legendNode7</title>
<polygon fill="none" stroke="black" points="302.5,-316.48 197.5,-316.48 197.5,-280.48 302.5,-280.48 302.5,-316.48"/>
<text text-anchor="middle" x="250" y="-295.38" font-family="Times,serif" font-size="12.00">Custom Target</text>
</g>
<!-- legendNode0&#45;&gt;legendNode7 -->
<!-- legendNode4 -->
<g id="node5" class="node">
<title>legendNode4</title>
<polygon fill="none" stroke="black" points="459.14,-201.02 367,-213.46 274.86,-201.02 310.05,-180.89 423.95,-180.89 459.14,-201.02"/>
<text text-anchor="middle" x="367" y="-192.36" font-family="Times,serif" font-size="12.00">Interface Library</text>
</g>
<!-- legendNode1&#45;&gt;legendNode4 -->
<g id="edge4" class="edge">
<title>legendNode1&#45;&gt;legendNode4</title>
<path fill="none" stroke="black" stroke-dasharray="5,2" d="M384.44,-280.34C381.17,-264.62 376.28,-241.1 372.51,-222.96"/>
<polygon fill="black" stroke="black" points="375.9,-222.08 370.44,-213.01 369.05,-223.51 375.9,-222.08"/>
<text text-anchor="middle" x="411.5" y="-243.28" font-family="Times,serif" font-size="14.00">Interface</text>
</g>
<!-- legendNode5 -->
<g id="node6" class="node">
<title>legendNode5</title>
<polygon fill="none" stroke="black" points="626.77,-195.46 589.39,-213.46 514.61,-213.46 477.23,-195.46 514.61,-177.46 589.39,-177.46 626.77,-195.46"/>
<text text-anchor="middle" x="552" y="-192.36" font-family="Times,serif" font-size="12.00">Object Library</text>
</g>
<!-- legendNode2&#45;&gt;legendNode5 -->
<g id="edge5" class="edge">
<title>legendNode2&#45;&gt;legendNode5</title>
<path fill="none" stroke="black" stroke-dasharray="1,5" d="M551.21,-276.05C551.36,-260.76 551.57,-240.06 551.73,-223.6"/>
<polygon fill="black" stroke="black" points="555.23,-223.54 551.83,-213.5 548.23,-223.47 555.23,-223.54"/>
<text text-anchor="middle" x="578" y="-243.28" font-family="Times,serif" font-size="14.00">Private</text>
</g>
<!-- legendNode6 -->
<g id="node7" class="node">
<title>legendNode6</title>
<polygon fill="none" stroke="black" points="185.95,-191.45 169.12,-206.68 101,-213.46 32.88,-206.68 16.05,-191.45 63.2,-179.24 138.8,-179.24 185.95,-191.45"/>
<text text-anchor="middle" x="101" y="-192.36" font-family="Times,serif" font-size="12.00">Unknown Library</text>
</g>
<!-- legendNode3&#45;&gt;legendNode6 -->
<g id="edge6" class="edge">
<title>legendNode3&#45;&gt;legendNode6</title>
<path fill="none" stroke="black" d="M98.75,-272.25C99.19,-257.48 99.74,-238.83 100.19,-223.73"/>
<polygon fill="black" stroke="black" points="103.7,-223.56 100.5,-213.46 96.7,-223.35 103.7,-223.56"/>
</g>
<!-- node0 -->
<g id="node9" class="node">
<title>node0</title>
<polygon fill="none" stroke="black" points="1057.31,-369.55 1060.17,-369.65 1062.99,-369.8 1065.77,-369.99 1068.51,-370.24 1071.17,-370.53 1073.77,-370.87 1076.28,-371.25 1078.7,-371.68 1081.01,-372.15 1083.21,-372.66 1085.3,-373.22 1087.26,-373.81 1089.09,-374.44 1090.78,-375.11 1092.33,-375.81 1093.73,-376.54 1094.99,-377.3 1096.1,-378.09 1097.05,-378.91 1097.85,-379.75 1098.5,-380.61 1098.99,-381.49 1099.34,-382.39 1099.54,-383.3 1099.59,-384.22 1099.5,-385.15 1099.28,-386.09 1098.92,-387.03 1098.43,-387.97 1097.82,-388.91 1097.1,-389.85 1096.26,-390.78 1095.32,-391.71 1094.28,-392.62 1093.15,-393.51 1091.93,-394.39 1090.63,-395.25 1089.26,-396.09 1087.82,-396.91 1086.32,-397.7 1084.76,-398.46 1083.16,-399.2 1081.51,-399.9 1079.81,-400.56 1078.09,-401.19 1076.33,-401.79 1074.54,-402.34 1072.74,-402.85 1070.91,-403.33 1069.06,-403.75 1067.2,-404.14 1065.33,-404.47 1063.45,-404.77 1061.56,-405.01 1059.66,-405.21 1057.76,-405.35 1055.86,-405.45 1053.95,-405.5 1052.05,-405.5 1050.14,-405.45 1048.24,-405.35 1046.34,-405.21 1044.44,-405.01 1042.55,-404.77 1040.67,-404.47 1038.8,-404.14 1036.94,-403.75 1035.09,-403.33 1033.26,-402.85 1031.46,-402.34 1029.67,-401.79 1027.91,-401.19 1026.19,-400.56 1024.49,-399.9 1022.84,-399.2 1021.24,-398.46 1019.68,-397.7 1018.18,-396.91 1016.74,-396.09 1015.37,-395.25 1014.07,-394.39 1012.85,-393.51 1011.72,-392.62 1010.68,-391.71 1009.74,-390.78 1008.9,-389.85 1008.18,-388.91 1007.57,-387.97 1007.08,-387.03 1006.72,-386.09 1006.5,-385.15 1006.41,-384.22 1006.46,-383.3 1006.66,-382.39 1007.01,-381.49 1007.5,-380.61 1008.15,-379.75 1008.95,-378.91 1009.9,-378.09 1011.01,-377.3 1012.27,-376.54 1013.67,-375.81 1015.22,-375.11 1016.91,-374.44 1018.74,-373.81 1020.7,-373.22 1022.79,-372.66 1024.99,-372.15 1027.3,-371.68 1029.72,-371.25 1032.23,-370.87 1034.83,-370.53 1037.49,-370.24 1040.23,-369.99 1043.01,-369.8 1045.83,-369.65 1048.69,-369.55 1051.56,-369.5 1054.44,-369.5 1057.31,-369.55"/>
<text text-anchor="middle" x="1053" y="-384.4" font-family="Times,serif" font-size="12.00">TestMain</text>
</g>
<!-- node0&#45;&gt;node0 -->
<g id="edge8" class="edge">
<title>node0&#45;&gt;node0</title>
<path fill="none" stroke="black" d="M1090.14,-395.7C1105.04,-396.16 1117.54,-393.43 1117.54,-387.5 1117.54,-384.21 1113.69,-381.9 1107.72,-380.58"/>
<polygon fill="black" stroke="black" points="1108,-377.09 1097.65,-379.35 1107.15,-384.04 1108,-377.09"/>
</g>
<!-- node1 -->
<g id="node10" class="node">
<title>node1</title>
<polygon fill="none" stroke="black" points="1514.94,-291.02 1514.94,-305.93 1484.52,-316.48 1441.48,-316.48 1411.06,-305.93 1411.06,-291.02 1441.48,-280.48 1484.52,-280.48 1514.94,-291.02"/>
<text text-anchor="middle" x="1463" y="-295.38" font-family="Times,serif" font-size="12.00">XXX&#45;static</text>
</g>
<!-- node0&#45;&gt;node1 -->
<g id="edge27" class="edge">
<title>node0&#45;&gt;node1</title>
<path fill="none" stroke="black" stroke-dasharray="1,5" d="M1095.33,-377.52C1170.36,-361.59 1326.52,-328.45 1409.11,-310.92"/>
<polygon fill="black" stroke="black" points="1409.99,-314.31 1419.04,-308.81 1408.54,-307.46 1409.99,-314.31"/>
</g>
<!-- node17 -->
<g id="node26" class="node">
<title>node17</title>
<polygon fill="none" stroke="black" points="847.06,-184.67 847.06,-206.24 787.86,-221.5 704.14,-221.5 644.94,-206.24 644.94,-184.67 704.14,-169.41 787.86,-169.41 847.06,-184.67"/>
<text text-anchor="middle" x="746" y="-198.86" font-family="Times,serif" font-size="12.00">gtest_main</text>
<text text-anchor="middle" x="746" y="-185.86" font-family="Times,serif" font-size="12.00">(GTest::gtest_main)</text>
</g>
<!-- node0&#45;&gt;node17 -->
<g id="edge31" class="edge">
<title>node0&#45;&gt;node17</title>
<path fill="none" stroke="black" stroke-dasharray="1,5" d="M1028.65,-371.43C978.3,-340.26 861.85,-268.17 795.2,-226.91"/>
<polygon fill="black" stroke="black" points="796.88,-223.83 786.53,-221.55 793.19,-229.79 796.88,-223.83"/>
</g>
<!-- node2 -->
<g id="node11" class="node">
<title>node2</title>
<polygon fill="none" stroke="black" points="2265.18,-201.02 2189,-213.46 2112.82,-201.02 2141.92,-180.89 2236.08,-180.89 2265.18,-201.02"/>
<text text-anchor="middle" x="2189" y="-192.36" font-family="Times,serif" font-size="12.00">cppzmq&#45;static</text>
</g>
<!-- node1&#45;&gt;node2 -->
<g id="edge13" class="edge">
<title>node1&#45;&gt;node2</title>
<path fill="none" stroke="black" d="M1492.82,-283.23C1502.56,-279.13 1513.56,-275.07 1524,-272.48 1637.56,-244.33 1932.09,-237.38 2048,-221.48 2075.72,-217.68 2106.33,-212.38 2131.92,-207.64"/>
<polygon fill="black" stroke="black" points="2132.64,-211.06 2141.82,-205.78 2131.35,-204.18 2132.64,-211.06"/>
</g>
<!-- node7 -->
<g id="node16" class="node">
<title>node7</title>
<polygon fill="none" stroke="black" points="2039.17,-184.67 2039.17,-206.24 1971.12,-221.5 1874.88,-221.5 1806.83,-206.24 1806.83,-184.67 1874.88,-169.41 1971.12,-169.41 2039.17,-184.67"/>
<text text-anchor="middle" x="1923" y="-198.86" font-family="Times,serif" font-size="12.00">pull</text>
<text text-anchor="middle" x="1923" y="-185.86" font-family="Times,serif" font-size="12.00">(prometheus&#45;cpp::pull)</text>
</g>
<!-- node1&#45;&gt;node7 -->
<g id="edge18" class="edge">
<title>node1&#45;&gt;node7</title>
<path fill="none" stroke="black" d="M1493.6,-283.53C1503.19,-279.55 1513.91,-275.48 1524,-272.48 1619.62,-244.09 1731.39,-223.86 1812.27,-211.45"/>
<polygon fill="black" stroke="black" points="1813.11,-214.86 1822.47,-209.9 1812.06,-207.94 1813.11,-214.86"/>
</g>
<!-- node11 -->
<g id="node20" class="node">
<title>node11</title>
<polygon fill="none" stroke="black" points="1650.82,-184.67 1650.82,-206.24 1602.3,-221.5 1533.7,-221.5 1485.18,-206.24 1485.18,-184.67 1533.7,-169.41 1602.3,-169.41 1650.82,-184.67"/>
<text text-anchor="middle" x="1568" y="-198.86" font-family="Times,serif" font-size="12.00">sentry</text>
<text text-anchor="middle" x="1568" y="-185.86" font-family="Times,serif" font-size="12.00">(sentry::sentry)</text>
</g>
<!-- node1&#45;&gt;node11 -->
<g id="edge23" class="edge">
<title>node1&#45;&gt;node11</title>
<path fill="none" stroke="black" d="M1480.81,-280.34C1495.45,-266.25 1516.61,-245.9 1534.42,-228.77"/>
<polygon fill="black" stroke="black" points="1537.04,-231.11 1541.82,-221.65 1532.18,-226.06 1537.04,-231.11"/>
</g>
<!-- node15 -->
<g id="node24" class="node">
<title>node15</title>
<polygon fill="none" stroke="black" points="1038.47,-184.67 1038.47,-206.24 987.82,-221.5 916.18,-221.5 865.53,-206.24 865.53,-184.67 916.18,-169.41 987.82,-169.41 1038.47,-184.67"/>
<text text-anchor="middle" x="952" y="-198.86" font-family="Times,serif" font-size="12.00">spdlog</text>
<text text-anchor="middle" x="952" y="-185.86" font-family="Times,serif" font-size="12.00">(spdlog::spdlog)</text>
</g>
<!-- node1&#45;&gt;node15 -->
<g id="edge25" class="edge">
<title>node1&#45;&gt;node15</title>
<path fill="none" stroke="black" d="M1414.4,-289.84C1336.5,-277.33 1179.04,-250.88 1047,-221.48 1039.51,-219.81 1031.72,-217.96 1023.96,-216.03"/>
<polygon fill="black" stroke="black" points="1024.73,-212.62 1014.18,-213.57 1023.02,-219.4 1024.73,-212.62"/>
</g>
<!-- node16 -->
<g id="node25" class="node">
<title>node16</title>
<polygon fill="none" stroke="black" points="1467.52,-191.45 1457.91,-206.68 1419,-213.46 1380.09,-206.68 1370.48,-191.45 1397.41,-179.24 1440.59,-179.24 1467.52,-191.45"/>
<text text-anchor="middle" x="1419" y="-192.36" font-family="Times,serif" font-size="12.00">stdc++fs</text>
</g>
<!-- node1&#45;&gt;node16 -->
<g id="edge26" class="edge">
<title>node1&#45;&gt;node16</title>
<path fill="none" stroke="black" d="M1455.54,-280.34C1448.51,-264.21 1437.91,-239.87 1429.93,-221.55"/>
<polygon fill="black" stroke="black" points="1433.12,-220.11 1425.92,-212.34 1426.7,-222.91 1433.12,-220.11"/>
</g>
<!-- node3 -->
<g id="node12" class="node">
<title>node3</title>
<polygon fill="none" stroke="black" points="2407.93,-95.26 2407.93,-110.17 2371.65,-120.72 2320.35,-120.72 2284.07,-110.17 2284.07,-95.26 2320.35,-84.72 2371.65,-84.72 2407.93,-95.26"/>
<text text-anchor="middle" x="2346" y="-99.62" font-family="Times,serif" font-size="12.00">libzmq&#45;static</text>
</g>
<!-- node2&#45;&gt;node3 -->
<g id="edge12" class="edge">
<title>node2&#45;&gt;node3</title>
<path fill="none" stroke="black" stroke-dasharray="5,2" d="M2212.5,-180.87C2238.01,-166.13 2279.08,-142.39 2308.94,-125.14"/>
<polygon fill="black" stroke="black" points="2310.91,-128.04 2317.81,-120.01 2307.41,-121.98 2310.91,-128.04"/>
</g>
<!-- node4 -->
<g id="node13" class="node">
<title>node4</title>
<polygon fill="none" stroke="black" points="2373,-13.99 2367.65,-29.22 2346,-36 2324.35,-29.22 2319,-13.99 2333.98,-1.78 2358.02,-1.78 2373,-13.99"/>
<text text-anchor="middle" x="2346" y="-14.9" font-family="Times,serif" font-size="12.00">&#45;lrt</text>
</g>
<!-- node3&#45;&gt;node4 -->
<g id="edge9" class="edge">
<title>node3&#45;&gt;node4</title>
<path fill="none" stroke="black" d="M2346,-84.58C2346,-73.49 2346,-58.81 2346,-46.15"/>
<polygon fill="black" stroke="black" points="2349.5,-46.12 2346,-36.12 2342.5,-46.12 2349.5,-46.12"/>
</g>
<!-- node5 -->
<g id="node14" class="node">
<title>node5</title>
<polygon fill="none" stroke="black" points="2714.86,-13.99 2682.8,-29.22 2553,-36 2423.2,-29.22 2391.14,-13.99 2480.97,-1.78 2625.03,-1.78 2714.86,-13.99"/>
<text text-anchor="middle" x="2553" y="-14.9" font-family="Times,serif" font-size="12.00">/usr/lib/x86_64&#45;linux&#45;gnu/libgnutls.so</text>
</g>
<!-- node3&#45;&gt;node5 -->
<g id="edge10" class="edge">
<title>node3&#45;&gt;node5</title>
<path fill="none" stroke="black" d="M2381.58,-87.5C2415.75,-73.84 2467.6,-53.13 2505.33,-38.05"/>
<polygon fill="black" stroke="black" points="2507.09,-41.11 2515.08,-34.15 2504.5,-34.61 2507.09,-41.11"/>
</g>
<!-- node6 -->
<g id="node15" class="node">
<title>node6</title>
<polygon fill="none" stroke="black" points="2300.88,-18 2279.94,-36 2238.06,-36 2217.12,-18 2238.06,0 2279.94,0 2300.88,-18"/>
<text text-anchor="middle" x="2259" y="-14.9" font-family="Times,serif" font-size="12.00">objects</text>
</g>
<!-- node3&#45;&gt;node6 -->
<g id="edge11" class="edge">
<title>node3&#45;&gt;node6</title>
<path fill="none" stroke="black" d="M2327.97,-84.58C2315.38,-72.6 2298.38,-56.44 2284.41,-43.15"/>
<polygon fill="black" stroke="black" points="2286.66,-40.47 2277,-36.12 2281.84,-45.54 2286.66,-40.47"/>
</g>
<!-- node8 -->
<g id="node17" class="node">
<title>node8</title>
<polygon fill="none" stroke="black" points="1143.68,-23.56 1050,-36 956.32,-23.56 992.1,-3.44 1107.9,-3.44 1143.68,-23.56"/>
<text text-anchor="middle" x="1050" y="-14.9" font-family="Times,serif" font-size="12.00">Threads::Threads</text>
</g>
<!-- node7&#45;&gt;node8 -->
<g id="edge14" class="edge">
<title>node7&#45;&gt;node8</title>
<path fill="none" stroke="black" stroke-dasharray="1,5" d="M1931.4,-169.36C1938.85,-141.87 1945.19,-98.31 1921,-73 1894.71,-45.49 1373.21,-27.9 1149.99,-21.6"/>
<polygon fill="black" stroke="black" points="1150,-18.1 1139.91,-21.32 1149.81,-25.1 1150,-18.1"/>
</g>
<!-- node9 -->
<g id="node18" class="node">
<title>node9</title>
<polygon fill="none" stroke="black" points="2266.34,-102.72 2191.67,-130.24 2042.33,-130.24 1967.66,-102.72 2042.33,-75.19 2191.67,-75.19 2266.34,-102.72"/>
<text text-anchor="middle" x="2117" y="-106.12" font-family="Times,serif" font-size="12.00">civetweb</text>
<text text-anchor="middle" x="2117" y="-93.12" font-family="Times,serif" font-size="12.00">(prometheus&#45;cpp::civetweb)</text>
</g>
<!-- node7&#45;&gt;node9 -->
<g id="edge15" class="edge">
<title>node7&#45;&gt;node9</title>
<path fill="none" stroke="black" stroke-dasharray="1,5" d="M1974.99,-170.14C1998.28,-159.25 2026.01,-146.27 2050.77,-134.7"/>
<polygon fill="black" stroke="black" points="2052.52,-137.74 2060.09,-130.33 2049.55,-131.4 2052.52,-137.74"/>
</g>
<!-- node10 -->
<g id="node19" class="node">
<title>node10</title>
<polygon fill="none" stroke="black" points="1768.33,-91.93 1768.33,-113.51 1697.84,-128.76 1598.16,-128.76 1527.67,-113.51 1527.67,-91.93 1598.16,-76.67 1697.84,-76.67 1768.33,-91.93"/>
<text text-anchor="middle" x="1648" y="-106.12" font-family="Times,serif" font-size="12.00">core</text>
<text text-anchor="middle" x="1648" y="-93.12" font-family="Times,serif" font-size="12.00">(prometheus&#45;cpp::core)</text>
</g>
<!-- node7&#45;&gt;node10 -->
<g id="edge17" class="edge">
<title>node7&#45;&gt;node10</title>
<path fill="none" stroke="black" d="M1858.18,-173.07C1817.81,-159.75 1765.72,-142.56 1723.5,-128.63"/>
<polygon fill="black" stroke="black" points="1724.41,-125.24 1713.82,-125.43 1722.22,-131.89 1724.41,-125.24"/>
</g>
<!-- node10&#45;&gt;node8 -->
<g id="edge16" class="edge">
<title>node10&#45;&gt;node8</title>
<path fill="none" stroke="black" stroke-dasharray="1,5" d="M1569.46,-82.86C1552.86,-79.26 1535.4,-75.76 1519,-73 1387.6,-50.87 1233.94,-35.07 1139.3,-26.48"/>
<polygon fill="black" stroke="black" points="1139.46,-22.99 1129.19,-25.58 1138.83,-29.96 1139.46,-22.99"/>
</g>
<!-- node11&#45;&gt;node8 -->
<g id="edge20" class="edge">
<title>node11&#45;&gt;node8</title>
<path fill="none" stroke="black" d="M1509.56,-177C1498.8,-174.18 1487.61,-171.51 1477,-169.43 1408.48,-156.03 1224.16,-169.52 1165,-132.43 1138.44,-115.78 1148.69,-95.64 1127,-73 1114.28,-59.72 1097.85,-47.68 1083.43,-38.35"/>
<polygon fill="black" stroke="black" points="1085.1,-35.26 1074.77,-32.9 1081.37,-41.19 1085.1,-35.26"/>
</g>
<!-- node12 -->
<g id="node21" class="node">
<title>node12</title>
<polygon fill="none" stroke="black" points="1117.78,-98.71 1104.36,-113.94 1050,-120.72 995.64,-113.94 982.22,-98.71 1019.83,-86.5 1080.17,-86.5 1117.78,-98.71"/>
<text text-anchor="middle" x="1050" y="-99.62" font-family="Times,serif" font-size="12.00">CURL::libcurl</text>
</g>
<!-- node11&#45;&gt;node12 -->
<g id="edge19" class="edge">
<title>node11&#45;&gt;node12</title>
<path fill="none" stroke="black" stroke-dasharray="1,5" d="M1510.16,-176.54C1499.24,-173.73 1487.84,-171.19 1477,-169.43 1401.21,-157.19 1205.57,-173.36 1132,-151.43 1112.6,-145.65 1092.93,-134.43 1077.72,-124.32"/>
<polygon fill="black" stroke="black" points="1079.54,-121.32 1069.32,-118.54 1075.58,-127.09 1079.54,-121.32"/>
</g>
<!-- node13 -->
<g id="node22" class="node">
<title>node13</title>
<polygon fill="none" stroke="black" points="1912,-98.71 1906.65,-113.94 1885,-120.72 1863.35,-113.94 1858,-98.71 1872.98,-86.5 1897.02,-86.5 1912,-98.71"/>
<text text-anchor="middle" x="1885" y="-99.62" font-family="Times,serif" font-size="12.00">dl</text>
</g>
<!-- node11&#45;&gt;node13 -->
<g id="edge21" class="edge">
<title>node11&#45;&gt;node13</title>
<path fill="none" stroke="black" d="M1650.85,-186.22C1708.59,-178.12 1786.22,-162.4 1849,-132.43 1854.14,-129.98 1859.21,-126.67 1863.85,-123.17"/>
<polygon fill="black" stroke="black" points="1866.11,-125.83 1871.65,-116.8 1861.69,-120.41 1866.11,-125.83"/>
</g>
<!-- node14 -->
<g id="node23" class="node">
<title>node14</title>
<polygon fill="none" stroke="black" points="1840,-98.71 1834.65,-113.94 1813,-120.72 1791.35,-113.94 1786,-98.71 1800.98,-86.5 1825.02,-86.5 1840,-98.71"/>
<text text-anchor="middle" x="1813" y="-99.62" font-family="Times,serif" font-size="12.00">rt</text>
</g>
<!-- node11&#45;&gt;node14 -->
<g id="edge22" class="edge">
<title>node11&#45;&gt;node14</title>
<path fill="none" stroke="black" d="M1638.35,-180.71C1680.16,-170.83 1733.38,-155.19 1777,-132.43 1782.05,-129.8 1787.08,-126.41 1791.7,-122.88"/>
<polygon fill="black" stroke="black" points="1793.97,-125.55 1799.52,-116.53 1789.55,-120.12 1793.97,-125.55"/>
</g>
<!-- node15&#45;&gt;node8 -->
<g id="edge24" class="edge">
<title>node15&#45;&gt;node8</title>
<path fill="none" stroke="black" d="M940.64,-169.19C928.87,-138.8 915.37,-87.68 940,-54 947.87,-43.24 959.08,-35.7 971.36,-30.45"/>
<polygon fill="black" stroke="black" points="972.8,-33.65 980.93,-26.86 970.34,-27.1 972.8,-33.65"/>
</g>
<!-- node17&#45;&gt;node8 -->
<g id="edge28" class="edge">
<title>node17&#45;&gt;node8</title>
<path fill="none" stroke="black" d="M733.48,-168.97C722.21,-141.95 710.57,-99.58 733,-73 760.35,-40.6 866.87,-27.63 948.97,-22.45"/>
<polygon fill="black" stroke="black" points="949.33,-25.94 959.1,-21.84 948.91,-18.95 949.33,-25.94"/>
</g>
<!-- node18 -->
<g id="node27" class="node">
<title>node18</title>
<polygon fill="none" stroke="black" points="888.45,-91.93 888.45,-113.51 845.42,-128.76 784.58,-128.76 741.55,-113.51 741.55,-91.93 784.58,-76.67 845.42,-76.67 888.45,-91.93"/>
<text text-anchor="middle" x="815" y="-106.12" font-family="Times,serif" font-size="12.00">gtest</text>
<text text-anchor="middle" x="815" y="-93.12" font-family="Times,serif" font-size="12.00">(GTest::gtest)</text>
</g>
<!-- node17&#45;&gt;node18 -->
<g id="edge30" class="edge">
<title>node17&#45;&gt;node18</title>
<path fill="none" stroke="black" d="M765.22,-169.18C772.77,-159.25 781.55,-147.71 789.61,-137.11"/>
<polygon fill="black" stroke="black" points="792.62,-138.94 795.88,-128.86 787.04,-134.7 792.62,-138.94"/>
</g>
<!-- node18&#45;&gt;node8 -->
<g id="edge29" class="edge">
<title>node18&#45;&gt;node8</title>
<path fill="none" stroke="black" d="M851.62,-78.76C866.77,-70.03 884.79,-60.61 902,-54 928,-44.01 957.7,-36.31 983.65,-30.71"/>
<polygon fill="black" stroke="black" points="984.69,-34.06 993.76,-28.59 983.25,-27.21 984.69,-34.06"/>
</g>
<!-- node19 -->
<g id="node28" class="node">
<title>node19</title>
<polygon fill="none" stroke="black" points="1575.68,-369.55 1577.46,-369.65 1579.22,-369.8 1580.95,-369.99 1582.65,-370.24 1584.31,-370.53 1585.92,-370.87 1587.48,-371.25 1588.99,-371.68 1590.43,-372.15 1591.8,-372.66 1593.1,-373.22 1594.32,-373.81 1595.45,-374.44 1596.51,-375.11 1597.47,-375.81 1598.35,-376.54 1599.13,-377.3 1599.81,-378.09 1600.41,-378.91 1600.91,-379.75 1601.31,-380.61 1601.62,-381.49 1601.83,-382.39 1601.96,-383.3 1601.99,-384.22 1601.93,-385.15 1601.79,-386.09 1601.57,-387.03 1601.27,-387.97 1600.89,-388.91 1600.44,-389.85 1599.92,-390.78 1599.33,-391.71 1598.69,-392.62 1597.98,-393.51 1597.22,-394.39 1596.41,-395.25 1595.56,-396.09 1594.67,-396.91 1593.73,-397.7 1592.76,-398.46 1591.76,-399.2 1590.74,-399.9 1589.68,-400.56 1588.61,-401.19 1587.52,-401.79 1586.41,-402.34 1585.28,-402.85 1584.14,-403.33 1582.99,-403.75 1581.84,-404.14 1580.67,-404.47 1579.5,-404.77 1578.33,-405.01 1577.15,-405.21 1575.96,-405.35 1574.78,-405.45 1573.59,-405.5 1572.41,-405.5 1571.22,-405.45 1570.04,-405.35 1568.85,-405.21 1567.67,-405.01 1566.5,-404.77 1565.33,-404.47 1564.16,-404.14 1563.01,-403.75 1561.86,-403.33 1560.72,-402.85 1559.59,-402.34 1558.48,-401.79 1557.39,-401.19 1556.32,-400.56 1555.26,-399.9 1554.24,-399.2 1553.24,-398.46 1552.27,-397.7 1551.33,-396.91 1550.44,-396.09 1549.59,-395.25 1548.78,-394.39 1548.02,-393.51 1547.31,-392.62 1546.67,-391.71 1546.08,-390.78 1545.56,-389.85 1545.11,-388.91 1544.73,-387.97 1544.43,-387.03 1544.21,-386.09 1544.07,-385.15 1544.01,-384.22 1544.04,-383.3 1544.17,-382.39 1544.38,-381.49 1544.69,-380.61 1545.09,-379.75 1545.59,-378.91 1546.19,-378.09 1546.87,-377.3 1547.65,-376.54 1548.53,-375.81 1549.49,-375.11 1550.55,-374.44 1551.68,-373.81 1552.9,-373.22 1554.2,-372.66 1555.57,-372.15 1557.01,-371.68 1558.52,-371.25 1560.08,-370.87 1561.69,-370.53 1563.35,-370.24 1565.05,-369.99 1566.78,-369.8 1568.54,-369.65 1570.32,-369.55 1572.1,-369.5 1573.9,-369.5 1575.68,-369.55"/>
<text text-anchor="middle" x="1573" y="-384.4" font-family="Times,serif" font-size="12.00">XXX</text>
</g>
<!-- node19&#45;&gt;node1 -->
<g id="edge32" class="edge">
<title>node19&#45;&gt;node1</title>
<path fill="none" stroke="black" stroke-dasharray="1,5" d="M1554.84,-372.13C1537.89,-358.72 1512.3,-338.48 1492.44,-322.77"/>
<polygon fill="black" stroke="black" points="1494.61,-320.02 1484.59,-316.56 1490.26,-325.51 1494.61,-320.02"/>
</g>
<!-- node20 -->
<g id="node29" class="node">
<title>node20</title>
<polygon fill="none" stroke="black" points="1703.1,-298.48 1660.55,-316.48 1575.45,-316.48 1532.9,-298.48 1575.45,-280.48 1660.55,-280.48 1703.1,-298.48"/>
<text text-anchor="middle" x="1618" y="-295.38" font-family="Times,serif" font-size="12.00">backward_object</text>
</g>
<!-- node19&#45;&gt;node20 -->
<g id="edge33" class="edge">
<title>node19&#45;&gt;node20</title>
<path fill="none" stroke="black" d="M1581.68,-369.72C1588.17,-357.16 1597.17,-339.75 1604.59,-325.41"/>
<polygon fill="black" stroke="black" points="1607.71,-326.99 1609.2,-316.5 1601.49,-323.78 1607.71,-326.99"/>
</g>
<!-- node21 -->
<g id="node30" class="node">
<title>node21</title>
<polygon fill="none" stroke="black" points="1861.86,-376.71 1861.86,-398.29 1791.06,-413.55 1690.94,-413.55 1620.14,-398.29 1620.14,-376.71 1690.94,-361.46 1791.06,-361.46 1861.86,-376.71"/>
<text text-anchor="middle" x="1741" y="-390.9" font-family="Times,serif" font-size="12.00">backward</text>
<text text-anchor="middle" x="1741" y="-377.9" font-family="Times,serif" font-size="12.00">(Backward::Backward)</text>
</g>
<!-- node22 -->
<g id="node31" class="node">
<title>node22</title>
<polygon fill="none" stroke="black" points="1975.87,-393.06 1928,-405.5 1880.13,-393.06 1898.41,-372.94 1957.59,-372.94 1975.87,-393.06"/>
<text text-anchor="middle" x="1928" y="-384.4" font-family="Times,serif" font-size="12.00">cppzmq</text>
</g>
<!-- node23 -->
<g id="node32" class="node">
<title>node23</title>
<polygon fill="none" stroke="black" points="1966.03,-294.47 1958.49,-309.7 1928,-316.48 1897.51,-309.7 1889.97,-294.47 1911.08,-282.26 1944.92,-282.26 1966.03,-294.47"/>
<text text-anchor="middle" x="1928" y="-295.38" font-family="Times,serif" font-size="12.00">libzmq</text>
</g>
<!-- node22&#45;&gt;node23 -->
<g id="edge34" class="edge">
<title>node22&#45;&gt;node23</title>
<path fill="none" stroke="black" stroke-dasharray="5,2" d="M1928,-372.9C1928,-360.55 1928,-341.97 1928,-326.59"/>
<polygon fill="black" stroke="black" points="1931.5,-326.57 1928,-316.57 1924.5,-326.57 1931.5,-326.57"/>
</g>
<!-- node24 -->
<g id="node33" class="node">
<title>node24</title>
<polygon fill="none" stroke="black" points="1297.86,-184.67 1297.86,-206.24 1227.06,-221.5 1126.94,-221.5 1056.14,-206.24 1056.14,-184.67 1126.94,-169.41 1227.06,-169.41 1297.86,-184.67"/>
<text text-anchor="middle" x="1177" y="-198.86" font-family="Times,serif" font-size="12.00">push</text>
<text text-anchor="middle" x="1177" y="-185.86" font-family="Times,serif" font-size="12.00">(prometheus&#45;cpp::push)</text>
</g>
<!-- node24&#45;&gt;node8 -->
<g id="edge36" class="edge">
<title>node24&#45;&gt;node8</title>
<path fill="none" stroke="black" stroke-dasharray="1,5" d="M1086.69,-177.97C1038.91,-167.22 987.22,-151.62 973,-132.43 957.27,-111.21 960.81,-96.44 973,-73 980.99,-57.65 995.56,-45.75 1009.9,-37.08"/>
<polygon fill="black" stroke="black" points="1011.74,-40.06 1018.73,-32.09 1008.3,-33.96 1011.74,-40.06"/>
</g>
<!-- node24&#45;&gt;node10 -->
<g id="edge37" class="edge">
<title>node24&#45;&gt;node10</title>
<path fill="none" stroke="black" d="M1270.09,-178.6C1338.97,-166.62 1435.01,-149.39 1519,-132.43 1531.46,-129.92 1544.56,-127.15 1557.45,-124.35"/>
<polygon fill="black" stroke="black" points="1558.23,-127.76 1567.25,-122.21 1556.73,-120.92 1558.23,-127.76"/>
</g>
<!-- node24&#45;&gt;node12 -->
<g id="edge35" class="edge">
<title>node24&#45;&gt;node12</title>
<path fill="none" stroke="black" stroke-dasharray="1,5" d="M1123.81,-169.86C1113.87,-164.35 1103.84,-158.14 1095,-151.43 1085.79,-144.45 1076.8,-135.49 1069.32,-127.24"/>
<polygon fill="black" stroke="black" points="1071.86,-124.83 1062.64,-119.62 1066.6,-129.44 1071.86,-124.83"/>
</g>
<!-- node25 -->
<g id="node34" class="node">
<title>node25</title>
<polygon fill="none" stroke="black" points="1509.63,-111.97 1342,-132.65 1174.37,-111.97 1238.4,-78.5 1445.6,-78.5 1509.63,-111.97"/>
<text text-anchor="middle" x="1342" y="-106.12" font-family="Times,serif" font-size="12.00">spdlog_header_only</text>
<text text-anchor="middle" x="1342" y="-93.12" font-family="Times,serif" font-size="12.00">(spdlog::spdlog_header_only)</text>
</g>
<!-- node25&#45;&gt;node8 -->
<g id="edge38" class="edge">
<title>node25&#45;&gt;node8</title>
<path fill="none" stroke="black" stroke-dasharray="5,2" d="M1259.88,-78.46C1208.87,-64 1144.89,-45.88 1101.06,-33.46"/>
<polygon fill="black" stroke="black" points="1101.78,-30.03 1091.2,-30.67 1099.87,-36.76 1101.78,-30.03"/>
</g>
</g>
</svg>
